<svg width="13" height="16" fill="none" xmlns="http://www.w3.org/2000/svg"><path d="M12.663 13.83l-.906-10.316a.438.438 0 00-.433-.402H9.46C9.434 1.39 8.042 0 6.333 0c-1.708 0-3.1 1.39-3.126 3.112H1.343a.436.436 0 00-.434.402L.003 13.831 0 13.87C0 15.045 1.065 16 2.375 16h7.916c1.31 0 2.376-.955 2.376-2.13 0-.013 0-.026-.004-.04zM6.333.884c1.227 0 2.227.995 2.253 2.229H4.08C4.107 1.878 5.107.883 6.333.883zm3.958 14.234H2.375c-.822 0-1.488-.55-1.501-1.227l.867-9.892h1.463V5.34a.437.437 0 10.874 0V3.998h4.508V5.34a.437.437 0 10.874 0V3.998h1.462l.87 9.892c-.012.677-.682 1.227-1.5 1.227z" fill="#fff"/></svg>