<svg width="29" height="35" fill="none" xmlns="http://www.w3.org/2000/svg"><path d="M24.492 9.37a.513.513 0 00-.512.513V30.67c0 .11.021.218.063.32l.413 1.005a.513.513 0 10.948-.39l-.399-.971V9.883a.513.513 0 00-.513-.513z" fill="#4351D8"/><path d="M18.464 0c-1.13 0-2.238.35-3.16.992A5.495 5.495 0 0012.148 0a5.532 5.532 0 00-5.526 5.526v1.16H2.488a.845.845 0 00-.845.845v23.104l-1.314 3.2A.843.843 0 001.11 35h26.78a.843.843 0 00.78-1.165l-1.314-3.2V29.42a.513.513 0 10-1.025 0v1.25c0 .11.021.218.063.32l1.225 2.983h-3.608a.843.843 0 00-.043-.14l-1.314-3.2V12.942a.513.513 0 00-1.026 0v17.73c0 .11.021.218.063.32l1.225 2.983H1.38l1.225-2.983a.84.84 0 00.064-.32V7.712h3.953v1.9a1.442 1.442 0 002.881 0v-1.9h5.29v1.9c0 .794.647 1.44 1.44 1.44.795 0 1.441-.646 1.441-1.44v-1.9h3.954v2.836a.513.513 0 101.026 0V7.712h3.677v19.316a.513.513 0 001.025 0V7.531a.845.845 0 00-.844-.844H23.99V5.526A5.532 5.532 0 0018.464 0zm4.5 5.526v1.16h-.83v-1.16a3.674 3.674 0 00-5.479-3.194 5.576 5.576 0 00-.537-.647 4.514 4.514 0 012.346-.66c2.481 0 4.5 2.02 4.5 4.5zm-9.001 1.16v-1.16c0-.547.1-1.087.29-1.594.339.445.54.998.54 1.594v1.16h-.83zm2.686 2.925a.416.416 0 01-.83 0V5.526c0-1.13-.523-2.15-1.34-2.827a.512.512 0 00-.118-.094 3.642 3.642 0 00-2.149-.749 3.634 3.634 0 00-2.314.791.513.513 0 00.638.803 2.57 2.57 0 011.659-.569c.45.008.875.131 1.245.34a5.538 5.538 0 00-.502 2.305v1.16H9.504V5.583c0-.129.009-.258.027-.385a.513.513 0 00-1.015-.146 3.743 3.743 0 00-.038.53v4.03a.416.416 0 01-.83 0V5.526c0-2.482 2.019-4.5 4.5-4.5a4.505 4.505 0 014.501 4.5V9.61zm.52-6.392a2.648 2.648 0 013.939 2.307v1.16h-3.434v-1.16c0-.823-.18-1.604-.504-2.307z" fill="#4351D8"/></svg>