<svg width="25" height="25" fill="none" xmlns="http://www.w3.org/2000/svg"><g clip-path="url(#clip0)" fill="#4351D8"><path d="M24.785 20.642l-4.224-4.224 2.072-2.071a.733.733 0 00-.286-1.213L9.917 8.991a.732.732 0 00-.926.926l4.143 12.43a.733.733 0 001.213.286l2.071-2.072 4.224 4.224a.73.73 0 001.036 0l3.107-3.107a.732.732 0 000-1.036zm-3.625 2.59l-4.224-4.224a.732.732 0 00-1.036 0l-1.751 1.751-3.305-9.915 9.915 3.305-1.751 1.751a.733.733 0 000 1.036l4.224 4.224-2.072 2.072zM9.521 5.86a.732.732 0 00.733-.733V.732a.732.732 0 00-1.465 0v4.395c0 .404.328.732.732.732zM3.825 2.789a.732.732 0 10-1.036 1.036l3.107 3.107a.732.732 0 101.036-1.036L3.825 2.79zm2.071 9.322L2.79 15.218a.732.732 0 101.036 1.036l3.107-3.107a.732.732 0 00-1.036-1.036zm7.251-5.179l3.107-3.107a.732.732 0 10-1.036-1.036l-3.107 3.107a.732.732 0 001.036 1.036zM5.86 9.521a.732.732 0 00-.733-.732H.732a.732.732 0 000 1.465h4.395a.732.732 0 00.732-.733z"/></g><defs><clipPath id="clip0"><path fill="#fff" d="M0 0h25v25H0z"/></clipPath></defs></svg>