<svg width="25" height="25" fill="none" xmlns="http://www.w3.org/2000/svg"><g clip-path="url(#clip0)"><path d="M15.18 19.619v4.488a.893.893 0 001.555.598l8.036-8.929a.893.893 0 00.028-1.16l-8.036-9.822a.893.893 0 00-1.584.563v4.45C8.125 9.576 3.724 6.561 1.74.61A.893.893 0 000 .893C0 11.407 6.33 19.13 15.18 19.619zm.892-8.012c.493 0 .893-.4.893-.893V7.857l5.967 7.294-5.967 6.63v-3.03c0-.494-.4-.894-.893-.894-7.018 0-12.27-4.856-13.818-12.266 2.874 3.997 7.502 6.016 13.818 6.016z" fill="#4351D8"/></g><defs><clipPath id="clip0"><path fill="#fff" transform="rotate(-180 12.5 12.5)" d="M0 0h25v25H0z"/></clipPath></defs></svg>