<svg width="25" height="25" fill="none" xmlns="http://www.w3.org/2000/svg"><path d="M22.8 18.6a.977.977 0 00-1.919.359.966.966 0 01-.209.806.963.963 0 01-.75.352H5.096a.963.963 0 01-.75-.352.966.966 0 01-.21-.806c.278-1.478.834-2.45 1.371-3.39.653-1.143 1.328-2.323 1.328-4.143V9.96c0-3.08 2.503-5.619 5.581-5.663h.185c3.067.044 5.562 2.583 5.562 5.663v1.465c0 1.549.507 2.615.982 3.492a.976.976 0 101.717-.93c-.472-.873-.746-1.572-.746-2.562V9.96a7.58 7.58 0 00-2.192-5.345 7.542 7.542 0 00-4.448-2.212V.977a.977.977 0 00-1.954 0v1.43c-3.733.484-6.64 3.705-6.64 7.554v1.465c0 1.3-.473 2.127-1.07 3.173-.59 1.03-1.257 2.198-1.595 4-.161.86.067 1.74.626 2.413a2.92 2.92 0 002.254 1.058h4.491A2.933 2.933 0 0012.52 25a2.933 2.933 0 002.93-2.93h4.472a2.92 2.92 0 002.254-1.058 2.924 2.924 0 00.626-2.413zm-10.28 4.446a.978.978 0 01-.977-.977h1.953a.978.978 0 01-.976.977zM5.291 2.202a.977.977 0 00-1.379.076A11.503 11.503 0 00.977 9.961a.977.977 0 101.953 0c0-2.358.865-4.624 2.437-6.38a.977.977 0 00-.076-1.379zm15.797.076a.977.977 0 00-1.455 1.303 9.553 9.553 0 012.437 6.38.977.977 0 101.953 0c0-2.84-1.042-5.568-2.935-7.683z" fill="#4351D8"/></svg>