<svg width="85" height="85" fill="none" xmlns="http://www.w3.org/2000/svg"><g clip-path="url(#clip0)" fill="#4351D8"><path d="M39.16 28.45v7.273c-2.517.7-4.196 2.797-4.196 5.455v2.237L29.23 49.15c-.84.84-1.259 1.819-1.259 2.938v9.23c0 .84.28 1.678.7 2.377l4.895 7.273v2.378h-2.798v11.189h2.798v-2.798h9.79V78.94h-9.79v-2.797h18.181v8.392h2.797v-11.19h-2.797v-2.238l1.539-1.538c.839-.84 1.258-1.818 1.258-2.938v-3.915l1.958-1.958c1.539-1.539 1.679-3.916.28-5.594l-10.63-13.148v-.838c0-2.518-1.678-4.756-4.195-5.455v-7.272c7.692-.84 13.286-7.692 12.447-15.245C53.564 5.655 46.852-.08 39.16.62c-7.692.7-13.286 7.693-12.447 15.385.56 6.572 5.873 11.887 12.447 12.447zM54.544 58.8l-1.398 1.398-2.098-2.098 2.797-2.098.7.84a1.353 1.353 0 010 1.957zm-7.692-4.896l3.357-2.517 1.957 2.378-3.076 2.237-2.238-2.098zm1.539-4.615l-2.238 1.679v-4.476l2.238 2.797zm-5.035-8.111v13.146l8.391 8.392v3.916c0 .42-.14.699-.42.979l-2.377 2.377v3.357H36.363v-3.217l-5.314-7.971c-.14-.28-.28-.56-.28-.84v-9.23c0-.42.14-.7.419-.98l3.776-3.776v5.315c0 .42-.14.7-.42.979l-1.958 1.958 1.959 1.958 1.958-1.958c.84-.84 1.258-1.818 1.258-2.937V41.178a2.805 2.805 0 012.797-2.797 2.805 2.805 0 012.798 2.797zM40.559 3.417c6.153 0 11.188 5.034 11.188 11.188 0 6.154-5.035 11.189-11.188 11.189-6.154 0-11.189-5.035-11.189-11.189S34.405 3.417 40.559 3.417zm33.984 23.355l1.959-1.958-3.217-3.216 3.217-3.217-1.959-1.958-3.216 3.216-3.216-3.216-1.959 1.958 3.217 3.217-3.217 3.216 1.959 1.958 3.216-3.216 3.216 3.216z"/><path d="M46.153 78.94h2.797v2.797h-2.797v-2.798zm29.37-32.728v-2.237c0-1.819-1.119-3.357-2.797-3.916v-7.412c6.153-.84 10.489-6.434 9.65-12.448-.84-6.154-6.434-10.489-12.448-9.65-6.153.839-10.489 6.433-9.65 12.448.7 5.034 4.616 9.09 9.65 9.65v7.412c-1.678.559-2.797 2.098-2.797 3.916v2.098l-5.454 4.615c-.98.7-1.538 1.818-1.538 3.077v6.433c0 .98.419 1.958.979 2.797l4.615 5.315v2.238h-2.797v13.986h2.797v-5.595H76.92v-2.797H65.733v-2.797h13.986v11.189h2.797V70.547h-2.797V68.45l2.377-1.539c1.119-.839 1.818-2.097 1.818-3.496v-2.518l.84-2.377a4.131 4.131 0 00-.98-4.336l-8.251-7.972zm6.573 11.609l-.28.839-2.657-1.818.979-2.098 1.538 1.538c.42.42.56.98.42 1.539zm-4.056-5.175l-1.259 2.518-1.258-.7V50.13l2.517 2.517zM62.936 21.598c0-4.616 3.776-8.391 8.391-8.391s8.392 3.775 8.392 8.39c0 4.616-3.777 8.392-8.392 8.392-4.615 0-8.391-3.776-8.391-8.391zm18.181 41.817c0 .42-.28.84-.56 1.119l-3.636 2.517v3.497H68.53V67.19l-5.314-6.014c-.28-.28-.28-.56-.28-.98v-6.432c0-.42.14-.84.559-1.12l3.636-3.076v4.335c0 .42-.14.7-.419.98l-1.959 1.958 1.959 1.957 1.958-1.957c.84-.84 1.258-1.818 1.258-2.938v-9.929c0-.84.56-1.398 1.4-1.398.838 0 1.398.559 1.398 1.398v11.888l8.391 5.594v1.958zM47.132 9.99l-1.959-1.958-8.81 8.81-1.818-1.818-1.959 1.958 3.777 3.777 10.77-10.77zM14.405 26.772l1.958-1.958-3.217-3.216 3.217-3.217-1.958-1.958-3.216 3.216-3.217-3.216-1.958 1.958 3.217 3.217-3.217 3.216 1.958 1.958 3.217-3.216 3.216 3.216z"/><path d="M5.594 68.31v2.238H2.797v13.986h2.797v-5.595h11.189v-2.797H5.594v-2.797H19.58v11.189h2.797V70.547H19.58V68.45l2.378-1.539c1.118-.839 1.818-2.097 1.818-3.496v-2.518l.839-2.377a4.132 4.132 0 00-.98-4.336l-8.25-7.972v-2.237c0-1.819-1.12-3.357-2.798-3.916v-7.412c6.154-.84 10.49-6.434 9.65-12.448-.84-6.014-6.293-10.489-12.447-9.65C3.636 11.248-.7 16.842.14 22.997c.7 5.034 4.615 9.09 9.65 9.65v7.412c-1.679.559-2.797 2.098-2.797 3.916v2.098l-5.454 4.615C.559 51.388 0 52.506 0 53.765v6.433c0 .98.42 1.958.98 2.797l4.614 5.315zm16.364-10.49l-.28.84-2.657-1.818.978-2.098 1.539 1.538c.42.42.56.98.42 1.539zM17.9 52.647l-1.258 2.518-1.259-.7V50.13l2.517 2.517zM2.797 21.598c0-4.616 3.777-8.391 8.392-8.391 4.615 0 8.391 3.775 8.391 8.39 0 4.616-3.776 8.392-8.391 8.392s-8.392-3.776-8.392-8.391zm0 32.167c0-.42.14-.84.56-1.12l3.636-2.936v4.335c0 .42-.14.7-.42.98L4.616 56.98l1.959 1.958 1.957-1.958c.84-.839 1.259-1.817 1.259-2.937V43.975c0-.84.56-1.398 1.399-1.398s1.398.559 1.398 1.398v11.888l8.392 5.594v1.958c0 .42-.28.84-.56 1.119l-3.636 2.517v3.497H8.39V67.19l-5.314-6.014c-.14-.28-.28-.56-.28-.98v-6.432z"/></g><defs><clipPath id="clip0"><path fill="#fff" d="M0 0h85v85H0z"/></clipPath></defs></svg>