<svg width="33" height="32" fill="none" xmlns="http://www.w3.org/2000/svg"><path d="M28.885 19.139h-5.063c.384-.969.59-2.011.59-3.076a8.4 8.4 0 00-3.465-6.782.47.47 0 10-.551.76 7.457 7.457 0 013.076 6.022 7.42 7.42 0 01-.67 3.076h-1.84a5.77 5.77 0 00.848-3.73 1.075 1.075 0 00-.403-.727 1.125 1.125 0 00-.827-.232 1.489 1.489 0 01-.293.005 1.481 1.481 0 01-1.346-1.41 1.449 1.449 0 01.156-.712 1.09 1.09 0 00.06-.84 1.127 1.127 0 00-.572-.65 5.751 5.751 0 00-3.223-.544.47.47 0 00.11.933 4.817 4.817 0 012.7.455c.045.021.078.06.094.105a.15.15 0 01-.007.117 2.402 2.402 0 002.432 3.474.177.177 0 01.132.036c.032.025.05.057.054.095a4.843 4.843 0 01-1.068 3.624h-7.537a4.827 4.827 0 01-1.095-3.193 4.888 4.888 0 012.558-4.158.47.47 0 00-.45-.825 5.83 5.83 0 00-3.047 4.96 5.765 5.765 0 00.878 3.217H9.282a7.42 7.42 0 01-.67-3.076 7.457 7.457 0 013.076-6.021.47.47 0 00-.551-.761 8.4 8.4 0 00-3.465 6.782c0 1.065.206 2.107.59 3.076H3.199a34.605 34.605 0 01-1.88-2.136 1.504 1.504 0 010-1.88c2.18-2.698 7.98-8.97 14.723-8.97 3.381 0 6.916 1.554 10.507 4.62a.47.47 0 10.61-.714c-3.765-3.215-7.506-4.846-11.117-4.846-7.148 0-13.188 6.517-15.453 9.319a2.448 2.448 0 000 3.061c.354.438.8.966 1.327 1.546H.517a.47.47 0 000 .939h2.286c2.98 3.042 7.786 6.834 13.239 6.834 2.836 0 5.783-1.023 8.76-3.04a.47.47 0 00-.528-.778c-2.818 1.91-5.587 2.879-8.232 2.879-4.75 0-9.031-3.113-11.91-5.895h4.57a8.384 8.384 0 002.435 2.766.468.468 0 00.656-.104.47.47 0 00-.105-.656 7.435 7.435 0 01-1.894-2.006h2.056l.039.04a5.76 5.76 0 004.153 1.75 5.79 5.79 0 004.188-1.79h2.06a7.433 7.433 0 01-1.894 2.006.47.47 0 00.55.76 8.383 8.383 0 002.435-2.766h4.57a30.001 30.001 0 01-2.097 1.848.47.47 0 00.587.734 31.723 31.723 0 002.842-2.582h2.283a.47.47 0 100-.94H30.17c.516-.567.96-1.093 1.325-1.545a2.448 2.448 0 000-3.061 35.624 35.624 0 00-2.833-3.104.47.47 0 10-.655.674 34.665 34.665 0 012.758 3.02c.44.545.44 1.336 0 1.881a34.445 34.445 0 01-1.88 2.136zm-12.843 1.79a4.826 4.826 0 01-2.751-.851h5.495a4.837 4.837 0 01-2.744.85z" fill="#fff"/><path d="M5.308 8.533c.202-.158.392-.303.582-.443 3.423-2.532 6.839-3.816 10.152-3.816 3.313 0 6.73 1.284 10.153 3.816.189.14.379.285.581.443a.467.467 0 00.66-.081.47.47 0 00-.082-.66 28.668 28.668 0 00-.6-.457c-3.59-2.655-7.193-4-10.712-4s-7.123 1.345-10.711 4c-.196.145-.393.294-.601.457a.47.47 0 10.578.74zm21.468 15.06c-.203.158-.393.303-.581.442-3.424 2.532-6.84 3.816-10.153 3.816-3.314 0-6.73-1.284-10.153-3.816a27.46 27.46 0 01-.581-.442.47.47 0 10-.578.74c.21.163.406.313.6.457 3.59 2.655 7.193 4 10.712 4s7.123-1.345 10.711-4c.195-.144.392-.294.601-.457a.47.47 0 00-.578-.74zM.47 4.337a.47.47 0 00.47-.47v-2.85C.94.976.973.94 1.016.94h2.85a.47.47 0 000-.94h-2.85A1.02 1.02 0 000 1.018v2.85c0 .259.21.47.47.47zM31.066 0h-2.85a.47.47 0 100 .94h2.85c.043 0 .078.034.078.077v2.85a.47.47 0 10.94 0v-2.85A1.02 1.02 0 0031.066 0zM3.867 31.06h-2.85a.078.078 0 01-.078-.077v-2.85a.47.47 0 00-.939 0v2.85C0 31.543.456 32 1.017 32h2.85a.47.47 0 000-.94zm27.747-3.397a.47.47 0 00-.47.47v2.85a.078.078 0 01-.078.078h-2.85a.47.47 0 000 .939h2.85c.561 0 1.018-.456 1.018-1.017v-2.85a.47.47 0 00-.47-.47z" fill="#fff"/></svg>