<svg width="85" height="85" fill="none" xmlns="http://www.w3.org/2000/svg"><path d="M42.58 82.084c10.657 0 19.296-6.96 19.296-15.546 0-8.586-8.64-15.546-19.296-15.546-10.656 0-19.295 6.96-19.295 15.546 0 8.586 8.639 15.546 19.295 15.546z" stroke="#4351D8" stroke-width="2.3" stroke-miterlimit="22.926"/><path d="M42.58 71.94c3.705 0 6.708-2.419 6.708-5.403 0-2.984-3.003-5.404-6.707-5.404-3.705 0-6.708 2.42-6.708 5.404s3.003 5.404 6.708 5.404z" stroke="#4351D8" stroke-width="2.3" stroke-miterlimit="22.926"/><path clip-rule="evenodd" d="M77.866 66.537c-.072-.735-.879-1.86-2.16-3.168-1.281-1.306-3.403-2.991-5.414-4.404-2.01-1.41-3.907-2.552-6.046-3.524-2.14-.971-4.52-1.775-6.836-2.473-2.316-.702-4.567-1.297-7.077-1.665-2.508-.37-5.277-.51-7.926-.493-2.65.014-5.18.183-7.558.502a47.614 47.614 0 00-6.88 1.423c-2.272.646-4.588 1.476-6.839 2.565-2.25 1.087-4.439 2.436-6.338 3.802-1.901 1.363-3.513 2.742-4.623 3.985-1.11 1.243-2.116 2.243-2.323 3.45.063 1.22 1.213 2.208 2.323 3.45 1.11 1.243 2.722 2.623 4.623 3.986 1.9 1.366 4.087 2.715 6.338 3.802 2.251 1.09 4.567 1.919 6.84 2.565a47.615 47.615 0 006.879 1.423c2.379.319 4.908.488 7.558.502 2.649.016 5.418-.124 7.926-.493 2.51-.368 4.761-.963 7.077-1.665 2.316-.698 4.697-1.502 6.836-2.473 2.139-.972 4.036-2.113 6.046-3.524 2.01-1.413 4.133-3.098 5.414-4.404 1.281-1.308 2.312-2.12 2.16-3.169v0zm-12.05-53.453l3.608-3.692a3.994 3.994 0 00-.065-5.641 3.998 3.998 0 00-5.643.061l-3.543 3.625 5.643 5.647zm-8.003-3.231L43.661 24.327a4 4 0 00.068 5.646 4.001 4.001 0 005.644-.065L63.59 15.363l-5.777-5.51zm1.364-3.415l7.77 7.78c.324.323.235.865.042 1.833-.193.968-.96 1.644-1.502 1.124l-9.601-9.164c-.543-.521.623-1.183 1.187-1.46.563-.274 1.566-.647 2.104-.113v0zM42.54 35.3c-.499.31-1.187 1.508-1.822 2.58-.639 1.072-1.22 2.025-1.442 3.019-.224.992-.088 2.027.2 2.741.283.71.712 1.1 1.303 1.458.592.36 1.343.694 2.111.69.77-.003 1.56-.34 2.18-.763.62-.427 1.07-.944 1.3-1.637.228-.693.235-1.565.004-2.428-.23-.863-.693-1.715-1.187-2.519-.492-.807-1.014-1.563-1.427-2.224-.411-.664-.72-1.233-1.22-.918v0z" stroke="#4351D8" stroke-width="2.3" stroke-miterlimit="22.926"/></svg>