<svg width="114" height="91" fill="none" xmlns="http://www.w3.org/2000/svg"><path d="M71.696 69.659l-.032.02c-19.058 11.335-42.198 12.205-59.816 2.44-.301-20.111 11.387-40.071 30.402-51.513l.032-.02c19.08-11.378 42.252-12.27 59.87-2.504.322 20.132-11.398 40.135-30.456 51.577zM113.25 14.45l-.033-.43-.633-2.75-1.956-1.235C100.315 3.526 88.068.088 75.188.088h-.409C61.523.163 48.3 3.902 36.546 10.906l-.054.032C24.75 17.996 15.2 27.88 8.882 39.535 2.674 50.989-.14 63.525.75 75.816l.204 2.825 2.407 1.514c10.335 6.532 22.603 9.97 35.505 9.97h.322c13.279-.054 26.514-3.793 38.277-10.797l.075-.054c11.721-7.047 21.25-16.92 27.567-28.554 6.22-11.441 9.034-23.989 8.143-36.268z" fill="#4452D9"/><path d="M58 21.616v13.526c5.328 0 9.657 4.34 9.657 9.668 0 5.329-4.33 9.658-9.657 9.658-5.329 0-9.67-4.33-9.67-9.658 0-2.406.882-4.608 2.354-6.306l-10.045-9.056a23.056 23.056 0 00-5.833 15.362c0 12.784 10.399 23.194 23.194 23.194 12.784 0 23.193-10.41 23.193-23.194 0-12.794-10.41-23.194-23.193-23.194z" fill="#040606"/></svg>