<svg width="85" height="85" fill="none" xmlns="http://www.w3.org/2000/svg"><g clip-path="url(#clip0)" fill="#4351D8"><path d="M44.857 66.125a39.95 39.95 0 01-2.35.07c-10.372 0-18.967-4.014-25.562-8.858.249-1.869.181-3.768.123-5.384a53.32 53.32 0 01-.045-1.837 1.245 1.245 0 10-2.49 0c0 .602.023 1.245.047 1.926.04 1.101.082 2.296.028 3.48a61.32 61.32 0 01-5.529-5.144 1.245 1.245 0 00-1.804 1.717 63.174 63.174 0 006.94 6.302c-.29 1.117-.768 2.132-1.54 2.933-1.183 1.226-2.965 1.895-5.428 2.036a3.742 3.742 0 00-3.512-2.465A3.74 3.74 0 000 64.639a3.741 3.741 0 003.735 3.739 3.742 3.742 0 003.531-2.52c3.148-.167 5.567-1.106 7.2-2.8.873-.903 1.466-1.96 1.867-3.09 6.828 4.82 15.614 8.717 26.174 8.717.831 0 1.671-.025 2.497-.074a1.245 1.245 0 10-.147-2.486zm-41.122-.237a1.248 1.248 0 010-2.497 1.248 1.248 0 010 2.497zm-.153-18.017a1.243 1.243 0 001.75.193c.537-.43.623-1.214.193-1.75a52.793 52.793 0 01-2.787-3.79c1.15-1.732 4.66-6.686 10.2-11.579 2.984-2.634 6.112-4.866 9.335-6.664a89.473 89.473 0 00-.028 2.033 1.245 1.245 0 102.49 0c0-.901.024-1.843.049-2.84l.012-.502c.257-.123.513-.244.77-.361 5.46-2.496 11.159-3.761 16.94-3.761 10.49 0 19.142 4.173 25.549 8.86-.25 1.868-.181 3.766-.124 5.381.024.658.046 1.28.046 1.837a1.245 1.245 0 102.49 0c0-.601-.023-1.245-.047-1.926-.04-1.102-.082-2.298-.028-3.484a58.7 58.7 0 013.166 2.782 1.245 1.245 0 101.71-1.811 60.712 60.712 0 00-4.483-3.84c.29-1.118.768-2.134 1.54-2.934 1.183-1.226 2.965-1.896 5.428-2.037a3.742 3.742 0 003.512 2.466A3.741 3.741 0 0085 20.405a3.741 3.741 0 00-3.735-3.739 3.742 3.742 0 00-3.531 2.52c-3.148.167-5.567 1.107-7.2 2.8-.874.905-1.468 1.965-1.87 3.097-6.655-4.68-15.491-8.724-26.157-8.724-6.034 0-11.977 1.295-17.67 3.849-.002-4.418-.457-8.879-3.224-11.716-1.79-1.834-4.372-2.764-7.675-2.764H1.258a1.245 1.245 0 000 2.49h12.68c2.643 0 4.57.658 5.892 2.013 2.357 2.416 2.571 6.874 2.507 11.187-3.854 2.005-7.581 4.592-11.106 7.713C4.133 35.414.35 41.617.193 41.879a1.245 1.245 0 000 1.287c.047.078 1.192 1.965 3.39 4.705zm77.683-28.715a1.248 1.248 0 010 2.497 1.248 1.248 0 010-2.497zm-1.887 15.58a1.245 1.245 0 10-1.865 1.65c2.435 2.752 4.051 5.063 4.763 6.136-.976 1.473-3.66 5.28-7.868 9.406-2.874 2.817-6.814 6.112-11.668 8.822.016-.709.028-1.393.028-2.064a1.245 1.245 0 00-2.49 0c0 .901-.023 1.844-.048 2.841l-.013.534c-2.836 1.366-5.94 2.5-9.29 3.229a1.245 1.245 0 00.53 2.433 44.049 44.049 0 008.72-2.897c.005 4.407.464 8.852 3.224 11.682 1.789 1.834 4.371 2.764 7.675 2.764H83.68a1.245 1.245 0 000-2.49H71.076c-2.644 0-4.571-.658-5.892-2.013-2.351-2.41-2.57-6.853-2.508-11.156 5.674-2.956 10.228-6.723 13.475-9.907 5.588-5.478 8.547-10.336 8.67-10.54a1.245 1.245 0 000-1.288c-.077-.127-1.924-3.164-5.443-7.142z"/><path d="M29.697 30.428a1.245 1.245 0 00-1.751.18 18.934 18.934 0 00-4.228 11.914c0 10.414 8.466 18.886 18.872 18.886s18.872-8.473 18.872-18.886c0-10.414-8.466-18.886-18.872-18.886a18.8 18.8 0 00-10.18 2.98 1.245 1.245 0 001.346 2.096 16.314 16.314 0 018.834-2.586c9.033 0 16.382 7.355 16.382 16.396 0 9.04-7.35 16.396-16.382 16.396-9.033 0-16.382-7.356-16.382-16.396a16.43 16.43 0 013.67-10.342 1.245 1.245 0 00-.18-1.752z"/><path d="M35.355 42.522c0 3.992 3.246 7.239 7.235 7.239 3.989 0 7.234-3.247 7.234-7.24 0-3.99-3.245-7.238-7.234-7.238-3.99 0-7.235 3.247-7.235 7.239zm7.235-4.749a4.752 4.752 0 014.744 4.749 4.752 4.752 0 01-4.744 4.749 4.752 4.752 0 01-4.744-4.75 4.752 4.752 0 014.744-4.748zm-10.335 9.235l-1.155.666a1.245 1.245 0 001.246 2.157l1.155-.667a1.245 1.245 0 00-1.246-2.157zm20.412-11.795l-1.154.667a1.245 1.245 0 001.246 2.156l1.154-.666a1.245 1.245 0 00-1.246-2.157zm-3.522 16.323a1.245 1.245 0 00-2.158 1.245l.667 1.155a1.245 1.245 0 102.157-1.245l-.666-1.155zM37.36 31.108a1.245 1.245 0 00-2.158 1.244l.667 1.156a1.245 1.245 0 102.157-1.245l-.667-1.155zm14.153 18.056l1.154.667a1.245 1.245 0 101.246-2.156l-1.154-.667a1.245 1.245 0 10-1.246 2.156zM33.5 35.88l-1.154-.667A1.245 1.245 0 0031.1 37.37l1.155.667A1.245 1.245 0 1033.5 35.88zm2.159 18.512a1.245 1.245 0 001.7-.456l.667-1.155a1.245 1.245 0 00-2.157-1.245l-.667 1.156a1.245 1.245 0 00.457 1.7zM48.065 34.13c.43 0 .85-.223 1.08-.622l.666-1.156a1.245 1.245 0 00-2.157-1.244l-.667 1.155a1.245 1.245 0 001.078 1.868zM28.81 42.522c0 .688.558 1.245 1.245 1.245h1.333a1.245 1.245 0 000-2.49h-1.333c-.688 0-1.245.557-1.245 1.245zm23.57 0c0 .688.558 1.245 1.245 1.245h1.333a1.245 1.245 0 000-2.49h-1.333c-.687 0-1.245.557-1.245 1.245zM41.262 53.65v1.333a1.245 1.245 0 102.49 0V53.65a1.245 1.245 0 00-2.49 0zm2.49-22.255V30.06a1.245 1.245 0 10-2.49 0v1.334a1.245 1.245 0 102.49 0zm39.927 39.293h-9.807a1.245 1.245 0 000 2.49h9.807a1.245 1.245 0 100-2.49zM1.259 14.312h12.296a1.245 1.245 0 000-2.49H1.26a1.245 1.245 0 000 2.49z"/><path d="M43.818 42.513a1.245 1.245 0 10-2.49-.023 1.245 1.245 0 002.49.023z"/></g><defs><clipPath id="clip0"><path fill="#fff" d="M0 0h85v85H0z"/></clipPath></defs></svg>