<svg width="81" height="81" fill="none" xmlns="http://www.w3.org/2000/svg"><path d="M60.422.656h-42.5a3.996 3.996 0 00-3.985 3.985v27.89H8.625a1.246 1.246 0 00-.491.093l-6.641 2.657a1.328 1.328 0 00-.837 1.235v18.593a1.328 1.328 0 00.598 1.103l3.998 2.656c.214.148.47.226.73.226h7.955v17.265a3.996 3.996 0 003.985 3.985h42.5a3.997 3.997 0 003.984-3.985V4.641A3.997 3.997 0 0060.422.656zm-46.617 42.5h.133v13.282H6.38l-3.067-2.046V37.42l5.564-2.231h15.685a2.657 2.657 0 010 5.312H12.61a1.328 1.328 0 00-1.328 1.328 3.997 3.997 0 01-3.984 3.984v2.657a6.653 6.653 0 006.508-5.313zM61.75 76.36a1.328 1.328 0 01-1.328 1.329h-42.5a1.328 1.328 0 01-1.328-1.329V43.156h7.968a5.313 5.313 0 000-10.625h-7.968V4.641a1.328 1.328 0 011.328-1.329h42.5a1.328 1.328 0 011.328 1.329v71.718z" fill="#4351D8"/><path d="M39.172 24.563c.352 0 .69-.14.939-.39l7.513-7.513-1.878-1.878-6.574 6.574-2.818-2.818-1.878 1.878 3.757 3.757c.249.25.587.39.939.39z" fill="#4351D8"/><path d="M51.67 11.4L39.716 6.089a1.3 1.3 0 00-1.089 0l-11.953 5.313a1.31 1.31 0 00-.783 1.208v8.514a11.925 11.925 0 004.01 8.925l8.394 7.464a1.328 1.328 0 001.753 0l8.394-7.464a11.926 11.926 0 004.011-8.925V12.61a1.311 1.311 0 00-.783-1.208zm-1.873 9.723a9.316 9.316 0 01-3.121 6.946l-7.504 6.667-7.504-6.667a9.314 9.314 0 01-3.121-6.946v-7.65l10.625-4.728 10.625 4.728v7.65zm29.219 6.096H75.03v-3.985a3.984 3.984 0 10-7.969 0v45.157c0 .107.014.214.04.318l2.657 10.625a1.329 1.329 0 002.576 0l2.656-10.625c.027-.104.04-.21.04-.318V29.875h2.656v11.953h2.657V28.547a1.329 1.329 0 00-1.328-1.328zm-7.97 46.325l-.955-3.825h1.912l-.956 3.825zm1.329-6.481h-2.656V29.874h2.656v37.188zm0-39.844h-2.656v-3.985a1.328 1.328 0 112.656 0v3.985zm-50.469 21.25h5.313v2.656h-5.313v-2.656zm7.969 0h26.563v2.656H29.875v-2.656zm-7.969 7.969h5.313v2.656h-5.313v-2.657zm7.969 0h26.563v2.656H29.875v-2.657zm-7.969 7.968h5.313v2.656h-5.313v-2.656zm7.969 0h26.563v2.656H29.875v-2.656zm-7.969 7.969h5.313v2.656h-5.313v-2.656zm7.969 0h26.563v2.656H29.875v-2.656z" fill="#4351D8"/></svg>