<svg width="20" height="20" fill="none" xmlns="http://www.w3.org/2000/svg"><path d="M13.477 5.252h.652a.436.436 0 00.434-.434.436.436 0 00-.434-.435h-.652a.436.436 0 00-.435.435c0 .239.196.434.435.434z" fill="#4351D8"/><path d="M19.909 1.384a.866.866 0 00-.783-.478H.874a.907.907 0 00-.783.478.866.866 0 00.087.913l7.67 9.648v6.28c0 .325.175.608.457.76.13.065.26.109.413.109a.846.846 0 00.5-.152l2.412-1.674c.347-.26.543-.651.543-1.064v-4.28l7.649-9.627a.865.865 0 00.087-.913zM11.39 11.51a.465.465 0 00-.087.261v4.411a.464.464 0 01-.174.37l-2.412 1.673V11.77c0-.152-.065-.283-.174-.348l-4.91-6.17h7.887a.436.436 0 00.435-.435.436.436 0 00-.435-.435H2.96L.874 1.776h18.252l-7.735 9.734z" fill="#4351D8"/></svg>