<svg width="50" height="50" fill="none" xmlns="http://www.w3.org/2000/svg"><g clip-path="url(#clip0)"><path d="M49.228 10.089h-4.07a4.24 4.24 0 00.52-3.923L44.442 2.85a4.234 4.234 0 00-2.37-2.442 4.238 4.238 0 00-3.405.097l-9.763 4.637a2.931 2.931 0 00-1.71-.548h-4.39c-.637 0-1.227.204-1.71.549L11.332.505A4.24 4.24 0 007.927.408a4.235 4.235 0 00-2.37 2.442L4.324 6.167a4.237 4.237 0 00.52 3.922H.771A.772.772 0 000 10.86v5.556a.772.772 0 001.543 0v-4.784h5.36c.086.03.173.058.261.082l6.479 1.784a51.556 51.556 0 00-3.797 6.93H1.543v-.926a.772.772 0 00-1.543 0V21.2c0 .426.346.772.772.772h2.752v27.32c0 .426.345.772.771.772h41.41a.772.772 0 00.772-.772v-4.48a.772.772 0 00-1.544 0v3.709H29.63V22.446a41.32 41.32 0 014.346 13.293.771.771 0 001.38.352 43.034 43.034 0 003.072-4.692 43.988 43.988 0 014.51 3.528.772.772 0 001.277-.688 51.76 51.76 0 00-3.393-12.268h4.11v19.752a.772.772 0 101.544 0V21.972h2.752A.771.771 0 0050 21.2V10.86a.77.77 0 00-.772-.771zm-9.898-8.19a2.657 2.657 0 012.162-.061 2.652 2.652 0 011.504 1.55l1.234 3.316c.265.714.22 1.48-.127 2.158a2.653 2.653 0 01-1.677 1.364l-12.283 3.382V9.899c2.76-1.69 9.644-5.178 11.357-2.76a.771.771 0 101.26-.891c-1.323-1.867-4.109-1.958-8.283-.27-1.719.695-3.306 1.544-4.334 2.132v-.569c0-.413-.086-.807-.24-1.164l9.427-4.478zM22.805 6.137h4.39c.774 0 1.404.63 1.404 1.404v6.378c0 .775-.63 1.405-1.404 1.405h-4.39c-.774 0-1.404-.63-1.404-1.405V7.541c0-.774.63-1.404 1.404-1.404zm-1.297 14.291a41.148 41.148 0 012.406-3.56h2.171a40.966 40.966 0 012.406 3.56h-6.983zM5.898 8.862a2.656 2.656 0 01-.128-2.158l1.234-3.316a2.65 2.65 0 011.504-1.55 2.656 2.656 0 012.162.061l9.427 4.478a2.93 2.93 0 00-.24 1.164v.614c-1.024-.59-2.647-1.464-4.41-2.177-4.174-1.688-6.96-1.597-8.283.27a.772.772 0 101.26.892c1.729-2.441 8.725 1.135 11.434 2.806v3.662L7.574 10.226a2.654 2.654 0 01-1.676-1.364zm14.306 6.442a2.96 2.96 0 001.863 1.47 42.931 42.931 0 00-7.259 16.902 42.217 42.217 0 01-2.288-3.75.77.77 0 00-1.1-.28 44.716 44.716 0 00-3.759 2.745 50.416 50.416 0 017.546-18.463l4.997 1.376zM5.067 21.972h4.11A51.772 51.772 0 005.786 34.24a.772.772 0 001.277.688 43.951 43.951 0 014.51-3.528 43.014 43.014 0 003.072 4.692.772.772 0 001.38-.352 41.343 41.343 0 014.346-13.294V48.52H5.067V21.973zM21.914 48.52V21.973h6.173V48.52h-6.173zM38.58 29.647a.77.77 0 00-1.1.28 42.182 42.182 0 01-2.288 3.749 42.922 42.922 0 00-7.26-16.902 2.959 2.959 0 001.864-1.47l4.998-1.376A50.444 50.444 0 0142.34 32.39a44.792 44.792 0 00-3.76-2.744zm9.877-9.218h-8.303a51.594 51.594 0 00-3.796-6.931l6.478-1.784a4.01 4.01 0 00.26-.082h5.36v8.797z" fill="#3E425B"/></g><defs><clipPath id="clip0"><path fill="#fff" d="M0 0h50v50H0z"/></clipPath></defs></svg>