<svg width="85" height="85" fill="none" xmlns="http://www.w3.org/2000/svg"><g clip-path="url(#clip0)" fill="#4351D8"><path d="M37.22 19.27a1.407 1.407 0 001.35-1.807 24.814 24.814 0 00-5.113-9.338 7.837 7.837 0 00-7.44-2.277 1.407 1.407 0 00-.811.813c-.078.21-.136.427-.172.649a5.39 5.39 0 00-.07.794v.022A8.498 8.498 0 0027.48 14.1a24.826 24.826 0 009.334 5.11c.132.039.268.06.405.061zm-7.743-7.164a5.818 5.818 0 01-1.29-1.964v-.014a6.073 6.073 0 01-.162-.463c-.024-.082-.04-.159-.061-.24-.022-.08-.04-.14-.054-.21-.015-.071-.017-.1-.027-.15a5.37 5.37 0 01-.086-.636 5.818 5.818 0 013.677 1.69 19.127 19.127 0 013.338 5.337 19.131 19.131 0 01-5.342-3.35h.007z"/><path d="M80.424 20.242h-21.73a19.707 19.707 0 002.637-2.159c5.035-5.05 5.2-12.709 1.983-15.926C60.097-1.06 52.442-.898 47.385 4.144a27.62 27.62 0 00-4.97 7.628 27.588 27.588 0 00-4.976-7.633c-5.05-5.035-12.708-5.2-15.926-1.983s-3.052 10.875 1.985 15.927a19.795 19.795 0 002.636 2.159H4.404c-.778 0-1.408.63-1.408 1.408v14.078c0 .777.63 1.407 1.408 1.407h2.815v40.826a7.048 7.048 0 007.04 7.04h56.31a7.047 7.047 0 007.04-7.04V37.135h2.815c.778 0 1.408-.63 1.408-1.407V21.65c0-.778-.63-1.408-1.408-1.408zM49.377 6.132c4.046-4.033 9.948-3.986 11.948-1.986s2.048 7.9-1.985 11.947a23.579 23.579 0 01-6.247 4.149h-8.412v-.092c0-.32-.024-.646-.055-.973l-.036-.325a13.95 13.95 0 00-.12-.808 16.89 16.89 0 00-.048-.282 18.08 18.08 0 00-.225-1.029c-.012-.048-.025-.09-.036-.14a37.88 37.88 0 00-.23-.845l-.033-.119a26.84 26.84 0 015.48-9.496zM48.045 34.32H36.783V23.057h11.262V34.32zM25.49 16.094c-4.035-4.047-3.987-9.946-1.986-11.948 2-2.001 7.899-2.048 11.943 1.983a27.042 27.042 0 015.631 9.923c.16.494.282.969.397 1.43.032.131.06.259.087.389.077.344.138.672.184.986.015.106.035.216.047.32.045.351.07.705.072 1.06h-10.13a23.593 23.593 0 01-6.245-4.143zM5.812 23.057h28.155V34.32H5.812V23.057zm4.223 54.904V37.135h26.748v45.05H14.258a4.224 4.224 0 01-4.223-4.224zm29.564 4.224v-45.05h5.63v45.05H39.6zm35.194-4.224a4.223 4.223 0 01-4.223 4.224H48.045v-45.05h26.748v40.826zm4.224-43.641H50.86V23.057h28.156V34.32z"/><path d="M47.605 19.275c.135 0 .27-.02.4-.058a24.733 24.733 0 009.34-5.12 7.968 7.968 0 002.28-7.442 1.4 1.4 0 00-.808-.81 7.969 7.969 0 00-7.443 2.281 24.751 24.751 0 00-5.12 9.34 1.408 1.408 0 001.35 1.809zm5.76-9.158a5.84 5.84 0 013.679-1.69 5.833 5.833 0 01-1.689 3.681 19.03 19.03 0 01-5.35 3.357 19.019 19.019 0 013.36-5.348z"/></g><defs><clipPath id="clip0"><path fill="#fff" d="M0 0h85v85H0z"/></clipPath></defs></svg>