<svg width="85" height="85" fill="none" xmlns="http://www.w3.org/2000/svg"><g clip-path="url(#clip0)"><path d="M83.807 42.242L78.902 20.17a7.626 7.626 0 00-7.484-6.002c-4.227 0-7.668 3.44-7.668 7.666v1.188a1.77 1.77 0 103.542 0v-1.188a4.13 4.13 0 014.126-4.125 4.101 4.101 0 014.026 3.23l4.904 22.072a46.763 46.763 0 011.076 8.344h-.145c-.903-8.923-8.371-15.937-17.529-15.937-8.007 0-14.711 5.376-16.893 12.683-1.084-1.142-2.512-2.058-4.357-2.058-1.845 0-3.273.916-4.357 2.058-2.182-7.307-8.886-12.683-16.893-12.683-9.157 0-16.626 7.014-17.53 15.937h-.144a46.813 46.813 0 011.076-8.344l4.904-22.07a4.101 4.101 0 014.026-3.232 4.13 4.13 0 014.126 4.125v1.188a1.77 1.77 0 103.542 0v-1.188c0-4.227-3.441-7.666-7.668-7.666a7.626 7.626 0 00-7.484 6.004l-4.905 22.07A50.363 50.363 0 000 53.125c0 .979.792 1.77 1.77 1.77h1.95c.904 8.924 8.373 15.938 17.53 15.938 2.468 0 4.817-.514 6.954-1.43-.007.19.053.134.139-.076 6.107-2.685 10.394-8.715 10.57-15.761.357-.99 1.772-3.983 3.587-3.983 1.769 0 3.166 2.826 3.586 3.977.237 9.559 8.05 17.273 17.664 17.273 9.158 0 16.626-7.014 17.53-15.937h1.95A1.77 1.77 0 0085 53.125c0-3.649-.401-7.31-1.193-10.883zM21.25 67.292c-7.813 0-14.167-6.356-14.167-14.167 0-6.766 4.775-12.423 11.128-13.82l-3.857 7.715a1.772 1.772 0 00.792 2.377l5.499 2.75-2.75 5.499a1.773 1.773 0 00.2 1.898l5.972 7.463a14.21 14.21 0 01-2.817.285zm6.333-1.563l-6.015-7.513 3.037-6.07a1.772 1.772 0 00-.792-2.376l-5.5-2.75 3.98-7.957c7.318.545 13.124 6.607 13.124 14.062 0 5.525-3.21 10.27-7.834 12.604zm36.167 1.563c-7.813 0-14.167-6.356-14.167-14.167s6.354-14.167 14.167-14.167 14.167 6.356 14.167 14.167-6.354 14.167-14.167 14.167z" fill="#4351D8"/></g><defs><clipPath id="clip0"><path fill="#fff" d="M0 0h85v85H0z"/></clipPath></defs></svg>