<svg width="53" height="13" fill="none" xmlns="http://www.w3.org/2000/svg"><path fill-rule="evenodd" clip-rule="evenodd" d="M39.822.025c0 .014-.08.024-.192.024s-.192.01-.192.025c0 .013-.054.024-.12.024s-.12.011-.12.025c0 .013-.042.024-.095.024s-.096.011-.096.025c0 .013-.043.024-.096.024-.053 0-.096.011-.096.025 0 .013-.032.024-.072.024-.04 0-.072.011-.072.025 0 .013-.032.024-.071.024-.04 0-.072.011-.072.025 0 .013-.022.024-.048.024-.026 0-.048.011-.048.025 0 .013-.022.024-.048.024-.026 0-.048.011-.048.025 0 .013-.021.025-.048.025-.026 0-.048.01-.048.024s-.021.025-.048.025c-.026 0-.048.01-.048.024s-.021.025-.047.025c-.027 0-.049.01-.049.024s-.021.025-.047.025c-.027 0-.048.01-.048.024s-.022.025-.048.025c-.027 0-.048.01-.048.024s-.02.025-.043.025c-.023 0-.058.022-.077.049-.019.027-.051.049-.072.049-.02 0-.053.022-.072.049-.019.027-.05.049-.067.049-.018 0-.064.033-.1.074-.037.04-.08.073-.096.073s-.06.033-.096.074c-.037.04-.08.073-.094.073-.034 0-.769.752-.769.787a.4.4 0 01-.096.12.4.4 0 00-.095.124c0 .016-.033.06-.072.098-.04.037-.072.082-.072.098s-.032.06-.072.098c-.04.038-.072.084-.072.102 0 .019-.021.05-.048.07-.026.019-.048.052-.048.073 0 .021-.021.054-.048.074-.026.02-.047.055-.047.079s-.011.043-.025.043c-.013 0-.023.02-.023.044 0 .024-.022.06-.048.079-.027.02-.048.055-.048.079s-.011.044-.024.044c-.013 0-.024.02-.024.043 0 .024-.022.06-.048.08-.026.019-.048.054-.048.078s-.01.044-.024.044c-.013 0-.024.022-.024.049 0 .027-.01.05-.024.05-.013 0-.024.021-.024.048s-.01.05-.024.05c-.013 0-.024.021-.024.048s-.01.05-.024.05c-.013 0-.024.021-.024.048s-.01.05-.024.05c-.013 0-.024.021-.024.048s-.01.05-.024.05c-.013 0-.024.022-.024.049 0 .027-.01.049-.023.049-.014 0-.024.033-.024.073 0 .04-.011.074-.025.074-.013 0-.023.022-.023.049 0 .027-.011.049-.024.049-.014 0-.024.022-.024.049 0 .027-.011.049-.024.049-.014 0-.024.033-.024.074 0 .04-.011.073-.024.073-.013 0-.024.022-.024.05 0 .026-.011.048-.024.048-.013 0-.024.033-.024.074 0 .04-.01.073-.024.073-.013 0-.024.034-.024.074 0 .04-.01.074-.024.074-.013 0-.024.022-.024.049 0 .027-.01.049-.024.049-.013 0-.024.033-.024.073 0 .04-.01.074-.024.074-.013 0-.024.033-.024.074 0 .04-.01.073-.024.073-.013 0-.024.044-.024.098 0 .054-.01.098-.024.098-.013 0-.024.033-.024.074 0 .04-.01.074-.024.074-.013 0-.024.033-.024.073 0 .04-.01.074-.024.074-.013 0-.023.044-.023.098 0 .054-.011.098-.024.098-.014 0-.024.044-.024.098 0 .054-.011.098-.024.098-.014 0-.024.055-.024.123 0 .067-.011.122-.024.122-.013 0-.024.056-.024.123 0 .068-.011.123-.024.123-.014 0-.024.065-.024.147 0 .082-.01.147-.024.147-.013 0-.024.065-.024.147 0 .082-.01.147-.024.147s-.024.09-.024.221c0 .13-.01.22-.024.22-.015 0-.024.172-.024.465 0 .347-.008.467-.03.478-.024.012-.024.017 0 .029.022.01.03.111.03.38 0 .228.01.366.024.366.013 0 .024.065.024.147 0 .082.01.147.024.147.013 0 .024.055.024.123 0 .067.01.122.024.122.013 0 .024.034.024.074 0 .04.01.074.024.074.013 0 .024.044.024.098 0 .054.01.098.024.098.013 0 .024.033.024.074 0 .04.01.073.024.073.013 0 .024.022.024.05 0 .026.01.048.024.048.013 0 .024.033.024.074 0 .04.01.073.023.073.014 0 .024.022.024.05 0 .026.011.049.024.049.014 0 .024.022.024.049 0 .026.011.049.024.049.014 0 .024.022.024.049 0 .027.011.049.024.049.013 0 .024.02.024.043 0 .024.022.06.048.08.026.019.048.054.048.078s.01.044.024.044c.013 0 .024.018.024.04 0 .02.032.07.072.107.04.038.072.082.072.098s.043.071.096.123a.398.398 0 01.095.121c0 .035.255.296.29.296a.39.39 0 01.118.098c.05.054.106.098.124.098.018 0 .048.022.067.05.02.026.052.048.072.048.02 0 .053.022.072.05.02.026.054.048.077.048.024 0 .043.011.043.025 0 .013.022.024.048.024.026 0 .048.011.048.025 0 .013.021.024.048.024.026 0 .048.011.048.025 0 .013.021.024.048.024.026 0 .047.011.047.025 0 .014.022.024.048.024.027 0 .048.012.048.025 0 .014.033.025.072.025.04 0 .072.01.072.024s.032.025.072.025c.04 0 .072.01.072.024s.032.025.072.025c.04 0 .072.01.072.024s.043.025.096.025c.052 0 .095.01.095.024s.064.025.144.025c.08 0 .144.01.144.024 0 .015.119.025.31.025.224 0 .313.008.323.03.01.025.017.025.028 0 .01-.022.104-.03.347-.03.206 0 .334-.01.334-.025 0-.014.072-.024.167-.024.096 0 .168-.01.168-.025 0-.013.043-.024.096-.024.053 0 .096-.011.096-.025 0-.013.043-.024.095-.024.053 0 .096-.011.096-.025 0-.013.033-.024.072-.024.04 0 .072-.011.072-.025 0-.013.033-.024.072-.024.04 0 .072-.011.072-.025 0-.013.032-.024.072-.024.04 0 .072-.011.072-.025 0-.014.021-.024.048-.024.026 0 .047-.011.047-.025 0-.014.033-.025.072-.025.04 0 .072-.01.072-.024s.022-.025.048-.025c.026 0 .048-.01.048-.024s.022-.025.048-.025c.026 0 .048-.01.048-.024s.022-.025.048-.025c.026 0 .048-.01.048-.024s.019-.025.042-.025c.024 0 .059-.022.078-.049.019-.027.05-.049.072-.049.02 0 .052-.022.071-.049.02-.027.052-.049.072-.049.02 0 .053-.022.072-.05.02-.026.05-.048.068-.048.018 0 .063-.033.1-.074.037-.04.079-.073.094-.073.034 0 .577-.556.577-.591 0-.015.032-.058.072-.096.04-.038.072-.084.072-.103 0-.018.021-.05.047-.069.027-.02.048-.052.048-.073 0-.021.022-.054.048-.074.027-.02.048-.055.048-.079s.01-.044.024-.044c.013 0 .024-.022.024-.049 0-.027.01-.049.024-.049.013 0 .024-.022.024-.049 0-.027.01-.049.024-.049.013 0 .024-.022.024-.049 0-.027.01-.049.024-.049.013 0 .024-.022.024-.049 0-.027.01-.05.024-.05.013 0 .024-.021.024-.048s.01-.05.024-.05c.013 0 .024-.032.024-.073 0-.04.01-.073.024-.073.013 0 .024-.034.024-.074 0-.04.01-.074.023-.074.014 0 .025-.044.025-.098 0-.054.01-.098.023-.098.014 0 .024-.044.024-.098 0-.054.011-.098.024-.098.014 0 .024-.065.024-.147 0-.082.011-.147.024-.147.016 0 .024-.205.024-.564 0-.36-.008-.565-.024-.565-.013 0-.024-.065-.024-.147 0-.082-.01-.147-.024-.147-.013 0-.024-.033-.024-.074 0-.04-.01-.073-.024-.073-.013 0-.023-.033-.023-.074 0-.04-.011-.073-.024-.073-.014 0-.024-.033-.024-.074 0-.04-.011-.073-.024-.073-.014 0-.024-.023-.024-.05 0-.026-.011-.049-.024-.049-.014 0-.024-.02-.024-.043 0-.024-.022-.06-.048-.08-.026-.019-.048-.052-.048-.073 0-.02-.022-.054-.048-.073-.026-.02-.048-.05-.048-.067 0-.042-.445-.498-.486-.498-.017 0-.046-.022-.065-.049-.019-.027-.054-.049-.077-.049-.024 0-.043-.01-.043-.024s-.019-.025-.042-.025c-.024 0-.059-.022-.078-.049-.019-.027-.053-.049-.077-.049-.023 0-.042-.01-.042-.024s-.022-.025-.048-.025c-.027 0-.048-.01-.048-.024s-.033-.025-.072-.025c-.04 0-.072-.011-.072-.024 0-.014-.022-.025-.048-.025-.026 0-.048-.011-.048-.025 0-.013-.032-.024-.072-.024-.04 0-.072-.011-.072-.025 0-.013-.043-.024-.096-.024-.052 0-.095-.011-.095-.025 0-.013-.043-.024-.096-.024-.053 0-.096-.011-.096-.025 0-.014-.072-.024-.168-.024-.095 0-.167-.01-.167-.025 0-.015-.208-.024-.576-.024-.367 0-.575.009-.575.024 0 .014-.063.025-.143.025-.08 0-.144.01-.144.024s-.054.025-.12.025-.12.01-.12.024-.043.025-.096.025c-.052 0-.095.01-.095.024s-.033.025-.072.025c-.04 0-.072.011-.072.024 0 .014-.022.025-.048.025-.04 0-.048-.016-.048-.098 0-.054.01-.098.024-.098.013 0 .024-.033.024-.074 0-.072.003-.073.12-.073.066 0 .12-.011.12-.025 0-.014.072-.024.167-.024.096 0 .168-.011.168-.025 0-.014.064-.024.144-.024.08 0 .144-.011.144-.025 0-.014.053-.025.12-.025.065 0 .12-.01.12-.024s.053-.025.119-.025.12-.01.12-.024.043-.025.096-.025c.052 0 .096-.01.096-.024s.043-.025.095-.025c.053 0 .096-.01.096-.024s.033-.025.072-.025c.04 0 .072-.01.072-.024s.043-.025.096-.025c.053 0 .096-.01.096-.024s.032-.025.072-.025c.039 0 .071-.01.071-.024s.022-.025.048-.025c.027 0 .048-.011.048-.024 0-.014.032-.025.072-.025.04 0 .072-.011.072-.025 0-.013.032-.024.072-.024.04 0 .072-.011.072-.025 0-.013.021-.024.048-.024.026 0 .047-.011.047-.025 0-.013.022-.024.048-.024.027 0 .048-.011.048-.025 0-.013.022-.024.048-.024.027 0 .048-.011.048-.025 0-.013.022-.024.048-.024.027 0 .048-.011.048-.025 0-.013.022-.024.048-.024.026 0 .048-.011.048-.025 0-.013.021-.024.048-.024.026 0 .048-.011.048-.025 0-.013.021-.024.048-.024.026 0 .048-.011.048-.025 0-.013.021-.025.047-.025.027 0 .048-.01.048-.024s.02-.025.043-.025c.023 0 .058-.022.077-.049.02-.027.052-.049.072-.049.02 0 .053-.022.072-.049.019-.027.05-.049.067-.049.018 0 .074-.044.125-.098a.392.392 0 01.118-.098c.034 0 .433-.408.433-.444 0-.015.032-.058.072-.096.04-.037.072-.084.072-.102 0-.019.021-.05.047-.07.027-.019.048-.052.048-.073 0-.021.022-.054.048-.074.027-.019.048-.054.048-.079 0-.023.011-.043.024-.043.013 0 .024-.033.024-.074 0-.04.01-.073.024-.073.013 0 .024-.022.024-.05 0-.026.01-.048.024-.048.013 0 .024-.034.024-.074 0-.04.01-.074.024-.074.013 0 .024-.044.024-.098 0-.054.01-.098.024-.098.015 0 .024-.163.024-.441s-.01-.442-.024-.442c-.013 0-.024-.044-.024-.098 0-.054-.01-.098-.024-.098-.013 0-.024-.033-.024-.074 0-.04-.01-.073-.024-.073-.013 0-.024-.022-.024-.05 0-.026-.01-.048-.024-.048-.013 0-.024-.022-.024-.05 0-.026-.01-.048-.024-.048-.013 0-.024-.023-.024-.05 0-.027-.01-.049-.024-.049-.013 0-.024-.02-.024-.043 0-.024-.021-.06-.048-.08-.026-.019-.048-.049-.048-.066 0-.042-.445-.497-.485-.497-.017 0-.047-.022-.066-.05-.019-.026-.051-.048-.072-.048-.02 0-.052-.023-.071-.05-.02-.027-.054-.049-.078-.049-.023 0-.042-.01-.042-.024s-.022-.025-.048-.025c-.026 0-.048-.01-.048-.024s-.022-.025-.048-.025c-.026 0-.048-.01-.048-.024s-.032-.025-.072-.025c-.04 0-.072-.01-.072-.024s-.032-.025-.071-.025c-.04 0-.072-.01-.072-.024s-.044-.025-.096-.025c-.053 0-.096-.01-.096-.024s-.064-.025-.144-.025c-.08 0-.144-.01-.144-.024 0-.016-.135-.025-.359-.025-.224 0-.36.01-.36.025zM9.967.123c0 .014-.08.024-.191.024-.112 0-.192.01-.192.025 0 .013-.043.024-.096.024-.053 0-.096.011-.096.025 0 .013-.032.024-.072.024-.04 0-.071.011-.071.025 0 .013-.033.024-.072.024-.04 0-.072.011-.072.025 0 .013-.022.024-.048.024-.026 0-.048.011-.048.025 0 .013-.022.024-.048.024-.026 0-.048.011-.048.025 0 .013-.021.025-.048.025-.026 0-.048.01-.048.024s-.019.025-.042.025c-.024 0-.059.022-.078.049-.019.027-.048.049-.065.049-.044 0-.438.408-.438.453 0 .02-.01.037-.024.037-.013 0-.024.022-.024.05 0 .026-.01.048-.024.048-.013 0-.024.033-.024.074 0 .04-.01.074-.023.074-.049 0-.023.08.047.147.04.038.072.084.072.102 0 .019.022.05.048.07.027.019.048.054.048.078s.011.044.024.044c.013 0 .024.022.024.05 0 .026.01.048.024.048.013 0 .024.033.024.074 0 .04.01.073.024.073.013 0 .024.022.024.05 0 .026.01.048.024.048.013 0 .024.034.024.074 0 .04.01.074.024.074.013 0 .024.044.024.098 0 .054.01.098.024.098.013 0 .024.044.024.098 0 .054.01.098.024.098.013 0 .024.055.024.123 0 .067.01.122.024.122.015 0 .024.148.024.393 0 .245-.01.392-.024.392s-.024.055-.024.123c0 .067-.011.123-.024.123-.014 0-.024.033-.024.073 0 .04-.011.074-.024.074-.013 0-.024.033-.024.073 0 .04-.011.074-.024.074-.013 0-.024.022-.024.049 0 .027-.01.049-.024.049-.013 0-.024.02-.024.044 0 .024-.022.06-.048.079-.026.02-.048.05-.048.067 0 .041-.445.497-.485.497-.018 0-.047.022-.066.049-.054.077-.12.063-.12-.025 0-.04-.01-.073-.024-.073-.013 0-.024-.022-.024-.05 0-.026-.01-.048-.024-.048-.013 0-.024-.034-.024-.074 0-.04-.01-.074-.024-.074-.013 0-.024-.022-.024-.049 0-.027-.01-.049-.024-.049-.013 0-.023-.033-.023-.073 0-.04-.011-.074-.024-.074-.014 0-.024-.022-.024-.049 0-.027-.011-.049-.024-.049-.014 0-.024-.033-.024-.074 0-.04-.011-.073-.024-.073-.013 0-.024-.033-.024-.074 0-.04-.011-.073-.024-.073-.013 0-.024-.022-.024-.05 0-.026-.01-.048-.024-.048-.013 0-.024-.034-.024-.074 0-.04-.01-.074-.024-.074-.013 0-.024-.022-.024-.049 0-.027-.01-.049-.024-.049-.013 0-.024-.033-.024-.073 0-.04-.01-.074-.024-.074-.013 0-.024-.022-.024-.049 0-.027-.01-.049-.024-.049-.013 0-.024-.033-.024-.074 0-.04-.01-.073-.024-.073-.013 0-.024-.022-.024-.05 0-.026-.01-.048-.024-.048-.013 0-.024-.033-.024-.074 0-.04-.01-.073-.024-.073-.013 0-.024-.023-.024-.05 0-.026-.01-.049-.023-.049-.014 0-.024-.033-.024-.073 0-.04-.011-.074-.024-.074-.014 0-.024-.033-.024-.073 0-.04-.011-.074-.024-.074-.013 0-.024-.022-.024-.049 0-.027-.011-.049-.024-.049-.013 0-.024-.033-.024-.074 0-.04-.011-.073-.024-.073-.013 0-.024-.022-.024-.05 0-.026-.01-.048-.024-.048-.013 0-.024-.033-.024-.074 0-.04-.01-.073-.024-.073-.013 0-.024-.023-.024-.05 0-.026-.01-.049-.024-.049-.013 0-.024-.033-.024-.073 0-.04-.01-.074-.024-.074-.013 0-.024-.022-.024-.049 0-.027-.01-.049-.024-.049-.013 0-.024-.033-.024-.073 0-.04-.01-.074-.024-.074-.013 0-.024-.022-.024-.05 0-.026-.01-.048-.024-.048-.013 0-.024-.033-.024-.074 0-.04-.01-.073-.024-.073-.013 0-.023-.033-.023-.074 0-.04-.011-.073-.024-.073-.014 0-.024-.023-.024-.05 0-.027-.011-.049-.024-.049-.014 0-.024-.033-.024-.073 0-.04-.011-.074-.024-.074-.013 0-.024-.022-.024-.049 0-.027-.011-.049-.024-.049-.013 0-.024-.033-.024-.073 0-.04-.01-.074-.024-.074-.013 0-.024-.022-.024-.05 0-.026-.01-.048-.024-.048-.013 0-.024-.029-.024-.063 0-.14.119-.133-2.239-.133h-2.17v.073c0 .04.011.074.024.074.014 0 .024.022.024.049 0 .027.011.049.024.049.013 0 .024.022.024.049 0 .027.011.049.024.049.013 0 .024.022.024.05 0 .026.01.048.024.048.013 0 .024.022.024.05 0 .026.01.048.024.048.013 0 .024.022.024.05 0 .026.01.048.024.048.013 0 .024.022.024.05 0 .026.01.048.024.048.013 0 .024.023.024.05 0 .027.01.049.024.049.013 0 .024.022.024.049 0 .027.01.049.024.049.013 0 .024.022.024.049 0 .027.01.049.024.049.013 0 .024.022.024.049 0 .027.01.049.024.049.013 0 .023.022.023.049 0 .027.011.049.024.049.014 0 .024.022.024.05 0 .026.011.048.024.048.014 0 .024.022.024.05 0 .026.011.048.024.048.013 0 .024.022.024.05 0 .026.011.048.024.048.013 0 .024.022.024.05 0 .026.011.048.024.048.013 0 .024.023.024.05 0 .027.01.049.024.049.013 0 .024.022.024.049 0 .027.01.049.024.049.013 0 .024.022.024.049 0 .027.01.049.024.049.013 0 .024.022.024.049 0 .027.01.049.024.049.013 0 .024.02.024.044 0 .024.021.06.048.079.026.019.048.055.048.079s.01.043.024.043c.013 0 .024.022.024.05 0 .026.01.048.023.048.014 0 .024.022.024.05 0 .026.011.048.024.048.014 0 .024.023.024.05 0 .026.011.049.024.049.014 0 .024.022.024.049 0 .027.011.049.024.049.013 0 .024.022.024.049 0 .027.011.049.024.049.013 0 .024.022.024.049 0 .027.01.049.024.049.013 0 .024.022.024.049 0 .027.01.049.024.049.013 0 .024.022.024.05 0 .026.01.048.024.048.013 0 .024.022.024.05 0 .026.01.048.024.048.013 0 .024.022.024.05 0 .026.01.048.024.048.013 0 .024.022.024.05 0 .026.01.048.024.048.013 0 .024.023.024.05 0 .027.01.049.024.049.013 0 .024.022.024.049 0 .027.01.049.024.049.013 0 .023.022.023.049 0 .027.011.049.024.049.014 0 .024.022.024.049 0 .027.011.049.024.049.014 0 .024.022.024.049 0 .027.011.049.024.049.013 0 .024.022.024.05 0 .026.011.048.024.048.013 0 .024.022.024.05 0 .026.01.048.024.048.013 0 .024.022.024.05 0 .026.01.048.024.048.013 0 .024.022.024.05 0 .026.01.048.024.048.013 0 .024.023.024.05 0 .027.01.049.024.049.013 0 .024.022.024.049 0 .027.01.049.024.049.013 0 .024.022.024.049 0 .027.01.049.024.049.013 0 .024.022.024.049 0 .027.01.049.024.049.013 0 .024.022.024.049 0 .027.01.05.024.05.013 0 .024.021.024.048s.01.05.023.05c.014 0 .024.021.024.048s.011.05.024.05c.014 0 .024.021.024.048s.011.05.024.05c.013 0 .024.021.024.048s.011.05.024.05c.013 0 .024.022.024.049 0 .027.011.049.024.049.013 0 .024.022.024.049 0 .027.01.049.024.049.013 0 .024.022.024.049 0 .027.01.049.024.049.013 0 .024.022.024.049 0 .027.01.049.024.049.013 0 .024.022.024.049 0 .038-.016.05-.072.05-.04 0-.072.01-.072.024 0 .013-.032.024-.072.024-.04 0-.072.011-.072.025 0 .013-.032.024-.072.024-.039 0-.071.011-.071.025 0 .013-.033.024-.072.024-.04 0-.072.011-.072.025 0 .013-.032.024-.072.024-.04 0-.072.011-.072.025 0 .013-.021.024-.048.024-.026 0-.048.011-.048.025 0 .013-.021.024-.048.024-.026 0-.048.011-.048.025 0 .013-.032.024-.071.024-.04 0-.072.012-.072.025 0 .013-.022.025-.048.025-.027 0-.048.01-.048.024s-.022.025-.048.025c-.026 0-.048.01-.048.024s-.022.025-.048.025c-.026 0-.048.01-.048.024s-.021.025-.048.025c-.026 0-.048.01-.048.024s-.021.025-.048.025c-.026 0-.048.01-.048.024s-.019.025-.042.025c-.024 0-.058.022-.077.049-.02.027-.054.049-.078.049-.023 0-.042.011-.042.024 0 .014-.02.025-.043.025-.023 0-.058.022-.077.049-.019.027-.051.05-.072.05-.02 0-.053.021-.072.048-.019.027-.051.05-.072.05-.02 0-.052.021-.071.048-.02.027-.052.05-.072.05-.02 0-.053.021-.072.048-.02.027-.05.05-.067.05-.018 0-.074.044-.125.098a.394.394 0 01-.118.098c-.034 0-.816.8-.816.836 0 .015-.033.058-.072.096-.04.038-.072.084-.072.102 0 .019-.022.05-.048.07-.026.019-.048.052-.048.073 0 .021-.022.054-.048.074-.026.02-.048.052-.048.073 0 .021-.021.054-.048.074-.026.02-.048.055-.048.079s-.01.043-.024.043c-.013 0-.024.022-.024.05 0 .026-.01.049-.024.049-.013 0-.023.022-.023.049 0 .027-.011.049-.024.049-.014 0-.024.033-.024.073 0 .04-.011.074-.024.074-.014 0-.024.022-.024.049 0 .027-.011.049-.024.049-.013 0-.024.033-.024.074 0 .04-.011.073-.024.073-.013 0-.024.044-.024.098 0 .054-.01.098-.024.098-.013 0-.024.044-.024.098 0 .054-.01.098-.024.098-.015 0-.024.172-.024.467 0 .294.009.466.024.466.013 0 .024.055.024.122 0 .068.01.123.024.123.013 0 .024.033.024.073 0 .041.01.074.024.074.013 0 .024.033.024.074 0 .04.01.073.024.073.013 0 .024.022.024.05 0 .026.01.048.024.048.013 0 .024.022.024.05 0 .026.01.048.024.048.013 0 .024.022.024.05 0 .027.01.049.023.049.014 0 .024.02.024.043 0 .024.022.06.048.08.027.019.048.05.048.068 0 .018.043.076.096.127a.393.393 0 01.096.122c0 .036.11.148.145.148a.4.4 0 01.119.098c.05.054.106.098.124.098.018 0 .048.023.067.05.02.026.054.049.077.049.024 0 .043.01.043.024s.022.025.048.025c.026 0 .048.01.048.024s.021.025.048.025c.026 0 .048.01.048.024s.021.025.048.025c.026 0 .048.01.048.024s.032.025.071.025c.04 0 .072.01.072.024s.043.025.096.025c.053 0 .096.01.096.024s.054.025.12.025.12.011.12.024c0 .016.12.025.311.025.192 0 .312-.01.312-.024s.063-.025.143-.025c.08 0 .144-.01.144-.025 0-.013.032-.024.072-.024.04 0 .072-.011.072-.025 0-.013.032-.024.072-.024.04 0 .072-.011.072-.025 0-.013.021-.024.047-.024.027 0 .048-.011.048-.025 0-.013.033-.024.072-.024.04 0 .072-.011.072-.025 0-.013.02-.024.043-.024.023 0 .058-.022.077-.05.019-.026.051-.049.072-.049.02 0 .053-.021.072-.048.019-.027.049-.05.067-.05.018 0 .074-.044.124-.098.051-.054.104-.098.12-.098.034 0 .192-.162.192-.198 0-.015.032-.058.072-.096.04-.038.072-.084.072-.103 0-.018.021-.05.048-.069.026-.02.047-.055.047-.079s.011-.043.024-.043c.014 0 .024-.022.024-.05 0-.027.011-.049.024-.049.014 0 .024-.061.024-.137 0-.12-.008-.145-.072-.206-.04-.038-.071-.086-.071-.108 0-.022-.011-.04-.024-.04-.014 0-.024-.021-.024-.048s-.011-.05-.024-.05c-.013 0-.024-.021-.024-.048s-.011-.05-.024-.05c-.013 0-.024-.021-.024-.048s-.011-.05-.024-.05c-.013 0-.024-.033-.024-.073 0-.04-.01-.074-.024-.074-.013 0-.024-.033-.024-.073 0-.04-.01-.074-.024-.074-.013 0-.024-.044-.024-.098 0-.054-.01-.098-.024-.098-.013 0-.024-.066-.024-.147 0-.082-.01-.147-.024-.147s-.024-.099-.024-.246.01-.245.024-.245c.013 0 .024-.065.024-.147 0-.082.01-.147.024-.147.013 0 .024-.033.024-.074 0-.04.01-.073.024-.073.013 0 .024-.023.024-.05 0-.027.01-.049.024-.049.013 0 .024-.022.024-.049 0-.027.01-.049.024-.049.013 0 .024-.022.024-.049 0-.027.01-.049.024-.049.013 0 .024-.022.024-.049 0-.027.01-.049.024-.049.013 0 .024-.017.024-.037 0-.048.54-.6.586-.6.02 0 .037.021.037.048s.01.05.024.05c.013 0 .024.022.024.049 0 .026.01.049.023.049.014 0 .024.033.024.073 0 .04.011.074.024.074.014 0 .024.022.024.049 0 .027.011.049.024.049.014 0 .024.033.024.073 0 .04.011.074.024.074.013 0 .024.022.024.05 0 .026.011.048.024.048.013 0 .024.033.024.074 0 .04.01.073.024.073.013 0 .024.022.024.05 0 .026.01.048.024.048.013 0 .024.034.024.074 0 .04.01.074.024.074.013 0 .024.022.024.049 0 .027.01.049.024.049.013 0 .024.022.024.049 0 .027.01.049.024.049.013 0 .024.033.024.073 0 .04.01.074.024.074.013 0 .024.022.024.049 0 .027.01.05.024.05.013 0 .024.032.024.073 0 .04.01.073.024.073.013 0 .023.022.023.05 0 .026.011.048.024.048.014 0 .024.033.024.074 0 .04.011.074.024.074.014 0 .024.022.024.049 0 .027.011.049.024.049.013 0 .024.033.024.073 0 .04.011.074.024.074.013 0 .024.022.024.049 0 .027.011.049.024.049.013 0 .024.022.024.049 0 .027.01.05.024.05.013 0 .024.032.024.073 0 .04.01.073.024.073.013 0 .024.022.024.05 0 .026.01.048.024.048.013 0 .024.033.024.074 0 .04.01.073.024.073.013 0 .024.023.024.05 0 .027.01.049.024.049.013 0 .024.033.024.073 0 .04.01.074.024.074.013 0 .024.022.024.049 0 .027.01.049.024.049.013 0 .024.022.024.049 0 .027.01.049.023.049.014 0 .024.033.024.074 0 .04.011.073.024.073.014 0 .024.022.024.05 0 .026.011.048.024.048.014 0 .024.033.024.074 0 .04.011.073.024.073.013 0 .024.022.024.05 0 .027.011.049.024.049.013 0 .024.033.024.073 0 .04.01.074.024.074.013 0 .024.022.024.049 0 .027.01.049.024.049.013 0 .024.033.024.073 0 .04.01.074.024.074.013 0 .024.022.024.05 0 .026.01.048.024.048.013 0 .024.022.024.05 0 .026.01.048.024.048.013 0 .024.033.024.074 0 .04.01.073.024.073.013 0 .024.022.024.05 0 .048.016.049 2.3.049s2.3 0 2.3-.05c0-.027-.01-.049-.024-.049-.013 0-.024-.022-.024-.049 0-.027-.01-.049-.024-.049-.013 0-.024-.022-.024-.049 0-.027-.01-.049-.024-.049-.013 0-.024-.02-.024-.043 0-.024-.021-.06-.048-.08-.026-.019-.048-.054-.048-.078s-.01-.044-.024-.044c-.013 0-.024-.022-.024-.05 0-.026-.01-.048-.024-.048-.013 0-.024-.022-.024-.05 0-.026-.01-.048-.023-.048-.014 0-.024-.022-.024-.05 0-.026-.011-.048-.024-.048-.013 0-.024-.022-.024-.05 0-.027-.011-.049-.024-.049-.013 0-.024-.022-.024-.049 0-.027-.011-.049-.024-.049-.013 0-.024-.022-.024-.049 0-.027-.01-.049-.024-.049-.013 0-.024-.022-.024-.049 0-.027-.01-.049-.024-.049-.013 0-.024-.02-.024-.043 0-.024-.021-.06-.048-.08-.026-.019-.048-.054-.048-.078s-.01-.044-.024-.044c-.013 0-.024-.022-.024-.05 0-.026-.01-.048-.024-.048-.013 0-.024-.022-.024-.05 0-.026-.01-.048-.024-.048-.013 0-.024-.022-.024-.05 0-.026-.01-.049-.024-.049-.013 0-.024-.022-.024-.048 0-.027-.01-.05-.024-.05-.013 0-.023-.022-.023-.049 0-.027-.011-.049-.024-.049-.014 0-.024-.022-.024-.049 0-.027-.011-.049-.024-.049-.014 0-.024-.022-.024-.049 0-.027-.011-.049-.024-.049-.013 0-.024-.02-.024-.044 0-.024-.022-.06-.048-.079-.027-.019-.048-.055-.048-.079s-.01-.043-.024-.043c-.013 0-.024-.022-.024-.05 0-.026-.01-.048-.024-.048-.013 0-.024-.022-.024-.05 0-.026-.01-.048-.024-.048-.013 0-.024-.023-.024-.05 0-.026-.01-.049-.024-.049-.013 0-.024-.022-.024-.049 0-.027-.01-.049-.024-.049-.013 0-.024-.022-.024-.049 0-.027-.01-.049-.024-.049-.013 0-.024-.022-.024-.049 0-.027-.01-.049-.024-.049-.013 0-.023-.02-.023-.044 0-.024-.022-.06-.048-.079-.027-.019-.048-.055-.048-.079s-.011-.043-.024-.043c-.013 0-.024-.022-.024-.05 0-.026-.011-.048-.024-.048-.013 0-.024-.022-.024-.05 0-.026-.01-.048-.024-.048-.013 0-.024-.022-.024-.05 0-.026-.01-.049-.024-.049-.013 0-.024-.022-.024-.049 0-.027-.01-.049-.024-.049-.013 0-.024-.022-.024-.049 0-.027-.01-.049-.024-.049-.013 0-.024-.022-.024-.049 0-.027-.01-.049-.024-.049-.013 0-.024-.022-.024-.049 0-.027-.01-.049-.024-.049-.013 0-.024-.02-.024-.044 0-.024-.021-.06-.048-.079-.026-.02-.048-.055-.048-.079s-.01-.043-.023-.043c-.014 0-.024-.022-.024-.05 0-.026-.011-.048-.024-.048-.014 0-.024-.022-.024-.05 0-.026-.011-.048-.024-.048-.013 0-.024-.023-.024-.05 0-.027-.011-.049-.024-.049-.013 0-.024-.022-.024-.049 0-.027-.011-.049-.024-.049-.013 0-.024-.022-.024-.049 0-.027-.01-.049-.024-.049-.013 0-.024-.022-.024-.049 0-.027-.01-.049-.024-.049-.013 0-.024-.02-.024-.044 0-.024-.022-.06-.048-.079-.026-.019-.048-.055-.048-.079s-.01-.043-.024-.043c-.013 0-.024-.022-.024-.05 0-.026-.01-.048-.024-.048-.013 0-.024-.022-.024-.05 0-.026-.01-.048-.024-.048-.013 0-.024-.023-.024-.05 0-.026-.01-.049-.024-.049-.013 0-.023-.022-.023-.049 0-.027-.011-.049-.024-.049-.014 0-.024-.022-.024-.049 0-.027-.011-.049-.024-.049-.014 0-.024-.022-.024-.049 0-.027-.011-.049-.024-.049-.013 0-.024-.022-.024-.049 0-.033.016-.049.048-.049.026 0 .048-.011.048-.025 0-.013.032-.024.071-.024.04 0 .072-.011.072-.025 0-.013.033-.024.072-.024.04 0 .072-.011.072-.025 0-.013.022-.024.048-.024.026 0 .048-.011.048-.025 0-.013.032-.024.072-.024.04 0 .072-.011.072-.025 0-.013.032-.024.072-.024.04 0 .071-.011.071-.025 0-.013.022-.024.048-.024.027 0 .048-.011.048-.025 0-.013.022-.024.048-.024.027 0 .048-.011.048-.025 0-.013.022-.024.048-.024.026 0 .048-.012.048-.025 0-.013.022-.025.048-.025.026 0 .048-.01.048-.024s.021-.025.048-.025c.026 0 .048-.01.048-.024s.021-.025.048-.025c.026 0 .048-.01.048-.024s.021-.025.047-.025c.027 0 .048-.01.048-.024s.022-.025.048-.025c.027 0 .048-.01.048-.024s.02-.025.043-.025c.023 0 .058-.022.077-.049.019-.027.054-.049.077-.049.024 0 .043-.011.043-.024 0-.014.019-.025.042-.025.024 0 .059-.022.078-.049.019-.027.049-.05.067-.05.018 0 .063-.032.1-.073.037-.04.08-.073.096-.073s.06-.033.096-.074c.037-.04.08-.073.095-.073s.08-.056.145-.123a.57.57 0 01.142-.123c.034 0 .433-.408.433-.442a.58.58 0 01.12-.146.515.515 0 00.12-.153c0-.018.02-.049.047-.068.027-.02.048-.053.048-.074 0-.02.022-.054.048-.073.026-.02.048-.053.048-.074 0-.02.021-.054.048-.073.026-.02.048-.055.048-.08 0-.023.01-.043.024-.043.013 0 .024-.022.024-.05 0-.026.01-.048.024-.048.013 0 .024-.022.024-.05 0-.026.01-.048.024-.048.013 0 .024-.022.024-.05 0-.026.01-.048.023-.048.014 0 .024-.023.024-.05 0-.027.011-.049.024-.049.014 0 .024-.022.024-.049 0-.027.011-.049.024-.049.013 0 .024-.033.024-.073 0-.04.011-.074.024-.074.013 0 .024-.033.024-.073 0-.04.011-.074.024-.074.013 0 .024-.044.024-.098 0-.054.01-.098.024-.098.013 0 .024-.066.024-.147 0-.082.01-.148.024-.148.015 0 .024-.139.024-.368 0-.228-.01-.367-.024-.367-.013 0-.024-.066-.024-.148 0-.081-.01-.147-.024-.147-.013 0-.024-.044-.024-.098 0-.054-.01-.098-.024-.098-.013 0-.024-.022-.024-.05 0-.026-.01-.048-.024-.048-.013 0-.024-.033-.024-.074 0-.04-.01-.073-.024-.073-.013 0-.024-.022-.024-.05 0-.026-.01-.048-.024-.048-.013 0-.024-.022-.024-.05 0-.026-.01-.049-.024-.049-.013 0-.024-.02-.024-.043 0-.024-.021-.06-.047-.08-.027-.019-.048-.049-.048-.066 0-.042-.494-.546-.534-.546-.017 0-.046-.022-.065-.05-.02-.026-.054-.048-.078-.048-.023 0-.042-.012-.042-.025 0-.014-.022-.025-.048-.025-.026 0-.048-.01-.048-.024s-.021-.025-.048-.025c-.026 0-.048-.01-.048-.024S11.23.294 11.19.294c-.04 0-.072-.01-.072-.024s-.032-.025-.071-.025c-.04 0-.072-.01-.072-.024s-.033-.025-.072-.025c-.04 0-.072-.01-.072-.024s-.072-.025-.168-.025c-.096 0-.168-.01-.168-.024 0-.015-.103-.025-.263-.025-.16 0-.264.01-.264.025zm29.71 2.11c0 .013.017.024.038.024.048 0 .154.109.154.158 0 .02.011.038.025.038.013 0 .023.065.023.147 0 .082-.01.147-.023.147-.014 0-.024.044-.024.098 0 .054-.011.098-.024.098-.014 0-.024.022-.024.05 0 .026-.011.049-.024.049-.014 0-.024.02-.024.043 0 .024-.022.06-.048.08-.027.019-.048.05-.048.068 0 .019-.032.065-.072.103-.04.038-.072.08-.072.096 0 .036-.302.345-.337.345-.015 0-.057.033-.094.074-.037.04-.08.074-.096.074s-.059.033-.096.073c-.037.04-.082.074-.1.074-.018 0-.049.022-.068.049-.019.027-.053.049-.077.049-.023 0-.042.01-.042.024s-.02.025-.043.025c-.024 0-.058.022-.077.049-.02.027-.054.049-.077.049-.024 0-.043.011-.043.025 0 .013-.022.024-.048.024-.026 0-.048.011-.048.025 0 .013-.021.024-.048.024-.026 0-.048.011-.048.025 0 .013-.01.024-.024.024-.013 0-.024-.033-.024-.073 0-.04.011-.074.024-.074.014 0 .024-.033.024-.074 0-.04.011-.073.024-.073.013 0 .024-.033.024-.074 0-.04.011-.073.024-.073.013 0 .024-.033.024-.074 0-.04.01-.074.024-.074.013 0 .024-.033.024-.073 0-.04.01-.074.024-.074.013 0 .024-.033.024-.073 0-.04.01-.074.024-.074.013 0 .024-.022.024-.049 0-.027.01-.049.024-.049.013 0 .024-.033.024-.074 0-.04.01-.073.024-.073.013 0 .024-.022.024-.05 0-.026.01-.048.024-.048.013 0 .024-.022.024-.05 0-.026.01-.048.024-.048.013 0 .024-.022.024-.05 0-.026.01-.048.023-.048.014 0 .025-.023.025-.05 0-.027.01-.049.024-.049.013 0 .023-.022.023-.049 0-.027.011-.049.024-.049.014 0 .024-.017.024-.039s.033-.07.072-.108c.04-.038.072-.081.072-.096 0-.042.257-.296.3-.296.02 0 .035-.011.035-.025 0-.013.022-.024.048-.024.027 0 .048-.011.048-.025 0-.014.072-.024.168-.024.096 0 .168.01.168.024zm-23.336 1.47c0 .014-.054.025-.12.025s-.12.011-.12.025c0 .013-.043.024-.096.024-.052 0-.095.011-.095.025 0 .013-.033.024-.072.024-.04 0-.072.011-.072.025 0 .013-.022.024-.048.024-.027 0-.048.012-.048.025 0 .013-.033.025-.072.025-.04 0-.072.01-.072.024s-.021.025-.048.025c-.026 0-.048.01-.048.024s-.021.025-.048.025c-.026 0-.048.01-.048.024s-.019.025-.042.025c-.024 0-.058.022-.077.049-.02.027-.052.049-.072.049-.02 0-.053.022-.072.049-.02.027-.05.049-.068.049-.018 0-.063.033-.1.074-.037.04-.079.073-.094.073-.034 0-.625.605-.625.64 0 .015-.032.058-.071.096-.04.038-.072.084-.072.102 0 .02-.022.05-.048.07-.027.02-.048.052-.048.073 0 .021-.022.054-.048.074-.027.02-.048.052-.048.073 0 .021-.022.055-.048.074-.026.02-.048.055-.048.079s-.01.044-.024.044c-.013 0-.024.022-.024.049 0 .027-.01.049-.024.049-.013 0-.024.022-.024.049 0 .027-.01.049-.024.049-.013 0-.024.022-.024.049 0 .027-.01.049-.024.049-.013 0-.024.022-.024.049 0 .027-.01.05-.024.05-.013 0-.024.021-.024.048s-.01.05-.024.05c-.013 0-.024.032-.024.073 0 .04-.01.073-.023.073-.014 0-.024.022-.024.05 0 .026-.011.048-.024.048-.014 0-.024.034-.024.074 0 .04-.011.074-.024.074-.013 0-.024.033-.024.073 0 .04-.011.074-.024.074-.013 0-.024.033-.024.073 0 .04-.01.074-.024.074-.013 0-.024.044-.024.098 0 .054-.01.098-.024.098-.013 0-.024.044-.024.098 0 .054-.01.098-.024.098-.013 0-.024.045-.024.099 0 .054-.01.098-.024.098-.013 0-.024.055-.024.122 0 .068-.01.123-.024.123s-.024.082-.024.196c0 .115-.01.196-.024.196-.015 0-.024.262-.024.736s.009.736.024.736c.014 0 .024.066.024.147 0 .082.01.147.024.147s.024.066.024.148c0 .081.01.147.024.147.013 0 .024.044.024.098 0 .054.01.098.024.098.013 0 .024.033.024.074 0 .04.01.073.024.073.013 0 .024.044.024.098 0 .054.01.098.024.098.013 0 .024.034.024.074 0 .04.01.074.024.074.013 0 .024.022.024.049 0 .027.01.049.024.049.013 0 .024.022.024.049 0 .027.01.049.024.049.013 0 .024.033.024.073 0 .04.01.074.024.074.013 0 .024.022.024.049 0 .027.01.05.024.05.013 0 .024.019.024.043 0 .024.021.06.047.079.027.02.048.055.048.079s.011.043.024.043c.013 0 .024.02.024.044 0 .024.022.06.048.079.027.02.048.05.048.069 0 .018.043.075.096.127a.398.398 0 01.096.122c0 .035.206.246.24.246.015 0 .069.044.12.098.05.054.108.098.13.098.02 0 .037.011.037.025 0 .013.02.024.043.024.023 0 .058.022.077.05.019.027.053.049.077.049.023 0 .042.01.042.024s.033.025.072.025c.04 0 .072.01.072.024s.022.025.048.025c.027 0 .048.01.048.024s.043.025.096.025c.053 0 .096.01.096.024s.064.025.143.025c.08 0 .144.01.144.024 0 .015.104.025.264.025.16 0 .263-.01.263-.025 0-.013.064-.024.144-.024.08 0 .144-.011.144-.025 0-.013.043-.024.096-.024.052 0 .096-.011.096-.025 0-.013.032-.024.072-.024.039 0 .071-.011.071-.025 0-.013.022-.024.048-.024.027 0 .048-.011.048-.025 0-.013.033-.024.072-.024.04 0 .072-.011.072-.025 0-.014.021-.024.048-.024.026 0 .048-.011.048-.025 0-.014.019-.025.042-.025.024 0 .059-.022.078-.049.019-.027.053-.049.077-.049.023 0 .042-.01.042-.024s.018-.025.039-.025c.02 0 .068-.033.105-.073.037-.04.08-.074.096-.074.015 0 .07-.044.12-.098a.391.391 0 01.118-.098c.034 0 .385-.359.385-.394 0-.014.054-.08.12-.146a.555.555 0 00.12-.148c0-.015.032-.06.071-.097.04-.038.072-.081.072-.097 0-.028.106-.148.131-.148.007 0 .013.055.013.122 0 .068.01.123.024.123.013 0 .024.044.024.098 0 .054.01.098.024.098.013 0 .024.044.024.098 0 .054.01.098.024.098.013 0 .024.023.024.05 0 .027.01.049.024.049.013 0 .024.022.024.049 0 .027.01.049.024.049.013 0 .024.022.024.049 0 .027.01.049.024.049.013 0 .024.017.024.039 0 .021.032.07.072.108.039.038.071.081.071.096 0 .036.207.247.242.247.015 0 .057.033.094.074.037.04.084.074.105.074.021 0 .038.01.038.024s.022.024.049.024c.026 0 .047.012.047.025 0 .014.022.025.048.025.027 0 .048.01.048.024s.033.025.072.025c.04 0 .072.01.072.024s.032.025.072.025c.04 0 .072.01.072.024s.054.025.12.025c.065 0 .12.01.12.024 0 .016.135.025.359.025.223 0 .36-.01.36-.025 0-.013.053-.024.119-.024s.12-.011.12-.025c0-.013.032-.024.072-.024.04 0 .072-.011.072-.025 0-.013.032-.024.071-.024.04 0 .072-.011.072-.025 0-.013.033-.024.072-.024.04 0 .072-.011.072-.025 0-.013.022-.024.048-.024.026 0 .048-.011.048-.025 0-.014.021-.024.048-.024.026 0 .048-.011.048-.025 0-.014.019-.025.042-.025.024 0 .059-.022.078-.049.018-.027.05-.049.071-.049.02 0 .053-.022.072-.049.02-.027.05-.049.067-.049.018 0 .074-.044.125-.098.05-.054.104-.098.119-.098.035 0 .145-.112.145-.149 0-.015.032-.059.071-.096.04-.038.072-.087.072-.108 0-.022.011-.04.024-.04.013 0 .024-.021.024-.049 0-.027.011-.049.024-.049.013 0 .024-.016.024-.037 0-.046-.154-.208-.197-.208-.018 0-.047-.022-.066-.049-.02-.027-.05-.049-.067-.049-.042 0-.101-.06-.101-.103 0-.018-.022-.05-.048-.069-.026-.02-.048-.055-.048-.079s-.01-.043-.024-.043c-.013 0-.024-.022-.024-.05 0-.026-.01-.048-.024-.048-.013 0-.024-.023-.024-.05 0-.026-.01-.048-.024-.048-.013 0-.024-.045-.024-.099 0-.054-.01-.098-.024-.098s-.024-.082-.024-.196-.01-.196-.024-.196-.024-.123-.024-.32c0-.195.01-.318.024-.318.015 0 .024-.098.024-.245s.01-.246.024-.246.024-.081.024-.196c0-.114.01-.196.024-.196s.024-.074.024-.172c0-.098.01-.171.024-.171s.024-.074.024-.172c0-.098.01-.172.024-.172.013 0 .024-.065.024-.147 0-.082.01-.147.024-.147s.024-.074.024-.172c0-.098.01-.172.024-.172s.024-.073.024-.171c0-.098.01-.172.024-.172s.024-.073.024-.172c0-.098.01-.171.024-.171.013 0 .024-.066.024-.147 0-.082.01-.148.024-.148.013 0 .024-.073.024-.171 0-.098.01-.172.024-.172.013 0 .023-.074.023-.172 0-.098.01-.171.024-.171s.024-.066.024-.148c0-.081.011-.147.024-.147.014 0 .024-.073.024-.171 0-.099.01-.172.024-.172s.024-.066.024-.147c0-.082.01-.148.024-.148s.024-.073.024-.171c0-.098.01-.172.024-.172s.024-.09.024-.22v-.221h-1.653c-1.086 0-1.653.008-1.653.024 0 .014-.022.025-.048.025-.038 0-.048.016-.048.073 0 .04-.011.074-.024.074-.014 0-.024.073-.024.172 0 .098-.01.171-.024.171s-.024.082-.024.196c0 .115-.01.197-.024.197-.013 0-.024.065-.024.147 0 .08-.006.147-.014.147-.028 0-.082-.071-.082-.109 0-.02-.01-.038-.024-.038-.013 0-.024-.022-.024-.05 0-.026-.01-.048-.024-.048-.013 0-.024-.02-.024-.044 0-.024-.021-.06-.048-.079-.026-.02-.047-.052-.047-.074 0-.02-.022-.054-.048-.073-.027-.02-.048-.05-.048-.067 0-.041-.445-.497-.486-.497-.017 0-.046-.022-.065-.05-.02-.026-.052-.048-.072-.048-.02 0-.053-.022-.072-.05-.02-.026-.054-.048-.077-.048-.024 0-.043-.012-.043-.025 0-.013-.021-.025-.048-.025-.026 0-.048-.01-.048-.024s-.032-.025-.072-.025c-.04 0-.072-.01-.072-.024s-.032-.025-.072-.025c-.039 0-.071-.01-.071-.024s-.043-.025-.096-.025c-.053 0-.096-.01-.096-.024 0-.016-.192-.025-.527-.025-.336 0-.527.01-.527.025zm30.285 0c0 .014-.054.025-.12.025s-.12.011-.12.025c0 .013-.043.024-.095.024-.053 0-.096.011-.096.025 0 .013-.032.024-.072.024-.04 0-.072.011-.072.025 0 .013-.032.024-.072.024-.04 0-.072.012-.072.025 0 .013-.021.025-.047.025-.027 0-.048.01-.048.024s-.022.025-.048.025c-.027 0-.048.01-.048.024s-.022.025-.048.025c-.026 0-.048.01-.048.024s-.022.025-.048.025c-.026 0-.048.01-.048.024s-.02.025-.043.025c-.023 0-.058.022-.077.049-.019.027-.05.049-.067.049-.018 0-.064.033-.1.073-.037.04-.08.074-.096.074a.547.547 0 00-.144.123.56.56 0 01-.143.122c-.035 0-.145.113-.145.148a.781.781 0 01-.143.171.757.757 0 00-.144.173c0 .016-.032.06-.072.097-.04.038-.072.084-.072.103 0 .018-.021.05-.048.069-.026.02-.048.052-.048.073 0 .021-.021.054-.048.074-.026.02-.047.055-.047.079s-.011.044-.025.044c-.013 0-.023.022-.023.049 0 .027-.011.049-.024.049-.014 0-.024.02-.024.043 0 .024-.022.06-.048.08-.027.019-.048.054-.048.078s-.011.044-.024.044c-.013 0-.024.033-.024.073 0 .041-.01.074-.024.074-.013 0-.024.022-.024.05 0 .026-.01.048-.024.048-.013 0-.024.022-.024.05 0 .026-.01.048-.024.048-.013 0-.024.033-.024.074 0 .04-.01.073-.024.073-.013 0-.024.023-.024.05 0 .027-.01.049-.024.049-.013 0-.024.033-.024.073 0 .04-.01.074-.024.074-.013 0-.024.033-.024.073 0 .04-.01.074-.024.074-.013 0-.024.044-.024.098 0 .054-.01.098-.024.098-.013 0-.023.033-.023.074 0 .04-.011.073-.024.073-.014 0-.024.056-.024.123s-.011.123-.024.123c-.014 0-.024.055-.024.122 0 .068-.011.123-.024.123-.014 0-.024.065-.024.147 0 .082-.01.147-.024.147-.015 0-.024.115-.024.295s-.01.294-.024.294c-.015 0-.024.106-.024.27 0 .163.01.27.024.27.015 0 .024.114.024.294s.01.294.024.294c.013 0 .024.066.024.147 0 .082.01.148.024.148.013 0 .024.055.024.122 0 .068.01.123.024.123.013 0 .024.044.024.098 0 .054.01.098.024.098.013 0 .024.033.024.074 0 .04.01.073.023.073.014 0 .024.033.024.074 0 .04.011.073.024.073.014 0 .024.034.024.074 0 .04.011.074.024.074.014 0 .024.033.024.073 0 .04.011.074.024.074.013 0 .024.022.024.049 0 .027.011.049.024.049.013 0 .024.022.024.049 0 .027.01.049.024.049.013 0 .024.022.024.049 0 .027.01.05.024.05.013 0 .024.021.024.048s.01.05.024.05c.013 0 .024.021.024.048s.01.05.024.05c.013 0 .024.019.024.043 0 .024.021.06.048.079.026.02.048.05.048.07 0 .018.032.064.072.102.039.037.071.08.071.096 0 .038.4.443.438.443.017 0 .046.022.066.05.019.026.05.048.071.048.021 0 .053.022.072.05.02.026.054.049.078.049.023 0 .042.01.042.024s.022.024.048.024c.026 0 .048.012.048.025 0 .014.022.025.048.025.026 0 .048.01.048.024s.032.025.072.025c.04 0 .072.01.072.024s.043.025.095.025c.053 0 .096.01.096.024s.064.025.144.025c.08 0 .144.01.144.024 0 .015.104.025.263.025.16 0 .264-.01.264-.025 0-.013.064-.024.144-.024.08 0 .143-.011.143-.025 0-.013.044-.024.096-.024.053 0 .096-.011.096-.025 0-.013.032-.024.072-.024.04 0 .072-.011.072-.025 0-.013.021-.024.048-.024.026 0 .048-.011.048-.025 0-.013.021-.024.048-.024.026 0 .047-.011.047-.025 0-.014.022-.024.048-.024.027 0 .048-.011.048-.025 0-.014.022-.025.048-.025.027 0 .048-.01.048-.024s.022-.025.048-.025c.027 0 .048-.01.048-.024s.02-.025.043-.025c.023 0 .058-.022.077-.049.019-.027.051-.049.072-.049.02 0 .053-.022.072-.049.019-.027.048-.049.065-.049.038 0 .821-.798.821-.836 0-.015.033-.058.072-.096.04-.038.072-.084.072-.102 0-.02.021-.05.048-.07.026-.02.048-.055.048-.079 0-.027.018-.043.048-.043.042 0 .048.016.048.147 0 .082.01.147.023.147.014 0 .025.044.025.098 0 .054.01.098.023.098.014 0 .024.033.024.074 0 .04.011.073.024.073.014 0 .024.034.024.074 0 .04.011.074.024.074.014 0 .024.022.024.049 0 .027.011.049.024.049.013 0 .024.02.024.043 0 .024.022.06.048.08.026.019.048.049.048.067 0 .04.35.398.39.398.017 0 .046.022.065.05.02.026.054.049.077.049.024 0 .043.01.043.024s.022.024.048.024c.026 0 .048.012.048.025 0 .014.021.025.048.025.026 0 .048.01.048.024s.021.025.048.025c.026 0 .048.01.048.024s.043.025.095.025c.053 0 .096.01.096.024s.043.025.096.025c.053 0 .096.01.096.024 0 .016.144.025.383.025.24 0 .384-.01.384-.025 0-.013.053-.024.12-.024.065 0 .12-.011.12-.025 0-.013.032-.024.071-.024.04 0 .072-.011.072-.025 0-.013.032-.024.072-.024.04 0 .072-.011.072-.025 0-.013.021-.024.048-.024.026 0 .048-.011.048-.025 0-.013.021-.024.047-.024.027 0 .048-.011.048-.025 0-.014.03-.024.067-.024.04 0 .08-.02.101-.05.02-.027.054-.049.077-.049.024 0 .043-.01.043-.024s.02-.025.043-.025c.023 0 .058-.022.077-.049.019-.027.048-.049.065-.049.04 0 .486-.456.486-.497 0-.017.021-.048.048-.067.092-.068.05-.319-.053-.319-.018 0-.048-.022-.067-.049-.019-.027-.049-.049-.066-.049-.04 0-.198-.16-.198-.202 0-.018-.021-.048-.048-.068-.026-.02-.047-.055-.047-.079s-.011-.043-.024-.043c-.014 0-.024-.034-.024-.074 0-.04-.011-.073-.024-.073-.014 0-.024-.034-.024-.074 0-.04-.011-.074-.024-.074-.014 0-.024-.065-.024-.147 0-.082-.01-.147-.024-.147-.015 0-.024-.172-.024-.466 0-.294.009-.466.024-.466.014 0 .024-.098.024-.245 0-.148.01-.246.024-.246.013 0 .024-.073.024-.171 0-.099.01-.172.024-.172.013 0 .024-.074.024-.172 0-.098.01-.171.024-.171.013 0 .024-.074.024-.172 0-.098.01-.172.024-.172.013 0 .023-.065.023-.147 0-.082.011-.147.024-.147.014 0 .024-.074.024-.172 0-.098.01-.172.024-.172s.024-.073.024-.171c0-.098.01-.172.024-.172s.024-.065.024-.147c0-.082.01-.147.024-.147s.024-.074.024-.172c0-.098.01-.172.024-.172s.024-.073.024-.171c0-.099.01-.172.024-.172s.024-.074.024-.172c0-.098.01-.172.024-.172.013 0 .024-.065.024-.147 0-.081.01-.147.024-.147s.024-.073.024-.172c0-.098.01-.171.024-.171.013 0 .024-.066.024-.147 0-.082.01-.148.024-.148.013 0 .024-.073.024-.171 0-.098.01-.172.024-.172.038 0 .029-.268-.01-.308-.03-.03-.284-.035-1.667-.035h-1.632l-.059.06c-.05.051-.059.083-.059.22 0 .091-.01.161-.024.161-.013 0-.024.074-.024.172 0 .098-.01.171-.023.171-.015 0-.025.09-.025.221 0 .205-.003.221-.047.221-.032 0-.048-.016-.048-.05 0-.026-.011-.048-.024-.048-.014 0-.024-.022-.024-.05 0-.026-.011-.048-.024-.048-.013 0-.024-.022-.024-.05 0-.026-.011-.048-.024-.048-.013 0-.024-.02-.024-.044 0-.024-.022-.06-.048-.079-.026-.02-.048-.05-.048-.07 0-.018-.032-.064-.072-.102-.04-.037-.072-.08-.072-.096 0-.036-.302-.345-.337-.345-.015 0-.057-.033-.094-.074-.037-.04-.084-.073-.105-.073-.022 0-.039-.011-.039-.025 0-.013-.019-.024-.042-.024-.024 0-.059-.022-.078-.05a.13.13 0 00-.1-.049c-.037 0-.067-.01-.067-.024s-.022-.025-.048-.025c-.026 0-.048-.01-.048-.024s-.032-.025-.072-.025c-.04 0-.072-.01-.072-.024s-.054-.025-.12-.025-.12-.01-.12-.024c0-.016-.183-.025-.503-.025s-.503.01-.503.025zm-17.06.05c0 .015-.199.024-.55.024-.352 0-.551.01-.551.025 0 .015-.112.024-.288.024s-.287.01-.287.025c0 .014-.08.024-.192.024s-.192.01-.192.025c0 .014-.072.025-.168.025-.095 0-.167.01-.167.024s-.064.025-.144.025c-.08 0-.144.01-.144.024s-.064.025-.144.025c-.08 0-.143.01-.143.024s-.054.025-.12.025-.12.01-.12.024-.05.025-.11.025c-.139 0-.177.04-.177.182 0 .062-.011.112-.024.112-.014 0-.024.082-.024.196 0 .115-.01.197-.024.197s-.024.065-.024.147c0 .081-.011.147-.024.147-.014 0-.024.073-.024.172 0 .098-.01.171-.024.171s-.024.066-.024.147c0 .082-.01.148-.024.148-.013 0-.024.055-.024.122 0 .068-.01.123-.024.123-.013 0-.024.065-.024.147 0 .082-.01.147-.024.147-.013 0-.024.055-.024.123 0 .067-.01.123-.024.123-.013 0-.024.055-.024.122 0 .068-.01.123-.024.123-.013 0-.024.044-.024.098 0 .054-.01.098-.024.098-.013 0-.024.055-.024.123 0 .067-.01.122-.024.122-.013 0-.024.044-.024.098 0 .054-.01.099-.024.099-.013 0-.023.044-.023.098 0 .054-.011.098-.024.098-.014 0-.024.033-.024.073 0 .04-.011.074-.024.074-.014 0-.024.044-.024.098 0 .054-.011.098-.024.098-.014 0-.024.033-.024.074 0 .04-.011.073-.024.073-.013 0-.024.022-.024.05 0 .026-.011.048-.024.048-.013 0-.024.034-.024.074 0 .04-.01.074-.024.074-.013 0-.024.022-.024.049 0 .027-.01.049-.024.049-.013 0-.024.033-.024.073 0 .04-.01.074-.024.074-.013 0-.024.022-.024.049 0 .027-.01.049-.024.049-.013 0-.024.022-.024.05 0 .026-.01.048-.024.048-.013 0-.024.022-.024.05 0 .026-.01.048-.024.048-.013 0-.024.022-.024.05 0 .026-.01.048-.024.048-.013 0-.024.022-.024.05 0 .026-.01.048-.023.048-.014 0-.024.023-.024.05 0 .027-.011.049-.024.049-.014 0-.024.022-.024.049 0 .027-.011.049-.024.049-.014 0-.024.022-.024.049 0 .027-.011.049-.024.049-.014 0-.024.02-.024.043 0 .024-.022.06-.048.08-.026.019-.048.052-.048.073 0 .021-.022.054-.048.074-.026.02-.048.052-.048.073 0 .021-.021.054-.048.074-.026.02-.048.052-.048.073 0 .021-.021.055-.048.074-.026.02-.048.05-.048.068 0 .018-.064.098-.143.177a.788.788 0 00-.144.171c0 .035-.158.197-.192.197a.774.774 0 00-.168.147.78.78 0 01-.167.147c-.04 0-.24.215-.24.257 0 .021-.01.038-.024.038-.013 0-.024.044-.024.098 0 .054.011.098.024.098.013 0 .024.055.024.123 0 .067.01.122.024.122.013 0 .024.034.024.074 0 .04.01.074.024.074.013 0 .024.022.024.049 0 .027.01.049.024.049.013 0 .024.022.024.049 0 .027.01.049.024.049.013 0 .024.022.024.049 0 .027.01.049.024.049.013 0 .024.02.024.043 0 .024.021.06.048.08.026.019.048.05.048.067 0 .041.397.448.437.448.017 0 .047.022.066.049.019.027.053.049.077.049.023 0 .043.01.043.024s.021.025.047.025c.027 0 .048.01.048.024s.033.025.072.025c.04 0 .072.01.072.024s.033.025.072.025c.04 0 .072.01.072.024s.054.025.12.025.12.011.12.024c0 .016.12.025.311.025.192 0 .312-.01.312-.024s.063-.025.143-.025c.08 0 .144-.01.144-.025 0-.013.032-.024.072-.024.04 0 .072-.011.072-.025 0-.013.032-.024.072-.024.04 0 .072-.011.072-.025 0-.013.021-.024.047-.024.027 0 .048-.011.048-.025 0-.013.022-.024.048-.024.027 0 .048-.011.048-.025 0-.013.022-.024.048-.024.026 0 .048-.011.048-.025 0-.013.02-.024.043-.024.023 0 .058-.023.077-.05.019-.026.049-.048.067-.048.018 0 .074-.045.125-.099.05-.054.104-.098.12-.098.035 0 .095-.062.095-.098 0-.015.054-.081.12-.147a.515.515 0 00.12-.152c0-.019.021-.05.048-.069.026-.02.048-.052.048-.073 0-.021.021-.055.047-.074.027-.02.048-.055.048-.079s.011-.044.024-.044c.014 0 .024-.022.024-.049 0-.027.011-.049.024-.049.014 0 .024-.022.024-.049 0-.027.011-.049.024-.049.013 0 .024-.022.024-.049 0-.027.011-.049.024-.049.013 0 .024-.022.024-.049 0-.027.01-.049.024-.049.013 0 .024-.022.024-.05 0-.026.01-.048.024-.048.013 0 .024-.033.024-.074 0-.04.01-.073.024-.073.013 0 .024-.022.024-.05 0-.026.01-.048.024-.048.013 0 .024-.034.024-.074 0-.04.01-.074.024-.074.013 0 .024-.033.024-.073 0-.04.01-.074.024-.074.013 0 .024-.033.024-.073 0-.04.01-.074.024-.074.013 0 .024-.044.024-.098 0-.054.01-.098.024-.098.013 0 .024-.044.024-.098 0-.054.01-.098.023-.098.014 0 .024-.045.024-.099 0-.053.011-.098.024-.098.014 0 .024-.044.024-.098 0-.054.011-.098.024-.098.014 0 .024-.055.024-.122 0-.068.011-.123.024-.123.013 0 .024-.044.024-.098 0-.054.01-.098.024-.098.013 0 .024-.066.024-.148 0-.081.01-.147.024-.147.013 0 .024-.055.024-.122 0-.068.01-.123.024-.123.013 0 .024-.065.024-.147 0-.082.01-.147.024-.147s.024-.074.024-.172c0-.098.01-.172.024-.172s.024-.073.024-.171c0-.099.01-.172.024-.172s.024-.09.024-.22c0-.132.01-.222.024-.222s.024-.106.024-.27c0-.163.009-.27.024-.27.014 0 .024-.13.024-.343 0-.212.009-.343.023-.343s.024-.074.024-.172v-.171h1.342v.098c0 .054-.01.098-.024.098s-.024.082-.024.196-.01.196-.024.196-.024.082-.024.196c0 .115-.01.197-.024.197s-.024.081-.024.196c0 .114-.01.196-.024.196s-.023.082-.023.196c0 .115-.01.197-.024.197s-.024.081-.024.196c0 .114-.01.196-.024.196s-.024.082-.024.196c0 .115-.01.197-.024.197s-.024.081-.024.196c0 .114-.01.196-.024.196s-.024.09-.024.22c0 .132-.01.221-.024.221s-.024.082-.024.197c0 .114-.01.196-.024.196s-.024.082-.024.196c0 .115-.01.196-.024.196s-.024.082-.024.197c0 .114-.01.196-.024.196s-.024.082-.024.196-.01.196-.024.196-.024.082-.024.197c0 .114-.01.196-.024.196s-.024.082-.024.196-.01.196-.024.196-.024.082-.024.196c0 .115-.01.197-.024.197s-.024.081-.024.196c0 .114-.01.196-.023.196-.014 0-.024.082-.024.196v.197h3.306v-.172c0-.098.01-.172.024-.172s.024-.082.024-.196.01-.196.024-.196.024-.082.024-.197c0-.114.01-.196.024-.196s.024-.081.024-.196c0-.114.01-.196.024-.196s.024-.082.024-.196c0-.115.01-.197.024-.197s.024-.09.024-.22c0-.131.01-.221.024-.221s.024-.082.024-.196c0-.115.01-.197.023-.197.015 0 .025-.081.025-.196 0-.114.01-.196.023-.196.014 0 .024-.082.024-.196 0-.115.01-.197.024-.197s.024-.081.024-.196c0-.114.01-.196.024-.196s.024-.082.024-.196c0-.115.01-.196.024-.196s.024-.082.024-.197c0-.114.01-.196.024-.196s.024-.082.024-.196c0-.115.01-.196.024-.196s.024-.082.024-.197c0-.114.01-.196.024-.196s.024-.082.024-.196.01-.196.024-.196.024-.09.024-.221c0-.13.01-.22.024-.22s.024-.074.024-.172c0-.099.01-.172.024-.172s.024-.082.024-.196c0-.115.01-.197.024-.197s.024-.09.024-.22c0-.131.01-.221.024-.221s.024-.082.024-.196c0-.115.01-.197.024-.197s.023-.081.023-.196c0-.114.01-.196.024-.196.037 0 .029-.121-.01-.161-.02-.02-.08-.035-.144-.035-.06 0-.11-.011-.11-.025 0-.013-.053-.024-.119-.024s-.12-.011-.12-.025c0-.013-.064-.024-.144-.024-.08 0-.143-.011-.143-.025 0-.014-.072-.024-.168-.024-.096 0-.168-.01-.168-.025 0-.014-.072-.024-.167-.024-.096 0-.168-.011-.168-.025 0-.015-.088-.025-.216-.025s-.215-.01-.215-.024c0-.015-.104-.025-.264-.025-.16 0-.264-.01-.264-.024 0-.016-.207-.025-.575-.025-.367 0-.575-.009-.575-.024 0-.014-.043-.025-.095-.025-.053 0-.096.011-.096.025zM18.163 5.96c0 .014.021.025.048.025.026 0 .047.01.047.024s.022.025.048.025c.027 0 .048.011.048.024 0 .014.017.025.037.025.045 0 .203.158.203.202 0 .018.022.048.048.068.026.02.048.055.048.079s.01.043.024.043c.013 0 .024.023.024.05 0 .027.01.049.024.049.013 0 .024.033.024.073 0 .04.01.074.024.074.013 0 .024.033.024.073 0 .04.01.074.024.074.013 0 .024.065.024.147 0 .082.01.147.023.147.016 0 .024.188.024.515s-.008.515-.024.515c-.013 0-.023.074-.023.172 0 .098-.01.172-.024.172s-.024.055-.024.122c0 .068-.011.123-.024.123-.014 0-.024.044-.024.098 0 .054-.011.098-.024.098-.014 0-.024.033-.024.074 0 .04-.011.074-.024.074-.013 0-.024.033-.024.073 0 .04-.011.074-.024.074-.013 0-.024.033-.024.073 0 .04-.01.074-.024.074-.013 0-.024.022-.024.049 0 .027-.01.049-.024.049-.013 0-.024.022-.024.049 0 .027-.01.05-.024.05-.013 0-.024.021-.024.048s-.01.05-.024.05c-.013 0-.024.019-.024.043 0 .024-.021.06-.048.079-.026.02-.048.05-.048.067 0 .045-.398.448-.443.448-.02 0-.036.011-.036.024 0 .014-.021.025-.048.025-.026 0-.048.011-.048.024 0 .014-.021.025-.048.025-.026 0-.047.011-.047.025 0 .015-.112.024-.288.024s-.287-.01-.287-.024-.022-.025-.049-.025c-.026 0-.047-.011-.047-.024 0-.014-.017-.025-.037-.025-.047 0-.347-.307-.347-.355 0-.02-.01-.037-.024-.037-.013 0-.024-.023-.024-.05 0-.026-.01-.049-.024-.049-.013 0-.024-.033-.024-.073 0-.04-.01-.074-.023-.074-.014 0-.024-.033-.024-.073 0-.04-.011-.074-.024-.074-.014 0-.024-.055-.024-.123 0-.067-.011-.122-.024-.122-.016 0-.024-.205-.024-.564 0-.36.008-.564.024-.564.013 0 .024-.066.024-.148 0-.081.01-.147.023-.147.014 0 .024-.055.024-.122 0-.068.011-.123.024-.123.014 0 .024-.044.024-.098 0-.054.011-.098.024-.098.014 0 .024-.044.024-.098 0-.054.011-.099.024-.099.014 0 .024-.033.024-.073 0-.04.011-.074.024-.074.013 0 .024-.022.024-.049 0-.027.011-.049.024-.049.013 0 .024-.033.024-.073 0-.04.01-.074.024-.074.013 0 .024-.022.024-.05 0-.026.01-.048.024-.048.013 0 .024-.02.024-.044 0-.024.021-.06.048-.079.026-.02.048-.052.048-.073 0-.021.021-.054.048-.074.026-.02.048-.05.048-.067 0-.042.3-.35.341-.35.017 0 .047-.022.066-.049.019-.027.054-.049.077-.049.024 0 .043-.011.043-.025 0-.013.032-.024.072-.024.04 0 .072-.011.072-.025 0-.014.095-.024.24-.024.143 0 .239.01.239.024zm30.237 0c0 .014.033.025.072.025.04 0 .072.01.072.024s.02.025.043.025c.023 0 .058.022.077.049.019.027.054.05.077.05s.043.017.043.038c0 .022.032.07.072.108.039.038.071.084.071.103 0 .018.022.05.048.069.028.02.048.063.048.103 0 .038.011.069.024.069.013 0 .024.033.024.073 0 .04.01.074.024.074.013 0 .024.044.024.098 0 .054.01.098.024.098.013 0 .024.065.024.147 0 .082.01.147.024.147.015 0 .024.148.024.393 0 .245-.01.392-.024.392s-.024.082-.024.197c0 .114-.01.196-.024.196-.013 0-.024.065-.024.147 0 .082-.01.147-.024.147-.013 0-.024.044-.024.098 0 .054-.01.098-.024.098-.013 0-.024.033-.024.074 0 .04-.01.073-.024.073-.013 0-.024.034-.024.074 0 .04-.01.074-.024.074-.013 0-.024.033-.024.073 0 .04-.01.074-.024.074-.013 0-.023.022-.023.049 0 .027-.011.049-.024.049-.014 0-.024.022-.024.049 0 .027-.011.049-.024.049-.014 0-.024.022-.024.05 0 .026-.011.048-.024.048-.014 0-.024.022-.024.05 0 .026-.011.048-.024.048-.013 0-.024.02-.024.044 0 .024-.022.06-.048.079-.027.02-.048.05-.048.067 0 .042-.301.35-.342.35-.017 0-.046.022-.065.049-.02.027-.054.049-.078.049-.023 0-.042.011-.042.024 0 .014-.032.025-.072.025-.04 0-.072.011-.072.025 0 .014-.104.024-.264.024-.16 0-.263-.01-.263-.024s-.03-.025-.067-.025a.13.13 0 01-.1-.049c-.02-.027-.05-.05-.067-.05-.043 0-.197-.16-.197-.207 0-.02-.011-.037-.024-.037-.014 0-.024-.022-.024-.05 0-.026-.011-.048-.024-.048-.013 0-.024-.023-.024-.05 0-.026-.011-.049-.024-.049-.013 0-.024-.022-.024-.049 0-.027-.01-.049-.024-.049-.013 0-.024-.033-.024-.073 0-.04-.01-.074-.024-.074-.013 0-.024-.055-.024-.122 0-.068-.01-.123-.024-.123-.015 0-.024-.23-.024-.638 0-.409.009-.638.024-.638.013 0 .024-.065.024-.147 0-.082.01-.147.024-.147.013 0 .024-.044.024-.098 0-.054.01-.098.024-.098.013 0 .024-.044.024-.098 0-.054.01-.098.024-.098.013 0 .024-.034.024-.074 0-.04.01-.074.024-.074.013 0 .024-.033.024-.073 0-.04.01-.074.024-.074.013 0 .024-.033.024-.073 0-.04.01-.074.024-.074.013 0 .024-.022.024-.049 0-.027.01-.049.024-.049.013 0 .023-.022.023-.05 0-.026.011-.048.024-.048.014 0 .024-.022.024-.05 0-.026.011-.048.024-.048.014 0 .024-.02.024-.044 0-.024.022-.06.048-.079.027-.02.048-.05.048-.067 0-.045.399-.448.443-.448.02 0 .036-.011.036-.025 0-.013.022-.024.048-.024.027 0 .048-.011.048-.025 0-.013.033-.024.072-.024.04 0 .072-.011.072-.025 0-.014.088-.024.216-.024.127 0 .215.01.215.024zM38.336 7.481c0 .014.054.025.12.025s.12.01.12.024.032.025.072.025c.04 0 .071.01.071.024s.022.025.048.025c.027 0 .048.01.048.024s.017.025.037.025c.02 0 .117.082.215.183.099.101.18.2.18.221 0 .02.01.037.023.037.014 0 .024.022.024.05 0 .026.011.048.024.048.014 0 .024.034.024.074 0 .04.011.074.024.074.014 0 .024.055.024.122 0 .068.011.123.024.123.015 0 .024.139.024.368 0 .229-.009.368-.024.368-.013 0-.024.055-.024.122 0 .068-.01.123-.024.123-.013 0-.024.033-.024.074 0 .04-.01.073-.024.073-.013 0-.023.033-.023.074 0 .04-.011.073-.025.073-.013 0-.024.033-.024.074 0 .04-.01.074-.023.074-.014 0-.024.022-.024.049 0 .027-.011.049-.024.049-.014 0-.024.022-.024.049 0 .027-.011.049-.024.049-.013 0-.024.022-.024.049 0 .027-.011.049-.024.049-.013 0-.024.02-.024.043 0 .024-.022.06-.048.08-.026.019-.048.05-.048.067 0 .044-.35.399-.395.399-.02 0-.036.01-.036.024s-.022.025-.048.025c-.026 0-.048.01-.048.024s-.032.025-.072.025c-.04 0-.072.01-.072.024s-.064.025-.144.025c-.08 0-.143-.011-.143-.025 0-.013-.033-.024-.072-.024-.04 0-.072-.011-.072-.025 0-.013-.017-.024-.037-.024-.047 0-.299-.258-.299-.306 0-.021-.01-.038-.023-.038-.014 0-.024-.022-.024-.049 0-.027-.011-.049-.024-.049-.014 0-.024-.033-.024-.073 0-.04-.011-.074-.024-.074-.014 0-.024-.044-.024-.098 0-.054-.011-.098-.024-.098-.014 0-.024-.055-.024-.123 0-.067-.011-.123-.024-.123-.016 0-.024-.253-.024-.71 0-.459.008-.712.024-.712.014 0 .024-.09.024-.221 0-.13.01-.22.024-.22.013 0 .024-.074.024-.172 0-.099.01-.172.024-.172.013 0 .024-.017.024-.039 0-.064.063-.108.154-.108.047 0 .085-.011.085-.025 0-.013.064-.024.144-.024.08 0 .144-.011.144-.025 0-.014.08-.024.191-.024.112 0 .192.01.192.024z" fill="#73778D"/></svg>