<svg width="65" height="65" fill="none" xmlns="http://www.w3.org/2000/svg"><path d="M41.793 22.622c2.292 1.93 4.816 4.253 7.393 6.83 8.182 8.182 13.702 15.931 12.326 17.306a.657.657 0 01-.287.173c-1.97.562-9.307-4.787-17.019-12.499-7.536-7.535-12.738-14.794-12.44-16.97a.746.746 0 01.214-.437c.81-.81 3.796.807 7.786 3.945" stroke="#4351D8" stroke-width="2" stroke-miterlimit="10" stroke-linecap="round"/><path d="M61.225 46.931c-8.173 3.051-17.617 1.293-24.188-5.279-6.518-6.518-8.22-16.06-5.27-24.19" stroke="#4351D8" stroke-width="2" stroke-miterlimit="10"/><path d="M34.079 38.01c-2.937.263-6.29.413-9.849.413-10.656 0-19.468-1.454-20.795-3.204a.744.744 0 01-.157-.46c0-1.945 9.381-3.38 20.953-3.38 2.44 0 4.782.07 6.96.2" stroke="#4351D8" stroke-width="2" stroke-miterlimit="10"/><path d="M32.8 46.972a22.978 22.978 0 01-8.534 1.625c-9.218 0-17.17-5.544-20.83-13.378m35.475 8.117a22.756 22.756 0 01-4.267 2.805" stroke="#4351D8" stroke-width="2" stroke-miterlimit="10" stroke-linecap="round"/></svg>