<svg width="50" height="50" fill="none" xmlns="http://www.w3.org/2000/svg"><path d="M49.791 27.889a.831.831 0 01-.465 1.078l-6.195 2.467-.094.038V45.51c0 .46-.373.831-.832.831H.982a.832.832 0 01-.832-.831V19.992a.82.82 0 01.442-.72l.031-.015.02-.028a.812.812 0 01.33-.263L39.262 3.72l.007-.003h.001a.832.832 0 011.08.465h0l9.44 23.702v.001m.002.004l-.002-.004m.002.004l-.001-.002v-.002m0 .004v-.004m0 0h0m0 0h0m0 0v.001h0zM39.26 3.72v0s0 0 0 0zm1.963 40.96h.15V20.823H1.813V44.68h39.41zM16.32 18.875l.055.29h23.922l-.081-.206-1.64-4.123-.037-.094h-.101a7.659 7.659 0 01-5.52-2.38l-.07-.073-.093.037-16.435 6.549zm26.716 10.59v.22l.205-.081 4.557-1.818.14-.056-.056-.139-8.715-21.883-.055-.14-.14.056L5.708 18.871l.055.29h6.193l.039-.092a.82.82 0 01.455-.443h.001l20.054-7.986a.942.942 0 01.11-.02l.033-.004.028-.017a.823.823 0 011.064.185 6.02 6.02 0 005.276 2.273.82.82 0 01.867.638l.007.034.021.027c.023.03.044.06.062.094l2.077 5.216.038.094h.117c.46 0 .832.372.832.832v9.473z" fill="#4351D8" stroke="#fff" stroke-width=".3"/><path d="M9.684 42.384l.038.01a.76.76 0 00.103.023h23.536a.726.726 0 00.09-.02l.037-.01.039.01a.763.763 0 00.922-.562m-24.765.55l24.765-.55m-24.765.55l-.038.008a.748.748 0 01-.121.019.832.832 0 01-.792-.594A6.019 6.019 0 004.67 37.76a.822.822 0 01-.569-.921l.006-.034-.01-.032a.753.753 0 01-.021-.105v-7.834a.843.843 0 01.022-.115l.009-.031-.005-.032a.819.819 0 01.568-.912 6.018 6.018 0 004.063-4.062.82.82 0 01.912-.568l.033.005.032-.01a.773.773 0 01.114-.023h23.538a.778.778 0 01.108.022l.032.01.033-.006a.82.82 0 01.919.568 6.013 6.013 0 004.06 4.064c.391.12.634.509.569.912l-.005.034.01.032c.01.037.018.074.023.112v7.834a.829.829 0 01-.024.115l-.008.031.005.032a.819.819 0 01-.569.913 6.018 6.018 0 00-4.063 4.063h0l-.002.012h0m-24.766.55l24.765-.55m0 0v.001h0zM5.833 29.085l-.094.038v7.258l.094.038a7.647 7.647 0 014.241 4.242l.038.094h22.962l.038-.094a7.647 7.647 0 014.241-4.242l.094-.038v-7.258l-.094-.037a7.64 7.64 0 01-4.242-4.242l-.038-.094H10.112l-.038.094a7.639 7.639 0 01-4.24 4.242z" fill="#4351D8" stroke="#fff" stroke-width=".3"/><path d="M27.332 32.751a5.74 5.74 0 11-11.478 0 5.74 5.74 0 0111.478 0zm-1.663 0a4.076 4.076 0 10-8.152 0 4.076 4.076 0 008.152 0z" fill="#4351D8" stroke="#fff" stroke-width=".3"/><path d="M12.219 32.751a1.422 1.422 0 11-2.845 0 1.422 1.422 0 012.845 0zm-.882 0a.54.54 0 10-1.081 0 .54.54 0 001.081 0zm22.475 0a1.422 1.422 0 11-2.844 0 1.422 1.422 0 012.844 0zm-.881 0a.54.54 0 10-1.082 0 .54.54 0 001.082 0z" fill="#4351D8" stroke="#fff" stroke-width=".1"/></svg>