<svg width="65" height="65" fill="none" xmlns="http://www.w3.org/2000/svg"><g clip-path="url(#clip0)" fill="#4351D8" stroke="#fff" stroke-width=".5"><path d="M56.408 20.952l2.29-8.174 3.173.888-2.004 7.151-.089.318h2.336l2.609 25.38a5.24 5.24 0 01-1.32 4.04 5.24 5.24 0 01-3.883 1.726H5.48a5.24 5.24 0 01-3.883-1.727 5.24 5.24 0 01-1.32-4.039L.03 46.49l.248.025 2.61-25.38h53.47l.051-.183zm4.219 20.188l.228-.042-.024-.23-1.665-16.202v-.238H5.859l-.023.225-1.668 16.222-.023.23.226.042c3.702.687 6.563 3.793 6.877 7.61l.019.23h42.426l.019-.23c.315-3.83 3.195-6.945 6.915-7.617zM4.088 44.453l-.28-.07-.03.287-.224 2.182a1.917 1.917 0 00.489 1.496c.371.411.883.639 1.437.639h2.492l-.043-.287a5.173 5.173 0 00-3.84-4.247zM57.03 48.7l-.042.287h2.532c.554 0 1.066-.228 1.437-.64.372-.41.546-.944.49-1.495l-.226-2.191-.03-.286-.278.068A5.173 5.173 0 0057.03 48.7z"/><path d="M48.389 38.956h-.25v3.355h-3.294v-3.355h-30.27v-3.294h35.85v3.294H48.39z"/></g><defs><clipPath id="clip0"><path fill="#fff" d="M0 0h65v65H0z"/></clipPath></defs></svg>