<svg width="65" height="65" fill="none" xmlns="http://www.w3.org/2000/svg"><g clip-path="url(#clip0)" fill="#4351D8"><path d="M64.088 32.303l-3.75-16.88a5.831 5.831 0 00-5.724-4.59 5.87 5.87 0 00-5.864 5.863v.908a1.353 1.353 0 102.708 0v-.908a3.158 3.158 0 013.156-3.154 3.136 3.136 0 013.078 2.47l3.75 16.878a35.79 35.79 0 01.823 6.38h-.11c-.69-6.823-6.402-12.187-13.405-12.187-6.123 0-11.25 4.112-12.919 9.7-.828-.874-1.92-1.575-3.331-1.575-1.41 0-2.503.7-3.331 1.574-1.67-5.587-6.796-9.699-12.919-9.699-7.003 0-12.714 5.364-13.405 12.188h-.11c.082-2.144.357-4.284.822-6.38l3.75-16.878a3.136 3.136 0 013.08-2.471 3.158 3.158 0 013.155 3.154v.908a1.353 1.353 0 102.708 0v-.908a5.87 5.87 0 00-5.864-5.863 5.831 5.831 0 00-5.723 4.592L.913 32.303A38.513 38.513 0 000 40.625c0 .748.606 1.354 1.354 1.354h1.491c.691 6.824 6.402 12.188 13.405 12.188 7.351 0 13.324-5.897 13.508-13.205.272-.757 1.354-3.045 2.742-3.045 1.353 0 2.421 2.16 2.742 3.041.182 7.31 6.156 13.209 13.508 13.209 7.003 0 12.714-5.364 13.405-12.188h1.491c.749 0 1.354-.605 1.354-1.354 0-2.79-.307-5.59-.912-8.322zM16.25 51.458c-5.975 0-10.833-4.86-10.833-10.833s4.858-10.833 10.833-10.833c5.975 0 10.833 4.86 10.833 10.833S22.225 51.458 16.25 51.458zm32.5 0c-5.975 0-10.833-4.86-10.833-10.833s4.858-10.833 10.833-10.833c5.975 0 10.833 4.86 10.833 10.833S54.725 51.458 48.75 51.458z"/><path d="M16.25 32.5c-4.48 0-8.125 3.645-8.125 8.125a1.353 1.353 0 102.708 0 5.423 5.423 0 015.417-5.417 1.353 1.353 0 100-2.708zm32.5 0c-4.48 0-8.125 3.645-8.125 8.125a1.353 1.353 0 102.708 0 5.423 5.423 0 015.417-5.417 1.353 1.353 0 100-2.708z"/></g><defs><clipPath id="clip0"><path fill="#fff" d="M0 0h65v65H0z"/></clipPath></defs></svg>