<svg width="65" height="65" fill="none" xmlns="http://www.w3.org/2000/svg"><g clip-path="url(#clip0)" fill="#4351D8"><path d="M64.044 25.83h-3.177a.953.953 0 00-.281.042 10.154 10.154 0 00-8.93-5.308h-38.57a10.154 10.154 0 00-8.907 5.268l-.046-.002H.956a.956.956 0 100 1.91H3.37a10.157 10.157 0 00-.332 4.523l.422 2.76a.956.956 0 001.889-.289l-.422-2.76a8.244 8.244 0 011.898-6.623 8.244 8.244 0 016.26-2.876h7.406a6.85 6.85 0 015.008 2.185 6.818 6.818 0 011.769 3.746c0 .064.008.128.021.192a6.812 6.812 0 01-1.382 4.87L21.7 38.94a9.189 9.189 0 01-10.152 3.124 9.202 9.202 0 01-4.902-3.84.956.956 0 00-1.618 1.016 11.116 11.116 0 005.921 4.639 11.105 11.105 0 0012.266-3.774l4.207-5.473a8.72 8.72 0 001.8-5.848c1.821-1.47 4.527-1.372 6.23.295.017.017.035.032.053.048a8.722 8.722 0 001.815 5.505l1.856 2.415a.955.955 0 101.515-1.165l-1.856-2.415a6.812 6.812 0 01.408-8.808 6.852 6.852 0 015.008-2.185h7.405a8.245 8.245 0 016.261 2.876 8.245 8.245 0 011.898 6.623l-.422 2.76a9.137 9.137 0 01-6.199 7.33 9.19 9.19 0 01-10.152-3.123.955.955 0 10-1.515 1.165 11.103 11.103 0 0012.266 3.773 11.039 11.039 0 007.49-8.857l.42-2.76a10.157 10.157 0 00-.331-4.521h2.672a.955.955 0 100-1.912zm-26.202-2.47a8.74 8.74 0 00-2.01 3.577 6.558 6.558 0 00-3.66-1.108 6.565 6.565 0 00-3.323.896 8.746 8.746 0 00-2.905-4.25h12.855c-.34.27-.66.565-.957.885z"/><path d="M13.41 28.806l-2.104 2.102a.955.955 0 101.352 1.352l2.103-2.103a.955.955 0 10-1.352-1.351zm-1.594 9.657a.953.953 0 001.352 0l9.092-9.092a.956.956 0 10-1.352-1.351l-9.092 9.092a.956.956 0 000 1.351zm42.73-5.923a.955.955 0 00.676-1.631l-2.102-2.103a.955.955 0 10-1.352 1.351l2.103 2.103c.186.186.43.28.675.28zM44.27 28.02a.956.956 0 000 1.351l9.09 9.092a.953.953 0 001.352 0 .955.955 0 000-1.351l-9.091-9.092a.956.956 0 00-1.352 0z"/></g><defs><clipPath id="clip0"><path fill="#fff" d="M0 0h65v65H0z"/></clipPath></defs></svg>