<svg width="29" height="28" fill="none" xmlns="http://www.w3.org/2000/svg"><path d="M14.52 9.331A4.679 4.679 0 009.85 14a4.679 4.679 0 004.669 4.669A4.679 4.679 0 0019.188 14a4.679 4.679 0 00-4.668-4.669zM28.522 14c0-1.933.018-3.85-.09-5.779-.11-2.241-.62-4.23-2.26-5.87C24.53.71 22.544.201 20.302.092 18.37-.016 16.453.001 14.523.001c-1.933 0-3.849-.017-5.779.091-2.241.109-4.23.62-5.87 2.26C1.232 3.993.724 5.98.615 8.221.507 10.153.525 12.07.525 14c0 1.93-.018 3.85.09 5.779.109 2.241.62 4.23 2.26 5.87 1.642 1.642 3.628 2.15 5.87 2.259 1.933.108 3.848.091 5.778.091 1.933 0 3.85.018 5.78-.091 2.24-.109 4.23-.62 5.87-2.26 1.642-1.642 2.15-3.628 2.258-5.87.112-1.929.091-3.845.091-5.778zM14.52 21.183A7.173 7.173 0 017.336 14a7.173 7.173 0 017.184-7.183A7.173 7.173 0 0121.703 14a7.173 7.173 0 01-7.183 7.183zM21.997 8.2c-.928 0-1.677-.75-1.677-1.678 0-.928.75-1.677 1.677-1.677a1.676 1.676 0 011.55 2.32 1.674 1.674 0 01-1.55 1.035z" fill="#3E425B"/></svg>