<svg width="76" height="13" fill="none" xmlns="http://www.w3.org/2000/svg"><path fill-rule="evenodd" clip-rule="evenodd" d="M4.729.058c0 .032-.15.058-.338.058-.188 0-.338.026-.338.058s-.076.058-.169.058c-.092 0-.168.026-.168.058s-.076.058-.17.058c-.092 0-.168.026-.168.058s-.05.058-.113.058c-.062 0-.112.026-.112.058s-.076.058-.17.058c-.092 0-.168.026-.168.058s-.04.058-.09.058c-.05 0-.161.079-.248.175-.087.095-.186.174-.22.174-.088 0-1.244 1.2-1.244 1.292 0 .041-.05.113-.112.159s-.113.13-.113.186c0 .057-.025.104-.056.104s-.056.052-.056.116-.026.116-.057.116c-.03 0-.056.052-.056.116s-.025.116-.056.116-.057.052-.057.116-.025.116-.056.116c-.03 0-.056.078-.056.174 0 .096-.026.174-.057.174-.03 0-.056.105-.056.232 0 .128-.025.233-.056.233-.032 0-.056.174-.056.406 0 .232-.025.406-.057.406-.033 0-.056.232-.056.58 0 .349.023.58.056.58.032 0 .057.175.057.407 0 .232.024.406.056.406.03 0 .056.105.056.232 0 .128.026.233.056.233.031 0 .057.078.057.174 0 .096.025.174.056.174s.056.078.056.174c0 .096.026.174.057.174.03 0 .056.052.056.116s.025.116.056.116.057.047.057.103c0 .057.05.141.112.187.062.046.113.125.113.175 0 .05.05.128.112.174.062.046.113.117.113.159 0 .091.705.827.793.827.034 0 .134.079.22.174.087.096.193.174.236.174.042 0 .114.053.158.117.045.063.127.116.182.116.055 0 .1.026.1.058 0 .031.076.058.169.058.093 0 .169.026.169.058s.05.058.112.058.113.026.113.058.076.058.169.058c.093 0 .169.026.169.058s.126.058.281.058c.155 0 .282.026.282.058 0 .037.412.058 1.125.058.714 0 1.126-.021 1.126-.058 0-.032.127-.058.282-.058.155 0 .281-.026.281-.058s.076-.058.17-.058c.092 0 .168-.026.168-.058s.076-.058.169-.058c.093 0 .169-.026.169-.058s.05-.058.112-.058.113-.027.113-.058c0-.032.05-.058.113-.058.062 0 .112-.027.112-.059 0-.031.045-.057.1-.057.056 0 .137-.053.182-.117.044-.063.115-.116.157-.116.042 0 .174-.104.293-.232.12-.127.245-.232.28-.232.082 0 .34-.266.34-.351 0-.037.078-.142.173-.234l.174-.167-.286-.288c-.158-.158-.287-.328-.287-.378 0-.052-.048-.09-.112-.09s-.113-.04-.113-.09c0-.1-.471-.607-.565-.607-.033 0-.21.156-.392.348-.182.191-.365.348-.407.348-.041 0-.111.052-.156.116s-.126.116-.181.116c-.055 0-.1.026-.1.058s-.076.058-.17.058c-.092 0-.168.026-.168.058s-.076.058-.17.058c-.092 0-.168.027-.168.058 0 .032-.101.059-.225.059s-.225.026-.225.058c0 .033-.188.058-.45.058-.264 0-.451-.025-.451-.058s-.15-.059-.338-.059c-.188 0-.338-.025-.338-.058 0-.031-.076-.058-.169-.058-.092 0-.168-.026-.168-.058s-.051-.058-.113-.058c-.062 0-.113-.026-.113-.058s-.05-.058-.112-.058-.113-.026-.113-.058-.038-.058-.085-.058c-.112 0-.816-.725-.816-.84 0-.049-.025-.088-.056-.088-.03 0-.056-.053-.056-.116 0-.064-.026-.117-.056-.117-.031 0-.057-.052-.057-.116 0-.063-.025-.116-.056-.116s-.056-.078-.056-.174c0-.096-.026-.174-.057-.174-.03 0-.056-.104-.056-.232s-.025-.232-.056-.232c-.034 0-.057-.232-.057-.58 0-.349.023-.58.057-.58.03 0 .056-.131.056-.291 0-.16.025-.29.056-.29s.057-.079.057-.174c0-.096.025-.174.056-.174.03 0 .056-.053.056-.117 0-.063.026-.116.057-.116.03 0 .056-.046.056-.103 0-.057.05-.14.112-.187.062-.046.113-.118.113-.16 0-.095.252-.362.34-.362.036 0 .136-.078.223-.174.087-.096.198-.174.248-.174.05 0 .09-.026.09-.058s.05-.058.112-.058.113-.026.113-.058.05-.058.113-.058c.061 0 .112-.027.112-.058 0-.032.101-.058.225-.058s.225-.027.225-.059c0-.035.282-.058.732-.058s.732.023.732.058c0 .032.102.058.225.058.124 0 .226.027.226.059 0 .031.05.058.112.058s.113.026.113.058.07.058.156.058c.092 0 .19.048.238.116.044.064.115.116.157.116.041 0 .205.137.363.304.168.178.297.274.31.232.013-.04.06-.072.106-.072.045 0 .282-.209.528-.464.245-.256.473-.465.506-.465.093 0 .338-.272.338-.374 0-.05-.025-.09-.056-.09s-.057-.04-.057-.088c0-.107-.7-.84-.802-.84-.04 0-.11-.053-.155-.116C8.57.865 8.487.812 8.432.812c-.055 0-.1-.026-.1-.058 0-.031-.05-.058-.113-.058-.062 0-.112-.026-.112-.058S8.056.58 7.994.58c-.062 0-.113-.026-.113-.058S7.805.464 7.713.464c-.093 0-.17-.026-.17-.058s-.05-.058-.112-.058S7.32.322 7.32.29 7.217.232 7.093.232c-.124 0-.225-.026-.225-.058S6.718.116 6.53.116c-.187 0-.337-.026-.337-.058C6.193.022 5.91 0 5.46 0s-.732.022-.732.058zm20.942 0c0 .032-.15.058-.338.058-.187 0-.337.026-.337.058s-.076.058-.17.058c-.092 0-.168.026-.168.058s-.076.058-.17.058c-.092 0-.168.026-.168.058s-.05.058-.113.058c-.062 0-.112.026-.112.058s-.05.058-.113.058c-.062 0-.112.026-.112.058s-.051.058-.113.058c-.062 0-.113.027-.113.058 0 .032-.045.058-.1.058-.055 0-.136.053-.181.117-.045.063-.114.116-.154.116-.095 0-1.253 1.194-1.253 1.292 0 .041-.051.113-.113.159-.062.046-.113.124-.113.174 0 .05-.05.128-.112.174-.062.046-.113.13-.113.187 0 .056-.025.103-.056.103s-.056.078-.056.174c0 .096-.026.174-.057.174-.03 0-.056.052-.056.116s-.025.116-.056.116-.057.079-.057.174c0 .096-.025.175-.056.175-.03 0-.056.13-.056.29 0 .16-.026.29-.056.29-.036 0-.057.387-.057 1.045 0 .657.021 1.044.056 1.044.031 0 .057.105.057.232 0 .128.025.232.056.232s.056.105.056.233c0 .127.026.232.057.232.03 0 .056.052.056.116s.025.116.056.116.057.052.057.116.025.116.056.116c.03 0 .056.052.056.116s.026.116.056.116c.031 0 .057.052.057.116s.025.116.056.116.056.041.056.092c0 .05.102.192.226.315.123.122.225.251.225.286 0 .084.598.7.678.7.035 0 .16.105.279.232.119.128.256.232.305.232.049 0 .089.027.089.059 0 .031.05.057.112.057s.113.027.113.059c0 .031.05.058.113.058.062 0 .112.026.112.058 0 .031.05.058.113.058.062 0 .112.026.112.058s.051.058.113.058c.062 0 .113.026.113.058s.076.058.169.058c.092 0 .168.026.168.058s.127.058.282.058c.155 0 .281.026.281.058 0 .037.394.058 1.07.058.675 0 1.07-.021 1.07-.058 0-.032.1-.058.225-.058.124 0 .225-.026.225-.058s.076-.058.169-.058c.093 0 .169-.026.169-.058s.05-.058.112-.058.113-.026.113-.058.07-.058.156-.058c.092 0 .19-.048.238-.116.045-.064.126-.117.181-.117.055 0 .1-.026.1-.057 0-.033.046-.059.1-.059.056 0 .137-.052.182-.116.045-.063.114-.116.154-.116.095 0 1.14-1.078 1.14-1.176 0-.041.051-.113.113-.159.062-.046.113-.13.113-.186 0-.057.025-.104.056-.104s.057-.046.057-.103c0-.057.05-.14.112-.187a.32.32 0 00.113-.245c0-.089.025-.161.056-.161s.056-.052.056-.116.026-.116.057-.116c.03 0 .056-.079.056-.174 0-.096.025-.175.056-.175s.056-.13.056-.29c0-.16.026-.29.057-.29.035 0 .056-.406.056-1.103 0-.696-.02-1.102-.056-1.102-.031 0-.056-.105-.056-.232 0-.128-.026-.232-.057-.232-.03 0-.056-.079-.056-.175 0-.095-.025-.174-.056-.174s-.057-.078-.057-.174c0-.096-.025-.174-.056-.174-.03 0-.056-.052-.056-.116s-.026-.116-.057-.116c-.03 0-.056-.052-.056-.116s-.025-.116-.056-.116-.056-.047-.056-.103c0-.057-.051-.141-.113-.187-.062-.046-.113-.12-.113-.164 0-.044-.076-.153-.169-.243-.092-.09-.168-.192-.168-.227 0-.085-.598-.701-.68-.701-.035 0-.134-.079-.221-.174-.087-.096-.193-.174-.235-.174-.043 0-.115-.053-.16-.117-.044-.063-.125-.116-.18-.116-.056 0-.1-.026-.1-.058S28.885.58 28.823.58c-.062 0-.113-.026-.113-.058s-.076-.058-.169-.058c-.093 0-.169-.026-.169-.058s-.05-.058-.112-.058-.113-.026-.113-.058-.101-.058-.225-.058-.225-.026-.225-.058-.15-.058-.338-.058c-.188 0-.338-.026-.338-.058 0-.035-.262-.058-.675-.058-.413 0-.676.023-.676.058zm21.956 0c0 .032-.15.058-.338.058-.188 0-.338.026-.338.058s-.076.058-.169.058c-.093 0-.169.026-.169.058s-.076.058-.169.058c-.092 0-.168.026-.168.058s-.051.058-.113.058c-.062 0-.113.026-.113.058S46 .58 45.938.58s-.113.026-.113.058-.05.058-.112.058-.113.027-.113.058c0 .032-.045.058-.1.058-.055 0-.137.053-.181.117-.045.063-.114.116-.154.116-.089 0-1.141 1.075-1.141 1.165 0 .036-.076.138-.17.228-.092.089-.168.204-.168.255 0 .051-.025.093-.056.093s-.057.052-.057.116-.025.116-.056.116c-.03 0-.056.052-.056.116s-.026.116-.057.116c-.03 0-.056.052-.056.116s-.025.116-.056.116-.056.078-.056.174c0 .096-.026.174-.057.174-.03 0-.056.079-.056.174 0 .096-.025.175-.056.175s-.057.13-.057.29c0 .16-.025.29-.056.29-.035 0-.056.329-.056.87 0 .542.021.871.056.871.031 0 .056.155.056.348 0 .194.025.348.057.348.03 0 .056.079.056.175 0 .095.025.174.056.174s.057.078.057.174c0 .096.025.174.056.174.03 0 .056.052.056.116s.026.116.056.116c.031 0 .057.052.057.116s.025.116.056.116.056.047.056.103c0 .057.051.141.113.187.062.046.112.12.112.164 0 .044.076.153.17.243.092.089.168.204.168.255 0 .054.047.093.113.093.063 0 .112.038.112.089 0 .102.36.491.455.491.035 0 .134.079.221.174.087.096.193.174.235.174.043 0 .114.053.16.116.044.064.125.117.18.117.055 0 .1.026.1.057 0 .033.051.059.113.059.062 0 .113.026.113.058 0 .031.05.058.112.058s.113.026.113.058.05.058.113.058c.061 0 .112.026.112.058s.076.058.169.058c.093 0 .169.026.169.058s.127.058.281.058c.155 0 .282.026.282.058 0 .037.394.058 1.07.058.675 0 1.07-.021 1.07-.058 0-.032.1-.058.224-.058s.226-.026.226-.058.076-.058.168-.058c.093 0 .17-.026.17-.058s.05-.058.112-.058.112-.026.112-.058.076-.058.17-.058c.092 0 .168-.027.168-.058 0-.032.05-.058.113-.058.062 0 .112-.027.112-.059 0-.031.04-.057.09-.057.05 0 .161-.079.248-.175.087-.095.186-.174.22-.174.088 0 1.244-1.2 1.244-1.292 0-.041.05-.113.113-.159.061-.046.112-.13.112-.187 0-.056.025-.103.056-.103s.057-.052.057-.116.025-.116.056-.116.056-.052.056-.116.026-.116.057-.116c.03 0 .056-.078.056-.174 0-.096.025-.174.056-.174s.056-.079.056-.174c0-.096.026-.175.057-.175.03 0 .056-.104.056-.232 0-.127.025-.232.056-.232.036 0 .057-.425.057-1.16 0-.736-.021-1.161-.057-1.161-.03 0-.056-.13-.056-.29 0-.16-.025-.29-.056-.29s-.056-.079-.056-.175c0-.095-.026-.174-.057-.174-.03 0-.056-.052-.056-.116s-.025-.116-.056-.116-.057-.052-.057-.116-.025-.116-.056-.116-.056-.052-.056-.116-.026-.116-.057-.116c-.03 0-.056-.052-.056-.116s-.025-.116-.056-.116-.056-.042-.056-.093-.076-.166-.17-.256c-.092-.089-.168-.191-.168-.227 0-.09-.827-.933-.916-.933-.04 0-.11-.053-.154-.116-.044-.064-.12-.116-.169-.116-.048 0-.124-.053-.169-.117-.044-.063-.126-.116-.181-.116-.055 0-.1-.026-.1-.058s-.05-.058-.113-.058c-.062 0-.112-.026-.112-.058s-.051-.058-.113-.058c-.062 0-.113-.026-.113-.058s-.076-.058-.168-.058c-.093 0-.17-.026-.17-.058s-.1-.058-.224-.058-.226-.026-.226-.058-.126-.058-.281-.058c-.155 0-.282-.026-.282-.058 0-.036-.281-.058-.732-.058-.45 0-.731.022-.731.058zm-36.48 5.63v5.455h2.646c1.726 0 2.646-.02 2.646-.058 0-.033.168-.058.394-.058.225 0 .394-.025.394-.058 0-.032.101-.058.225-.058s.225-.026.225-.058.076-.058.169-.058c.093 0 .169-.027.169-.058 0-.032.05-.058.112-.058s.113-.027.113-.059c0-.031.045-.057.1-.057.055 0 .137-.053.181-.117.045-.063.114-.116.155-.116.102 0 .803-.733.803-.84 0-.049.025-.088.056-.088.03 0 .056-.079.056-.174 0-.096.025-.174.056-.174s.057-.079.057-.175c0-.095.025-.174.056-.174.035 0 .056-.31.056-.812 0-.503-.021-.813-.056-.813-.031 0-.056-.104-.056-.232 0-.127-.026-.232-.057-.232-.03 0-.056-.052-.056-.116s-.025-.116-.056-.116-.056-.04-.056-.088c0-.1-.697-.84-.792-.84-.033 0-.099-.04-.145-.088-.075-.077-.053-.119.2-.373.158-.158.286-.327.286-.377 0-.05.026-.091.056-.091.031 0 .057-.052.057-.116s.025-.116.056-.116.056-.053.056-.116c0-.064.026-.117.057-.117.03 0 .056-.078.056-.174 0-.095.025-.174.056-.174.035 0 .056-.27.056-.696 0-.426-.021-.697-.056-.697-.03 0-.056-.104-.056-.232 0-.127-.025-.232-.056-.232s-.057-.052-.057-.116-.025-.116-.056-.116c-.03 0-.056-.04-.056-.089 0-.108-.475-.607-.577-.607-.04 0-.11-.053-.155-.117-.045-.063-.126-.116-.181-.116-.056 0-.1-.026-.1-.058S18.076.58 18.014.58c-.062 0-.113-.026-.113-.058s-.076-.058-.169-.058c-.093 0-.169-.026-.169-.058s-.126-.058-.281-.058C17.127.348 17 .322 17 .29c0-.038-1.013-.058-2.927-.058h-2.927v5.455zm22.18 0v5.455h2.477c1.614 0 2.477-.02 2.477-.058 0-.034.188-.058.45-.058.264 0 .451-.024.451-.058 0-.032.102-.058.225-.058.124 0 .226-.026.226-.058s.076-.058.168-.058c.093 0 .17-.027.17-.058 0-.032.05-.058.112-.058s.113-.027.113-.059c0-.031.05-.057.112-.057s.113-.027.113-.059c0-.031.04-.058.089-.058.049 0 .186-.104.305-.232.119-.127.245-.232.28-.232.09 0 .227-.148.227-.244 0-.043.05-.116.112-.162s.113-.13.113-.187c0-.057.025-.103.056-.103.03 0 .056-.079.056-.174 0-.096.026-.175.057-.175.03 0 .056-.078.056-.174 0-.095.025-.174.056-.174.035 0 .056-.367.056-.986 0-.62-.02-.987-.056-.987-.03 0-.056-.104-.056-.232s-.026-.232-.056-.232c-.031 0-.057-.052-.057-.116s-.025-.116-.056-.116-.056-.042-.056-.093-.076-.166-.17-.256c-.092-.089-.168-.193-.168-.23 0-.088-.142-.234-.227-.234-.036 0-.137-.078-.224-.174-.086-.096-.198-.174-.247-.174-.05 0-.09-.026-.09-.058s-.05-.058-.113-.058c-.062 0-.112-.026-.112-.058s-.076-.058-.17-.058c-.092 0-.168-.026-.168-.058s-.127-.058-.282-.058c-.154 0-.281-.026-.281-.058 0-.038-.657-.058-1.858-.058h-1.858v-.87c0-.543-.021-.871-.056-.871a.057.057 0 01-.056-.058c0-.038.994-.058 2.87-.058h2.872V.232h-7.882v5.455zM55.96 2.204c0 1.277-.02 1.974-.057 1.974-.034 0-.056.232-.056.58s-.023.58-.056.58c-.032 0-.057.174-.057.407 0 .232-.024.406-.056.406-.03 0-.056.13-.056.29 0 .16-.026.29-.057.29-.03 0-.056.105-.056.232 0 .128-.025.232-.056.232s-.056.105-.056.233c0 .127-.026.232-.057.232-.03 0-.056.078-.056.174 0 .096-.025.174-.056.174s-.057.078-.057.174c0 .096-.025.174-.056.174-.03 0-.056.052-.056.116s-.026.116-.056.116c-.032 0-.057.041-.057.091 0 .204-.145.258-.7.258h-.538v1.948c0 1.611.014 1.963.08 2.031.064.066.287.083 1.07.083h.989v-1.856h3.49c2.29 0 3.49.02 3.49.058a.057.057 0 01-.056.058c-.087 0-.073 1.143.014 1.185.057.027.057.04 0 .067-.095.046-.089.304.01.406.064.066.288.083 1.07.083h.99V8.938h-.54c-.391 0-.56-.023-.619-.083-.068-.07-.08-.73-.08-4.353V.232H55.96v1.973zM69.653.32a.413.413 0 00-.07.23c0 .081-.026.147-.057.147-.031 0-.056.053-.056.117 0 .063-.026.116-.057.116-.03 0-.056.052-.056.116 0 .063-.025.116-.056.116s-.057.052-.057.116-.025.116-.056.116c-.03 0-.056.078-.056.174 0 .096-.026.174-.056.174-.031 0-.057.052-.057.116s-.025.116-.056.116-.056.052-.056.116-.026.116-.057.116c-.03 0-.056.053-.056.116 0 .064-.025.116-.056.116s-.056.079-.056.175c0 .095-.026.174-.057.174-.03 0-.056.052-.056.116s-.025.116-.056.116-.057.052-.057.116-.025.116-.056.116-.056.078-.056.174c0 .096-.026.174-.057.174-.03 0-.056.052-.056.116s-.025.116-.056.116-.056.053-.056.116c0 .064-.026.116-.057.116-.03 0-.056.053-.056.117 0 .063-.025.116-.056.116s-.057.078-.057.174c0 .096-.025.174-.056.174-.03 0-.056.052-.056.116s-.026.116-.057.116c-.03 0-.056.052-.056.116s-.025.116-.056.116-.056.078-.056.174c0 .096-.026.174-.057.174-.03 0-.056.053-.056.116 0 .064-.025.117-.056.117s-.057.052-.057.116c0 .063-.025.116-.056.116-.03 0-.056.052-.056.116s-.026.116-.056.116c-.032 0-.057.052-.057.116s-.025.116-.056.116-.056.078-.056.174c0 .096-.026.174-.057.174-.03 0-.056.052-.056.116s-.025.116-.056.116-.057.053-.057.116c0 .064-.025.116-.056.116-.03 0-.056.079-.056.175 0 .095-.026.174-.056.174-.031 0-.057.052-.057.116s-.025.116-.056.116-.056.052-.056.116-.026.116-.057.116c-.03 0-.056.078-.056.174 0 .096-.025.174-.056.174s-.057.052-.057.116-.025.116-.056.116c-.03 0-.056.053-.056.116 0 .064-.025.116-.056.116s-.057.053-.057.117c0 .063-.025.116-.056.116s-.056.078-.056.174c0 .095-.026.174-.057.174-.03 0-.056.052-.056.116s-.025.116-.056.116-.056.052-.056.116-.026.116-.057.116c-.03 0-.056.078-.056.174 0 .096-.025.174-.056.174s-.057.053-.057.116c0 .064-.025.116-.056.116s-.056.053-.056.117c0 .063-.026.116-.057.116-.03 0-.056.052-.056.116 0 .063-.025.116-.056.116s-.056.052-.056.116c0 .112.037.116 1.182.116h1.182v-.174c0-.096.025-.174.056-.174s.057-.053.057-.116c0-.064.025-.117.056-.117.03 0 .056-.052.056-.116 0-.063.025-.116.056-.116s.057-.052.057-.116.025-.116.056-.116.056-.078.056-.174c0-.096.026-.174.057-.174.03 0 .056-.052.056-.116s.025-.116.056-.116.056-.052.056-.116.026-.116.057-.116c.03 0 .056-.053.056-.116 0-.115.038-.116 2.308-.116h2.308v.174c0 .095.026.174.057.174.03 0 .056.052.056.116s.025.116.056.116.057.052.057.116.025.116.056.116c.03 0 .056.052.056.116s.025.116.056.116.057.073.057.161a.32.32 0 00.112.245.32.32 0 01.113.245c0 .09.025.162.056.162s.057.052.057.116c0 .112.037.116 1.182.116 1.144 0 1.182-.004 1.182-.116 0-.064-.025-.116-.056-.116s-.057-.053-.057-.116c0-.064-.025-.116-.056-.116-.03 0-.056-.053-.056-.117 0-.063-.026-.116-.056-.116-.031 0-.057-.052-.057-.116 0-.063-.025-.116-.056-.116s-.056-.078-.056-.174c0-.096-.026-.174-.057-.174-.03 0-.056-.052-.056-.116s-.025-.116-.056-.116-.057-.052-.057-.116-.025-.116-.056-.116c-.03 0-.056-.079-.056-.174 0-.096-.026-.174-.056-.174-.031 0-.057-.053-.057-.117 0-.063-.025-.116-.056-.116s-.056-.052-.056-.116c0-.063-.026-.116-.057-.116-.03 0-.056-.052-.056-.116s-.025-.116-.056-.116-.056-.078-.056-.174c0-.096-.026-.174-.057-.174-.03 0-.056-.052-.056-.116s-.025-.116-.056-.116-.057-.052-.057-.116-.025-.116-.056-.116-.056-.053-.056-.116c0-.064-.026-.117-.057-.117-.03 0-.056-.078-.056-.174 0-.095-.025-.174-.056-.174s-.056-.052-.056-.116-.026-.116-.057-.116c-.03 0-.056-.052-.056-.116S74.06 6.5 74.03 6.5s-.057-.078-.057-.174c0-.096-.025-.174-.056-.174-.03 0-.056-.052-.056-.116s-.026-.116-.057-.116c-.03 0-.056-.053-.056-.116 0-.064-.025-.117-.056-.117s-.056-.052-.056-.116c0-.063-.026-.116-.057-.116-.03 0-.056-.078-.056-.174 0-.096-.025-.174-.056-.174s-.057-.052-.057-.116-.025-.116-.056-.116c-.03 0-.056-.052-.056-.116s-.026-.116-.056-.116c-.032 0-.057-.078-.057-.174 0-.096-.025-.174-.056-.174s-.056-.053-.056-.116c0-.064-.026-.117-.057-.117-.03 0-.056-.052-.056-.116 0-.063-.025-.116-.056-.116s-.057-.052-.057-.116-.025-.116-.056-.116c-.03 0-.056-.078-.056-.174 0-.096-.025-.174-.056-.174s-.057-.052-.057-.116-.025-.116-.056-.116-.056-.052-.056-.116-.026-.116-.057-.116c-.03 0-.056-.079-.056-.174 0-.096-.025-.175-.056-.175s-.057-.052-.057-.116c0-.063-.025-.116-.056-.116-.03 0-.056-.052-.056-.116s-.025-.116-.056-.116-.057-.078-.057-.174c0-.096-.025-.174-.056-.174s-.056-.052-.056-.116-.026-.116-.057-.116c-.03 0-.056-.052-.056-.116s-.025-.116-.056-.116-.056-.053-.056-.116c0-.064-.026-.116-.057-.116-.03 0-.056-.079-.056-.175 0-.095-.025-.174-.056-.174s-.057-.04-.057-.09c0-.223-.131-.258-.967-.256-.624.002-.822.021-.876.085zm-42.63 2.06c0 .032.1.058.224.058s.226.027.226.059c0 .031.05.058.112.058s.113.026.113.058.045.058.1.058c.055 0 .137.052.181.116.045.064.114.116.155.116.102 0 .802.733.802.84 0 .049.026.088.057.088.03 0 .056.053.056.116 0 .064.025.116.056.116s.056.053.056.117c0 .063.026.116.057.116.03 0 .056.078.056.174 0 .096.025.174.056.174.033 0 .057.192.057.46 0 .31.022.47.07.493.056.027.056.04 0 .067-.048.023-.07.183-.07.494 0 .267-.024.46-.057.46-.03 0-.056.077-.056.173 0 .096-.025.174-.056.174s-.056.073-.056.162a.32.32 0 01-.113.245.308.308 0 00-.113.217c0 .144-.56.77-.69.77-.04 0-.11.051-.154.115-.045.064-.126.116-.181.116-.056 0-.1.026-.1.058s-.051.058-.113.058c-.062 0-.113.026-.113.058s-.076.058-.169.058c-.093 0-.169.027-.169.058 0 .032-.126.059-.281.059-.155 0-.282.026-.282.058s-.15.058-.337.058c-.188 0-.338-.026-.338-.058s-.127-.059-.282-.059c-.154 0-.281-.026-.281-.058 0-.031-.076-.058-.169-.058-.093 0-.169-.026-.169-.058s-.05-.058-.112-.058-.113-.026-.113-.058-.038-.058-.085-.058c-.111 0-1.041-.958-1.041-1.073 0-.048-.025-.087-.056-.087s-.057-.053-.057-.117c0-.063-.025-.116-.056-.116-.03 0-.056-.052-.056-.116 0-.063-.026-.116-.056-.116-.031 0-.057-.078-.057-.174 0-.096-.025-.174-.056-.174-.035 0-.056-.348-.056-.928 0-.58.02-.93.056-.93.03 0 .056-.077.056-.173 0-.096.026-.174.057-.174.03 0 .056-.079.056-.174 0-.096.025-.175.056-.175s.056-.052.056-.116c0-.063.026-.116.057-.116.03 0 .056-.04.056-.088 0-.107.7-.84.803-.84.04 0 .11-.052.154-.116.045-.064.126-.116.181-.116.056 0 .1-.026.1-.058s.051-.058.113-.058c.062 0 .113-.027.113-.058 0-.032.101-.058.225-.058s.225-.027.225-.059c0-.035.263-.058.676-.058.412 0 .675.023.675.058zm21.955 0c0 .032.101.058.225.058s.225.027.225.059c0 .031.05.058.113.058.062 0 .112.026.112.058s.045.058.1.058c.056 0 .137.052.182.116.044.064.114.116.154.116.095 0 .803.73.803.827 0 .042.05.113.112.16a.32.32 0 01.113.244c0 .089.025.162.056.162s.057.078.057.174c0 .096.025.174.056.174s.056.155.056.348c0 .194.025.348.056.348.032 0 .057.155.057.348 0 .194-.025.349-.056.349-.032 0-.057.155-.057.348 0 .193-.025.348-.056.348s-.056.078-.056.174c0 .096-.026.174-.057.174-.03 0-.056.053-.056.116 0 .064-.025.117-.056.117s-.057.052-.057.116c0 .063-.025.116-.056.116-.03 0-.056.04-.056.088 0 .107-.7.84-.803.84-.04 0-.11.052-.154.116-.045.064-.126.116-.181.116-.056 0-.1.026-.1.058s-.077.058-.17.058c-.092 0-.168.027-.168.058 0 .032-.127.059-.282.059-.155 0-.281.026-.281.058 0 .033-.17.058-.395.058s-.394-.025-.394-.058c0-.032-.126-.059-.281-.059-.155 0-.282-.026-.282-.058 0-.031-.076-.058-.168-.058-.093 0-.17-.026-.17-.058s-.044-.058-.1-.058c-.055 0-.136-.052-.18-.116-.045-.064-.115-.116-.155-.116-.102 0-.915-.85-.915-.956 0-.049-.026-.088-.057-.088-.03 0-.056-.053-.056-.117 0-.063-.025-.116-.056-.116s-.057-.078-.057-.174c0-.095-.025-.174-.056-.174-.03 0-.056-.078-.056-.174 0-.096-.026-.174-.056-.174-.035 0-.057-.31-.057-.813 0-.503.022-.812.056-.812.032 0 .057-.104.057-.232s.025-.232.056-.232.056-.079.056-.174c0-.096.026-.175.057-.175.03 0 .056-.04.056-.091 0-.05.101-.192.225-.315.124-.122.225-.252.225-.288 0-.09.26-.35.351-.35.041 0 .111-.052.156-.116s.12-.116.169-.116c.048 0 .124-.053.169-.116a.304.304 0 01.237-.116c.087 0 .157-.027.157-.058 0-.032.076-.058.169-.058.093 0 .169-.027.169-.059 0-.035.262-.058.675-.058.413 0 .676.023.676.058zm-32.652.117c0 .031.076.058.169.058.093 0 .169.026.169.058s.04.058.088.058c.114 0 .25.14.25.257 0 .05.025.09.056.09.032 0 .056.185.056.438 0 .422-.007.444-.195.638-.107.111-.234.202-.282.202-.047 0-.086.026-.086.058s-.127.058-.281.058c-.155 0-.282.026-.282.058 0 .037-.469.058-1.295.058H13.4v-2.09h1.463c.938 0 1.464.021 1.464.059zm45.037 3.192v3.25H57.31v-.233c0-.127.025-.232.056-.232.03 0 .056-.078.056-.174 0-.096.026-.174.056-.174.032 0 .057-.078.057-.174 0-.096.025-.174.056-.174s.056-.13.056-.29c0-.16.026-.29.057-.29.03 0 .056-.131.056-.29 0-.16.025-.29.056-.29.032 0 .057-.156.057-.35 0-.193.025-.347.056-.347.033 0 .056-.213.056-.523 0-.31.023-.522.056-.522.036 0 .057-.445.057-1.219v-1.22h3.265v3.25zm9.265-1.775a.3.3 0 01.08.174c0 .05.026.092.056.092.031 0 .057.078.057.174 0 .095.025.174.056.174s.056.052.056.116.026.116.057.116c.03 0 .056.052.056.116s.025.116.056.116.056.078.056.174c0 .096.026.174.057.174.03 0 .056.053.056.116 0 .064.025.116.056.116s.057.053.057.117c0 .063.025.116.056.116s.056.078.056.174c0 .095.026.174.057.174.03 0 .056.052.056.116s.025.116.056.116.056.078.056.174c0 .096.026.174.057.174.03 0 .056.052.056.116s.025.116.056.116.057.026.057.058c0 .037-.507.058-1.408.058h-1.407v-.174c0-.096.025-.174.056-.174s.056-.052.056-.116.026-.116.057-.116c.03 0 .056-.078.056-.174 0-.096.025-.174.056-.174s.057-.052.057-.116.025-.116.056-.116c.03 0 .056-.053.056-.116 0-.064.026-.117.056-.117.031 0 .057-.052.057-.116 0-.063.025-.116.056-.116s.056-.052.056-.116.026-.116.057-.116c.03 0 .056-.078.056-.174 0-.096.025-.174.056-.174s.057-.052.057-.116.025-.116.056-.116c.03 0 .056-.052.056-.116s.026-.116.056-.116c.031 0 .057-.053.057-.116 0-.064.025-.116.056-.116s.056-.079.056-.175c0-.192.119-.234.258-.09zM38.619 6.558c0 .032.102.058.225.058.124 0 .226.026.226.058s.04.058.088.058c.114 0 .25.14.25.257 0 .05.025.091.056.091.03 0 .056.079.056.174 0 .096.025.175.056.175s.057.104.057.232c0 .127-.026.232-.057.232-.03 0-.056.066-.056.146 0 .164-.445.666-.59.666-.047 0-.086.026-.086.058 0 .033-.15.058-.337.058-.188 0-.338.026-.338.058 0 .037-.47.059-1.295.059H35.58V6.5h1.52c.976 0 1.52.02 1.52.058zm-22.18.116c0 .032.1.058.225.058.124 0 .225.026.225.058s.039.058.087.058c.113 0 .363.259.363.375 0 .05.026.09.057.09.032 0 .056.184.056.436v.437l-.252.26c-.139.143-.29.26-.338.26-.047 0-.086.025-.086.057 0 .033-.15.058-.337.058-.188 0-.338.026-.338.058 0 .038-.488.059-1.351.059h-1.351V6.617h1.52c.975 0 1.52.02 1.52.057zM8.782 8.3a.057.057 0 01-.056.058.057.057 0 01-.056-.058c0-.032.025-.058.056-.058.03 0 .056.026.056.058z" fill="#73778D"/></svg>