<svg width="34" height="34" fill="none" xmlns="http://www.w3.org/2000/svg"><path d="M21.56 21.579c.06-.098.12-.194.18-.294 2.705-4.479 4.067-8.397 4.047-11.644A8.454 8.454 0 008.88 9.638c-.02 3.25 1.342 7.168 4.048 11.647.06.1.12.196.18.294-5.696.704-9.472 2.74-9.472 5.156 0 3.035 6.016 5.412 13.698 5.412 7.683 0 13.698-2.377 13.698-5.412 0-2.416-3.776-4.452-9.471-5.156zM9.79 9.64a7.542 7.542 0 1115.086.002c.039 6.474-6.013 14.458-7.543 16.373-1.53-1.915-7.582-9.9-7.542-16.375zm7.543 21.594c-7.649 0-12.786-2.327-12.786-4.5 0-1.927 3.81-3.72 9.097-4.301a48.268 48.268 0 003.342 4.597.458.458 0 00.538.119.456.456 0 00.156-.119 48.27 48.27 0 003.343-4.597c5.286.581 9.097 2.373 9.097 4.301 0 2.173-5.138 4.5-12.787 4.5z" fill="#3E425B"/><path d="M13.607 28.596c-2.022-.26-3.645-.715-4.57-1.283a.457.457 0 10-.477.776c1.032.635 2.784 1.136 4.932 1.41a.457.457 0 00.116-.904zm4.492.217c-.636.015-1.297.012-1.943-.012a.458.458 0 00-.472.439.455.455 0 00.439.472 33.364 33.364 0 001.997.013.456.456 0 00.408-.64.45.45 0 00-.43-.272zM21.181 9.64a3.849 3.849 0 10-7.697.002 3.849 3.849 0 007.697-.001zm-6.785 0a2.937 2.937 0 115.874.001 2.937 2.937 0 01-5.874 0z" fill="#3E425B"/></svg>