<svg width="77" height="77" fill="none" xmlns="http://www.w3.org/2000/svg"><path d="M76.234 29.64a.48.48 0 01.017.105V72.25a3.958 3.958 0 01-.768 2.335.328.328 0 01-.081.107l-.006.005a3.983 3.983 0 01-3.144 1.553H4.746h0a3.982 3.982 0 01-3.138-1.552l-.01-.008a.326.326 0 01-.034-.034l-.002-.001a.29.29 0 01-.045-.072A3.958 3.958 0 01.75 72.25h0V29.743a.336.336 0 01.017-.105c.01-.097.029-.193.058-.286a1.48 1.48 0 01.083-.249l.004-.007.003-.007c.042-.08.09-.156.147-.226.055-.08.118-.154.188-.22h0c.009-.012.032-.046.07-.076l.005-.005h0L13.247 19.3V9.746a4 4 0 014-4H30.71l5.357-4.16s0 0 0 0h0l.154.198a3.707 3.707 0 014.559 0L76.234 29.64zm0 0a1.427 1.427 0 00-.058-.288 1.504 1.504 0 00-.083-.248l-.003-.008-.004-.008a1.358 1.358 0 00-.147-.226 1.434 1.434 0 00-.188-.22h0a.379.379 0 00-.07-.076h0l-.005-.004L63.75 19.3V9.746a4 4 0 00-4-4H46.29l-5.357-4.16L76.234 29.64zM37.902 3.954l.002-.002a.949.949 0 011.18 0l.002.002 2.308 1.791h-5.793l2.301-1.791zm1.185 44.353l32.12 24.943H5.79l32.111-24.943.002-.002a.95.95 0 011.18 0l.003.002zm14.048-.526l20.116-15.62V71.04l-32.319-25.1a3.959 3.959 0 00-4.866 0l-32.32 25.1V32.161l20.082 15.595h0a1.5 1.5 0 101.84-2.372L5.11 29.422l8.137-6.323v9.148a1.5 1.5 0 003 0V9.745a1 1 0 011-1H59.75a1 1 0 011 1v22.502a1.5 1.5 0 103 0v-9.148l8.137 6.323-20.591 15.99h-.001a1.5 1.5 0 101.839 2.37s0 0 0 0z" fill="transparent" stroke="#fff" stroke-width="3"/><path d="M53.5 30.997v-5c0-8.285-6.717-15.001-15.001-15.001-8.285 0-15.001 6.716-15.001 15 0 8.286 6.716 15.002 15 15.002a1.25 1.25 0 100-2.5c-6.903 0-12.5-5.597-12.5-12.501 0-6.904 5.597-12.5 12.5-12.5 6.905 0 12.502 5.596 12.502 12.5v5a2.5 2.5 0 01-5.001 0v-5a1.25 1.25 0 10-2.5 0 5 5 0 11-5-5 1.25 1.25 0 100-2.5 7.5 7.5 0 105.054 13.027 4.987 4.987 0 009.947-.527z" fill="#fff"/></svg>