<svg width="75" height="75" fill="none" xmlns="http://www.w3.org/2000/svg"><path d="M68.408 11.133H6.592C2.95 11.133 0 14.1 0 17.725v39.55c0 3.646 2.971 6.592 6.592 6.592h61.816c3.612 0 6.592-2.934 6.592-6.592v-39.55c0-3.618-2.938-6.592-6.592-6.592zm-.923 4.394l-25.324 25.19a6.549 6.549 0 01-4.661 1.931 6.552 6.552 0 01-4.665-1.934L7.515 15.527h59.97zM4.395 56.381v-37.76l18.99 18.89-18.99 18.87zm3.123 3.092L26.5 40.61l3.232 3.214a10.914 10.914 0 007.768 3.218 10.91 10.91 0 007.764-3.214L48.5 40.61l18.982 18.862H7.518zm63.088-3.092l-18.99-18.87 18.99-18.89v37.76z" fill="#fff"/></svg>