<svg width="240" height="42" fill="none" xmlns="http://www.w3.org/2000/svg"><path d="M74.012 22.102c.232-1.355.386-3.004.464-4.946l.058-1.442h4.671v9.632H72.94c.483-.807.84-1.889 1.073-3.244zm-3.22 8.523h11.547v3.95h6.266v-9.229h-2.669v-14.91H68.761l-.233 6.143c-.135 2.884-.445 5.067-.928 6.547-.483 1.48-1.315 2.22-2.495 2.22h-.58v9.23h6.266v-3.951z" fill="#3E425B"/><path d="M40.927 36.482a35.999 35.999 0 006.222-4.7h-2.863v-4.476a30.523 30.523 0 01-6.058 4.743l-.012.007c-8.833 5.224-19.56 5.622-27.725 1.123a23.626 23.626 0 01.238-3.69l-2.667-5.005h-.05v7.297H5.294a28.31 28.31 0 00.055 3.1l.096 1.305 1.112.698c4.789 3.005 10.475 4.592 16.454 4.592h.153c6.15-.028 12.283-1.749 17.733-4.976l.03-.018z" fill="#4351D8"/><path d="M40.927 36.482a35.999 35.999 0 006.222-4.7h-2.863v-4.476a30.523 30.523 0 01-6.058 4.743l-.012.007c-8.833 5.224-19.56 5.622-27.725 1.123a23.626 23.626 0 01.238-3.69l-2.667-5.005h-.05v7.297H5.294a28.31 28.31 0 00.055 3.1l.096 1.305 1.112.698c4.789 3.005 10.475 4.592 16.454 4.592h.153c6.15-.028 12.283-1.749 17.733-4.976l.03-.018zM22.472 9.28l-1.083 1.76-.741 1.203a30.662 30.662 0 013.945-2.802c8.844-5.24 19.581-5.649 27.747-1.152.005.33.001.661-.008.99h2.895c.81 0 1.582.058 2.317.166.026-.944.006-1.888-.062-2.83l-.014-.195-.29-1.268-.912-.572C51.486 1.582 45.812 0 39.842 0h-.186c-6.15.034-12.28 1.76-17.745 4.998a36.054 36.054 0 00-5.774 4.281h6.335z" fill="#4351D8"/><path d="M22.472 9.28l-1.083 1.76-.741 1.203a30.662 30.662 0 013.945-2.802c8.844-5.24 19.581-5.649 27.747-1.152.005.33.001.661-.008.99h2.895c.81 0 1.582.058 2.317.166.026-.944.006-1.888-.062-2.83l-.014-.195-.29-1.268-.912-.572C51.486 1.582 45.812 0 39.842 0h-.186c-6.15.034-12.28 1.76-17.745 4.998a36.054 36.054 0 00-5.774 4.281h6.335z" fill="#4351D8"/><path d="M6.847 23.328h1.915l3.888 7.297h7.717l-6.006-10.383 6.035-9.806H13.26l-4.323 7.527h-2.09v-7.527H0v20.189h6.847v-7.297zm105.905.945c-2.47 0-4.478-1.997-4.478-4.452 0-2.454 2.008-4.451 4.478-4.451 2.469 0 4.478 1.997 4.478 4.451 0 2.455-2.009 4.452-4.478 4.452zm0-15.136c-5.927 0-10.748 4.793-10.748 10.684 0 5.891 4.821 10.685 10.748 10.685 5.926 0 10.748-4.794 10.748-10.685 0-5.891-4.822-10.684-10.748-10.684zm13.3 20.847h6.731V15.073h6.179v14.91h6.731V9.796h-19.641v20.189zm22.8-14.911h5.948v14.91h6.731v-14.91h5.947V9.794h-18.626v5.279zm28.965 5.22V9.794h-6.731v20.19h6.469l6.963-10.47v10.47h6.731V9.793h-6.44l-6.992 10.499zm47.908 1.269l1.973-5.076 1.974 5.076h-3.947zm5.396-11.767h-6.729l-8.503 19.334-5.511-9.528 6.035-9.806h-7.137l-4.323 7.528h-2.089V9.795h-6.847v20.189h6.847v-7.297h1.915l3.887 7.297h13.811l1.363-3.519h7.717l1.365 3.519H240l-8.879-20.189zM31.877 31.285c5.926 0 10.748-4.793 10.748-10.684 0-5.892-4.822-10.685-10.748-10.685v6.233c2.47 0 4.478 1.997 4.478 4.451 0 2.455-2.009 4.452-4.478 4.452-2.47 0-4.478-1.997-4.478-4.452 0-1.109.41-2.124 1.088-2.904l-4.651-4.174a10.602 10.602 0 00-2.707 7.078c0 5.892 4.822 10.685 10.748 10.685zm25.7-13.235c0 .75-.232 1.332-.696 1.745-.464.413-1.16.62-2.09.62h-2.494v-4.73h2.495c.928 0 1.624.207 2.089.62.464.413.696.995.696 1.745zM45.45 10.436v20.189h6.847v-4.961h2.93c1.876 0 3.51-.307 4.904-.923 1.392-.615 2.465-1.5 3.22-2.653.754-1.154 1.131-2.5 1.131-4.038 0-1.538-.377-2.884-1.131-4.038-.755-1.153-1.828-2.038-3.22-2.653-1.393-.615-3.028-.923-4.904-.923H45.45z" fill="#3E425B"/></svg>