<svg width="31" height="33" fill="none" xmlns="http://www.w3.org/2000/svg"><path d="M23.467 22.835l-.336-.067-.188-.754c2.235-.566 3.896-2.59 3.896-4.998v-1.032h.516a2.584 2.584 0 002.58-2.58V6.391a7 7 0 001.033-3.655 1.206 1.206 0 00-2.168-.723l-.598.798a1.973 1.973 0 01-1.57.785c-.42 0-.839-.14-1.177-.392l-1.11-.833A9.42 9.42 0 0018.73.5h-.922a7.517 7.517 0 00-6.26 3.385 9.244 9.244 0 00-2.257-.288C4.168 3.597 0 7.765 0 12.887c0 5.123 4.168 9.29 9.29 9.29 2.023 0 3.89-.656 5.417-1.758a5.179 5.179 0 002.608 1.597l-.188.752-.336.067a9.355 9.355 0 00-7.5 9.149v.516h21.677v-.516c0-4.432-3.154-8.28-7.5-9.149zM19.32 25.71l-1.86 1.24-.313-3.133.232-.046 1.94 1.94zm.294 1.044l.516-.344.516.345v2.434l-.516.517-.516-.517v-2.434zm1.326-1.044l1.94-1.94.232.047-.313 3.133-1.86-1.24zm6.416-10.758h-.516v-3.097h.516a1.55 1.55 0 011.548 1.548 1.55 1.55 0 01-1.548 1.549zm1.548-3.6a2.554 2.554 0 00-1.548-.53h-.516V9.148a7.08 7.08 0 002.064-1.43v3.635zm-11.096-9.82h.922c1.79 0 3.565.592 4.998 1.666l1.11.832a3.013 3.013 0 001.795.599 3.01 3.01 0 002.396-1.197l.598-.798c.088-.12.31-.047.31.102a6.028 6.028 0 01-6.022 6.022 13.72 13.72 0 01-5.117-.986L16.5 6.854c-.07-.028-.145-.043-.218-.064a9.31 9.31 0 00-3.697-2.579 6.475 6.475 0 015.22-2.679zM1.032 12.887c0-4.553 3.705-8.258 8.258-8.258 4.554 0 8.258 3.705 8.258 8.258 0 4.553-3.704 8.258-8.258 8.258-4.553 0-8.258-3.705-8.258-8.258zm14.476 6.883c1.881-1.701 3.073-4.153 3.073-6.883a9.225 9.225 0 00-1.215-4.575l1.048.42a14.742 14.742 0 005.5 1.058 7.03 7.03 0 001.892-.265v7.491a4.134 4.134 0 01-4.129 4.13h-3.096a4.14 4.14 0 01-3.073-1.376zm3.073 2.407h3.096c.082 0 .16-.008.24-.011l.221.885-2.009 2.01-2.01-2.01.223-.888c.08.004.158.014.239.014zm-8.242 9.29a8.324 8.324 0 015.796-7.394l.469 4.688 1.977-1.318v2.174l1.548 1.548 1.548-1.548v-2.174l1.977 1.318.468-4.688a8.324 8.324 0 015.797 7.395h-19.58z" fill="#fff"/><path d="M23.226 14.435a1.55 1.55 0 001.548-1.548 1.55 1.55 0 00-1.548-1.548 1.55 1.55 0 00-1.549 1.548 1.55 1.55 0 001.549 1.548zm0-2.064a.517.517 0 11-.001 1.033.517.517 0 010-1.033zm0 4.645h-1.032c0 .57-.463 1.032-1.033 1.032h-3.097v1.033h3.097a2.067 2.067 0 002.065-2.065zm-6.803-3.834l.206-.295-.205-.295c-1.672-2.4-4.34-3.834-7.133-3.834-2.795 0-5.462 1.433-7.133 3.834l-.206.295.205.295c1.672 2.4 4.34 3.834 7.133 3.834 2.795 0 5.462-1.433 7.133-3.834zm-4.036-.295a3.1 3.1 0 01-2.745 3.075c-.117.006-.233.022-.351.022-.119 0-.235-.016-.353-.022a3.1 3.1 0 01-2.744-3.075 3.1 3.1 0 012.744-3.075c.118-.006.234-.022.352-.022.119 0 .235.016.353.022a3.1 3.1 0 012.744 3.075zm-9.168 0a8.02 8.02 0 012.585-2.202 4.103 4.103 0 000 4.404 8.025 8.025 0 01-2.585-2.202zm9.559 2.202a4.103 4.103 0 000-4.404 8.018 8.018 0 012.584 2.202 8.024 8.024 0 01-2.585 2.202z" fill="#fff"/></svg>