<svg width="41" height="24" fill="none" xmlns="http://www.w3.org/2000/svg"><path d="M28.17 0a11.946 11.946 0 00-8.046 3.102 11.953 11.953 0 00-8.043-3.1h-.077C5.418.046.084 5.404.084 12c0 6.622 5.375 11.996 11.997 11.996a11.94 11.94 0 008.041-3.1 11.864 11.864 0 01-1.226-1.31h2.477c-.373.457-.78.886-1.219 1.285h-.001c-.01.01-.02.017-.03.026A11.952 11.952 0 0028.172 24c6.626-.003 11.995-5.376 11.994-12v-.006C40.167 5.369 34.795-.002 28.17 0zm-9.137 4.341h2.28c.336.407.648.836.931 1.285h-4.068c.263-.43.55-.87.857-1.285zm-1.565 2.544h5.468c.195.416.367.845.517 1.286H16.82c.066-.124.298-.624.648-1.286zm-12.486 8.17l.727-4.587-1.641 4.587h-.88l-.114-4.587-.777 4.587H1.064l1.022-6.083h1.863l.066 3.733 1.259-3.733h2.022l-1.008 6.083H4.982zm4.357-.01l.042-.485c-.02.002-.408.586-1.31.586-.472 0-1.233-.257-1.233-1.376 0-1.423 1.16-1.895 2.265-1.895.174 0 .55.032.55.032s.041-.087.041-.322c0-.387-.347-.44-.823-.44-.839 0-1.392.225-1.392.225l.185-1.101s.672-.281 1.547-.281c.453 0 1.755.048 1.755 1.54l-.502 3.517H9.34zm4.754-1.549c0 1.698-1.645 1.625-1.932 1.625-1.072 0-1.403-.148-1.434-.157l.17-1.117c.002-.01.539.194 1.136.194.344 0 .79-.034.79-.445 0-.616-1.598-.468-1.598-1.93 0-1.291.958-1.669 1.903-1.669.73 0 1.179.1 1.179.1l-.162 1.128s-.692-.057-.872-.057c-.454 0-.702.1-.702.417 0 .639 1.522.326 1.522 1.911zm1.974.445c.114 0 .242-.039.33-.039l-.16 1.086c-.128.035-.492.164-.957.168-.596.005-1.019-.328-1.019-1.083 0-.507.726-4.68.754-4.708h1.277l-.13.747h.638l-.163 1.202h-.676l-.36 2.216c-.027.176.022.411.466.411zm2.81-3.97c1.402 0 1.821 1.026 1.821 1.868 0 .337-.169 1.165-.169 1.165h-2.595s-.24 1.022 1.131 1.022c.643 0 1.357-.315 1.357-.315l-.225 1.231s-.412.21-1.35.21c-1.015 0-2.206-.43-2.206-2.234 0-1.563.951-2.947 2.236-2.947zm3.382 8.378h-4.256c-.259-.413-.5-.838-.708-1.284h5.664a12.23 12.23 0 01-.7 1.284zm-.285-3.284h-1.311l.797-4.952h1.189l-.114.718s.424-.78.995-.78c.167 0 .247.016.247.016-.17.346-.32.663-.475 1.482-.887-.315-.955 1.4-1.328 3.516zm4.995-.077s-.687.175-1.118.175c-1.524 0-2.298-1.052-2.298-2.645 0-2.403 1.434-3.683 2.908-3.683.667 0 1.439.313 1.439.313l-.209 1.354s-.522-.366-1.172-.366c-.869 0-1.648.83-1.648 2.337 0 .742.363 1.434 1.27 1.434.431 0 1.056-.313 1.056-.313l-.228 1.394zm3.075.06l.043-.49c-.021.003-.41.588-1.31.588-.473 0-1.234-.258-1.234-1.377 0-1.423 1.16-1.894 2.265-1.894.173 0 .55.031.55.031s.042-.086.042-.321c0-.387-.347-.44-.824-.44-.839 0-1.392.225-1.392.225l.186-1.101s.672-.281 1.548-.281c.452 0 1.754.048 1.754 1.54l-.502 3.517c0 .003-1.127.003-1.127.003zm2.654.017h-1.311l.797-4.952h1.19l-.114.718s.424-.78.996-.78c.167 0 .246.016.246.016-.169.346-.32.663-.475 1.482-.888-.315-.956 1.4-1.33 3.516zm3.914-.014l.055-.456s-.423.535-1.19.535c-1.062 0-1.582-1.026-1.582-2.074 0-1.62.975-3.033 2.145-3.033.753.002 1.234.666 1.234.666l.276-1.709 1.28-.002-.976 6.073h-1.242zm2.526-.171a.381.381 0 01-.336.196.389.389 0 010-.777c.066 0 .129.017.19.051a.382.382 0 01.146.53zm-.102 3.661c-.008-.006-.016-.015-.03-.02a.204.204 0 00-.065-.007h-.078v.124h.083c.038 0 .064-.004.079-.018a.054.054 0 00.02-.045.063.063 0 00-.01-.034z" fill="#73778D"/><path d="M39.303 18.466a.356.356 0 00-.147-.144.391.391 0 00-.19-.051.387.387 0 00-.19.051.359.359 0 00-.146.144.391.391 0 00.338.58.388.388 0 00.335-.58zm-.239.407l-.036-.065a.345.345 0 00-.072-.098.091.091 0 00-.052-.015h-.04v.178h-.067v-.418h.144c.05 0 .085.004.105.012.022.008.041.02.053.04a.11.11 0 01.019.062c0 .03-.012.056-.032.08a.134.134 0 01-.087.038.09.09 0 01.035.023.481.481 0 01.062.082l.052.081h-.084zM9.207 12.825c-.936 0-1.126.42-1.126.77 0 .18.104.482.5.482.769 0 .929-1.008.904-1.223-.037-.007-.06-.028-.278-.03zm9.674-1.711c-.696 0-.83.792-.83.876h1.418c0-.064.133-.876-.588-.876zm17.38.138c-.562 0-1.007.652-1.006 1.643 0 .604.216.991.676.991.692 0 1.025-.903 1.025-1.575 0-.743-.236-1.059-.695-1.059zm2.82 3.275a.313.313 0 00-.12-.12.315.315 0 00-.317 0 .291.291 0 00-.12.12.333.333 0 00-.045.162c0 .055.015.11.043.16a.338.338 0 00.28.166c.056 0 .11-.017.16-.045a.321.321 0 00.12-.443zm-.18.374l-.037-.064a.334.334 0 00-.07-.098.084.084 0 00-.054-.016h-.038v.178h-.07v-.418h.145c.049 0 .085.005.106.014a.11.11 0 01.053.04c.014.018.02.038.02.06a.112.112 0 01-.034.08c-.021.024-.051.034-.086.038a.116.116 0 01.036.022.425.425 0 01.06.082l.052.082h-.083zm-8.989-2.076c-.936 0-1.125.42-1.125.77 0 .18.102.482.5.482.768 0 .927-1.008.903-1.223-.037-.007-.06-.028-.278-.03z" fill="#73778D"/><path d="M38.873 14.569a.075.075 0 00-.029-.021.237.237 0 00-.068-.008h-.075v.126h.082c.039 0 .065-.005.08-.017a.064.064 0 00.02-.046.056.056 0 00-.01-.034z" fill="#73778D"/></svg>