<svg width="85" height="24" fill="none" xmlns="http://www.w3.org/2000/svg"><path fill-rule="evenodd" clip-rule="evenodd" d="M23.014.01V0h7.544v24h-7.544V9.756h-.63L17.982 24h-5.239L8.34 9.746h-.629V24H.167V0h7.54s3.314-.01 4.194 3.145c.818 2.946 3.145 11.109 3.145 11.109h.63c.062-.22 2.337-8.205 3.144-11.098C19.7.006 22.99.01 23.013.01zm24.31 2.506C48.362.2 50.575 0 50.575 0H57.7v24h-7.545V9.746h-.629l-5.238 11.738C43.25 23.79 40.933 24 40.933 24h-7.125V0h7.544v14.254h.63l5.343-11.738zM61.055 24V10.903h23.42a8.164 8.164 0 01-7.702 5.448H68.6V24h-7.545zm-1.06-24h16.78a8.172 8.172 0 018.174 8.174c0 .576-.053 1.132-.168 1.677H71.848c-1.066 0-2.127-.14-3.155-.42-4.431-1.195-7.86-4.86-8.698-9.431z" fill="#73778D"/></svg>