<svg width="19" height="18" fill="none" xmlns="http://www.w3.org/2000/svg"><path d="M17.636 10.257a.636.636 0 00-.532.116 6.785 6.785 0 01-2.057 1.202 6.443 6.443 0 01-2.335.416 6.796 6.796 0 01-4.807-1.988 6.797 6.797 0 01-1.988-4.808c0-.786.139-1.548.37-2.242A6.19 6.19 0 017.397.965a.59.59 0 00-.093-.832.636.636 0 00-.532-.115 9.327 9.327 0 00-4.9 3.282A9.118 9.118 0 000 8.847a9.12 9.12 0 002.681 6.472A9.079 9.079 0 009.153 18c2.126 0 4.091-.74 5.663-1.965a9.113 9.113 0 003.236-5.062.56.56 0 00-.416-.716z" fill="#fff"/></svg>