<svg width="85" height="85" fill="none" xmlns="http://www.w3.org/2000/svg"><path d="M76.742 66.868A15.046 15.046 0 0066.635 55.04L54.84 51.108v-1.753h-2.742v2.577c-.223.826-1.86 5.649-9.596 5.649-7.737 0-9.374-4.823-9.597-5.649v-2.577h-2.742v1.753L18.366 55.04A15.05 15.05 0 008.26 66.868L5.236 85h74.528l-3.022-18.132zM53.896 54.58c.591.881.943 1.903.943 3 0 3.024-2.49 5.485-5.552 5.485a5.572 5.572 0 01-4.848-2.838c5.613-.564 8.26-3.524 9.457-5.647zm-22.79 0c1.196 2.123 3.843 5.083 9.456 5.647a5.572 5.572 0 01-4.848 2.838c-3.061 0-5.552-2.461-5.552-5.486 0-1.095.352-2.118.943-3zm35.942 27.678L65.8 69.782l-2.728.273 1.22 12.202H20.71l1.22-12.202-2.728-.273-1.248 12.476H8.475l2.49-14.938a12.314 12.314 0 018.269-9.678l8.688-2.897a8.172 8.172 0 00-.502 2.834c0 4.537 3.72 8.227 8.294 8.227 2.773 0 5.269-1.394 6.787-3.545 1.516 2.151 4.014 3.545 6.786 3.545 4.574 0 8.294-3.69 8.294-8.227 0-.986-.172-1.941-.5-2.832l8.688 2.897a12.314 12.314 0 018.27 9.677l2.488 14.937h-9.48z" fill="#4351D8"/><path d="M20.6 34.274h-.035v17.823h2.742V36.435c.616.27 1.283.425 1.977.503.7 2.406 1.99 4.612 3.811 6.433l5.347 5.346a6.803 6.803 0 004.846 2.009h6.426a6.81 6.81 0 004.847-2.007l5.346-5.347a14.996 14.996 0 003.812-6.433c.693-.078 1.361-.233 1.977-.503v15.66h2.742V34.275h-.036c.87-1.149 1.405-2.564 1.405-4.113 0-1.549-.536-2.964-1.407-4.113h.036v-4.112C64.436 9.84 54.596 0 42.501 0 30.406 0 20.565 9.84 20.565 21.936v4.112h.036c-.87 1.15-1.407 2.564-1.407 4.113 0 1.55.536 2.964 1.407 4.113zm33.368 7.16L48.62 46.78a4.14 4.14 0 01-2.908 1.204h-6.426a4.143 4.143 0 01-2.908-1.204l-5.346-5.347a12.254 12.254 0 01-3.603-8.53h1.556c.613 2.358 2.742 4.113 5.289 4.113 2.547 0 4.676-1.755 5.29-4.113h5.872c.613 2.358 2.742 4.113 5.29 4.113 2.547 0 4.676-1.755 5.289-4.113h1.556a12.25 12.25 0 01-3.605 8.53zm-22.435-9.902a2.745 2.745 0 012.742-2.742 2.745 2.745 0 012.742 2.742 2.745 2.745 0 01-2.742 2.742 2.745 2.745 0 01-2.742-2.742zm16.452 0a2.745 2.745 0 012.742-2.742 2.745 2.745 0 012.741 2.742 2.745 2.745 0 01-2.742 2.742 2.745 2.745 0 01-2.741-2.742zm9.596-1.37h-1.565c-.613-2.359-2.742-4.114-5.29-4.114-2.547 0-4.676 1.755-5.289 4.113h-5.873c-.613-2.358-2.742-4.113-5.29-4.113-2.546 0-4.675 1.755-5.288 4.113H27.42v-4.174a24.353 24.353 0 0015.078-6.271c4.179 3.787 9.456 5.962 15.083 6.27v4.175zm5.484 0c0 1.808-1.182 3.33-2.806 3.88.038-.441.064-.885.064-1.334v-6.407c1.592.567 2.742 2.075 2.742 3.86zm-39.758-8.226c0-10.584 8.61-19.194 19.194-19.194s19.193 8.61 19.193 19.194v1.952a6.787 6.787 0 00-2.742-.582c-5.822 0-11.296-2.267-15.482-6.453l-1.038-.9-.97.969a21.656 21.656 0 01-15.413 6.384c-.976 0-1.9.212-2.742.582v-1.953zm1.371 4.365v6.408c0 .448.026.892.065 1.333-1.625-.55-2.807-2.072-2.807-3.88 0-1.786 1.15-3.294 2.742-3.861z" fill="#4351D8"/></svg>