<svg width="85" height="85" fill="none" xmlns="http://www.w3.org/2000/svg"><path d="M61.22 55.004l-11.761-3.92v-1.75h-2.734v2.567l-2.041 8.16-5.521-6.625h-4.015l-5.522 6.626-2.039-8.161v-2.566h-2.734v1.748l-11.762 3.92A15.007 15.007 0 003.014 66.798L0 84.877h74.31l-3.014-18.08A14.998 14.998 0 0061.22 55.004zM38.523 82.142V60.271h-2.734v21.871H15.428l1.216-12.166-2.72-.272-1.244 12.44H3.23l2.48-14.898a12.28 12.28 0 018.246-9.65l8.162-2.72V67.3c-2.351.61-4.1 2.732-4.1 5.273a5.473 5.473 0 005.467 5.468 5.473 5.473 0 005.468-5.468c0-2.54-1.75-4.662-4.101-5.273V53.965l.4-.133 3.028 12.116 8.148-9.778h1.453l8.148 9.778 3.03-12.116.399.133v10.929l-5.18 2.59a5.435 5.435 0 00-3.022 4.89v1.567a5.473 5.473 0 005.468 5.467h1.367v-2.734h-1.367a2.737 2.737 0 01-2.734-2.734v-1.566c0-1.043.578-1.98 1.51-2.446l5.325-2.661 5.324 2.661a2.72 2.72 0 011.51 2.446v1.567a2.737 2.737 0 01-2.733 2.733H53.56v2.734h1.366c1.362 0 2.592-.518 3.55-1.343l.408 4.077H38.523zM23.486 69.84a2.737 2.737 0 012.734 2.733 2.737 2.737 0 01-2.734 2.735 2.737 2.737 0 01-2.734-2.735 2.737 2.737 0 012.734-2.733zm38.145 12.302l-1.243-12.44-.662.067a5.435 5.435 0 00-2.354-2.286l-5.18-2.59V54.878l8.164 2.72a12.282 12.282 0 018.246 9.65l2.48 14.895h-9.45z" fill="#4351D8"/><path d="M19.99 36.956a14.945 14.945 0 003.8 6.413l5.33 5.33a6.792 6.792 0 004.833 2.003h6.407a6.792 6.792 0 004.832-2.003l5.331-5.33a14.945 14.945 0 003.8-6.413c3.406-.386 6.071-3.251 6.071-6.759 0-2.243-1.101-4.221-2.776-5.468h.042v-4.1C57.66 9.321 48.462.123 37.156.123 25.85.124 16.65 9.322 16.65 20.628v4.101h.043c-1.675 1.247-2.777 3.225-2.777 5.468 0 3.508 2.666 6.373 6.072 6.759zm32.203-4.22c0 3.287-1.28 6.375-3.604 8.7l-5.331 5.33a4.123 4.123 0 01-2.9 1.202h-6.406a4.126 4.126 0 01-2.9-1.202l-5.33-5.33a12.222 12.222 0 01-3.604-8.699v-6.64h10.109c3.194 0 6.297-.858 9.028-2.486a17.595 17.595 0 009.03 2.485h1.908v6.64zm5.468-2.539c0 1.803-1.179 3.322-2.799 3.869.038-.44.064-.882.064-1.33v-6.388c1.588.566 2.734 2.07 2.734 3.85zm-38.276-9.569c0-9.798 7.972-17.77 17.77-17.77 9.8 0 17.771 7.972 17.771 17.77V23.5a6.83 6.83 0 00-1.367-.138h-3.273c-2.953 0-5.813-.866-8.272-2.504l-.757-.506-.759.506a14.869 14.869 0 01-8.27 2.504H20.752a6.83 6.83 0 00-1.367.138v-2.872zm0 5.72v6.388c0 .447.026.89.064 1.33-1.62-.547-2.798-2.066-2.798-3.869 0-1.78 1.147-3.283 2.734-3.85z" fill="#4351D8"/><path d="M50.826.124v2.734h31.44v54.679H71.33v2.734H85V.124H50.826z" fill="#4351D8"/><path d="M60.394 21.995h9.57v-2.734h-6.836v-2.733h6.835v-2.734h-6.835v-2.735h6.835V8.326h-9.569v13.67zm19.138 13.67v-2.734h-9.569v13.67h9.57v-2.734h-6.836v-2.734h6.835v-2.734h-6.835v-2.734h6.835zM57.66 43.867h-5.467v2.734h8.201v-8.202h-2.733v5.468z" fill="#4351D8"/></svg>