<svg width="34" height="34" fill="none" xmlns="http://www.w3.org/2000/svg"><g clip-path="url(#clip0)"><path d="M34 5.716v-.01a.437.437 0 00-.004-.044l-.002-.015a.482.482 0 00-.024-.094l-.003-.008-1.324-3.39a.88.88 0 00-.824-.563h-2.412a.476.476 0 100 .952h2.366l1.054 2.698H22.86l-.624-2.698h3.68a.476.476 0 100-.952H6.662a.88.88 0 00-.825.562L4.513 5.545l-.003.008a.47.47 0 00-.024.094l-.002.015a.493.493 0 00-.003.043v7.006a.476.476 0 10.951 0V6.194h10.09v7.235a.721.721 0 001.197.54l2.52-2.234 2.522 2.233a.721.721 0 001.198-.539V6.194h10.089v21.35a.62.62 0 01-.62.619h-8.727v-.016a2.677 2.677 0 00-.006-.128 1.715 1.715 0 002.016-2.32 1.787 1.787 0 00-.055-.116l-.01-.021a1.753 1.753 0 00-.061-.106l-.013-.02a1.738 1.738 0 00-.071-.104l-.002-.001a1.67 1.67 0 00-.078-.096l-.015-.017a1.718 1.718 0 00-.083-.087l-.018-.016a1.657 1.657 0 00-.093-.082l-.003-.003a1.649 1.649 0 00-.099-.073l-.018-.013a1.742 1.742 0 00-.104-.064l-.008-.005c.2-.175.36-.395.463-.648.173-.424.17-.89-.007-1.311a1.7 1.7 0 00-.932-.922l-7.408-3.02 3.448-1.068a1.564 1.564 0 001.03-1.95 1.528 1.528 0 00-.522-.755 1.602 1.602 0 00-1.315-.308l-.007.002c-.026.006-2.67.6-5.43 1.138l-.36.07-.278.053-.078.015-.468.088-.181.033c-3.467.64-4.441.65-4.712.614a.98.98 0 01-.015-.002l-.007-.002h-.006a.395.395 0 01-.04-.01l-.078-.032.097-.238a.941.941 0 00-.093-.89.94.94 0 00-.427-.345l-2.556-1.042a.94.94 0 00-.725.003.942.942 0 00-.51.516L.737 22.531a.949.949 0 00.52 1.235l2.556 1.043a.95.95 0 001.235-.52l.023-.058.59.24.001.001a5.23 5.23 0 012.1 1.567 6.184 6.184 0 002.484 1.853l.663.27H6.052a.62.62 0 01-.62-.619V26.34a.476.476 0 10-.952 0v1.204c0 .867.705 1.572 1.572 1.572h7.192l6.131 2.5a1.716 1.716 0 002.35-1.769c.318.046.65.004.949-.126a1.69 1.69 0 00.736-.605h9.018c.867 0 1.572-.705 1.572-1.572V5.716zM17.22 2.544h4.04l.624 2.698h-5.288l.624-2.698zm-1.6 2.698H5.653l1.054-2.698h9.536l-.624 2.698zm6.388 7.672l-2.29-2.028a.718.718 0 00-.954 0l-2.29 2.028v-6.72h5.534v6.72zM4.168 23.925L1.62 22.886l3.123-7.658 2.548 1.039-3.123 7.658zm19.016 2.873l-.546-.223h-.001l-5.69-2.32a.476.476 0 10-.36.881l5.69 2.32a.76.76 0 01.069.032l.018.011.046.028.02.015.04.028.021.02.033.03.02.022.029.031.02.026.023.032.018.028.02.034.015.03.017.034.012.033c.005.012.01.023.013.034l.01.035.01.035.006.035.006.036.003.036.003.036v.073l-.005.036-.004.038-.007.034-.009.039-.01.034-.013.038a.872.872 0 00-.012.026l-.002.006a.74.74 0 01-.39.385.806.806 0 01-.62.008l-1.008-.41-.015-.006-.014-.006-4.627-1.887a.476.476 0 10-.36.881l4.628 1.887.015.006.013.006a.762.762 0 01-.574 1.408l-6.217-2.535h-.001l-2.911-1.187a5.228 5.228 0 01-2.1-1.567 6.166 6.166 0 00-2.484-1.854l-.59-.24 1.175-2.883 1.11-2.725.083.034c.077.03.187.076.483.087.37.017.982-.022 2.078-.177a68.84 68.84 0 002.729-.454l.079-.015.15-.028.12-.022.137-.026a33.324 33.324 0 00.267-.05l.184-.035.095-.018.287-.056a217.225 217.225 0 005.527-1.158l.036-.005a.625.625 0 01.692.416.607.607 0 01-.401.762l-4.719 1.46a.476.476 0 00-.039.896l8.64 3.523a.756.756 0 01.414.409c.078.187.08.394.003.582a.756.756 0 01-.7.474h-.005l-.069-.003-.02-.003a.45.45 0 01-.053-.008l-.033-.008-.04-.01c-.013-.003-.026-.009-.04-.013l-.031-.011-5.69-2.32a.476.476 0 10-.36.881l6.899 2.813a.758.758 0 01.207 1.28l-.012.012a.763.763 0 01-.77.116l-.66-.27z" fill="#3E425B"/></g><defs><clipPath id="clip0"><path fill="#fff" transform="translate(.667)" d="M0 0h33.333v33.333H0z"/></clipPath></defs></svg>