<svg width="25" height="25" fill="none" xmlns="http://www.w3.org/2000/svg"><g clip-path="url(#clip0)" fill="#4351D8"><path d="M24.794 3.155L21.843.341c-.112-.108-.229-.22-.445-.22H9.575a.627.627 0 00-.626.627v1.923l-4.167.714a.617.617 0 00-.5.712l.211 1.233c-1.354.456-2.745.926-4.087 1.408a.62.62 0 00-.37.788l2.67 7.422a.366.366 0 10.689-.248L.765 7.388c1.264-.453 2.574-.896 3.853-1.327l1.259 7.336 1.448 8.449a.62.62 0 00.712.502l3.921-.673 3.065-.525-4.61 1.656-3.634 1.307-2.822-7.851a.366.366 0 10-.69.248l2.863 7.962a.618.618 0 00.788.37l3.744-1.346 8.5-3.056 1.624-.278h3.588a.628.628 0 00.626-.628V3.568c0-.22-.119-.331-.206-.413zm-.97.087h-1.878c-.088 0-.293.002-.345-.05-.012-.011-.026-.051-.026-.125l-.005-1.974 2.254 2.15zm.444 16.187H9.682v-7.137a.366.366 0 00-.733 0v7.242c0 .346.281.628.626.628h6.876l-4.617.79-3.807.654-1.428-8.333-1.576-9.186 3.926-.673v7.179a.366.366 0 10.733 0V.854h11.155l.005 2.213c0 .269.082.486.243.645.247.246.596.263.813.263h2.37v15.454z"/><path d="M11.447 5.808c0 .202.164.366.366.366h10.47a.366.366 0 000-.732h-10.47a.366.366 0 00-.366.366zm10.837 2.236H11.813a.366.366 0 100 .732h10.47a.366.366 0 000-.732zm0 2.601H11.813a.366.366 0 100 .733h10.47a.366.366 0 000-.733zm0 2.602H11.813a.366.366 0 000 .732h10.47a.366.366 0 000-.732zm0 2.602H11.813a.366.366 0 100 .732h10.47a.366.366 0 000-.732z"/></g><defs><clipPath id="clip0"><path fill="#fff" d="M0 0h25v25H0z"/></clipPath></defs></svg>