<svg xmlns="http://www.w3.org/2000/svg" viewBox="0 0 263.285 263.285"><path d="M193.882 8.561c-7.383-3.756-16.414-.813-20.169 6.573L62.153 234.556c-3.755 7.385-.812 16.414 6.573 20.169a14.94 14.94 0 006.786 1.632c5.466 0 10.735-2.998 13.383-8.205L200.455 28.73c3.755-7.385.812-16.414-6.573-20.169zm-80.104 72.257c0-31.369-25.521-56.89-56.89-56.89C25.521 23.928 0 49.449 0 80.818c0 31.368 25.521 56.889 56.889 56.889 31.369 0 56.889-25.521 56.889-56.889zm-56.889 26.889C42.063 107.707 30 95.644 30 80.818c0-14.827 12.063-26.89 26.889-26.89 14.827 0 26.89 12.062 26.89 26.89-.001 14.826-12.063 26.889-26.89 26.889zm149.507 17.873c-31.369 0-56.89 25.521-56.89 56.889 0 31.368 25.52 56.889 56.89 56.889 31.368 0 56.889-25.52 56.889-56.889 0-31.369-25.52-56.889-56.889-56.889zm0 83.777c-14.827 0-26.89-12.063-26.89-26.889 0-14.826 12.063-26.889 26.89-26.889 14.826 0 26.889 12.063 26.889 26.889 0 14.826-12.062 26.889-26.889 26.889z" fill="#fff"/></svg>