<svg width="85" height="85" fill="none" xmlns="http://www.w3.org/2000/svg"><path d="M70.125 66.765a4.019 4.019 0 00-3.52-.638L57.11 68.93V57.11h3.985a1.31 1.31 0 001.222-.824 1.328 1.328 0 00-.28-1.448l-9.296-9.297a1.339 1.339 0 00-1.886 0l-9.297 9.297a1.327 1.327 0 00-.279 1.448 1.311 1.311 0 001.222.823h3.984v14.61h-8.951l-7.172-3.985h10.81a3.997 3.997 0 003.985-3.984v-.664a4.003 4.003 0 00-2.855-3.825l-7.77-2.284v-6.508h3.985a1.311 1.311 0 001.221-.824 1.329 1.329 0 00-.278-1.447L30.162 38.9a1.339 1.339 0 00-1.886 0l-9.297 9.297a1.328 1.328 0 00-.279 1.447 1.311 1.311 0 001.222.824h3.984v3.386l-2.284-.677a1.147 1.147 0 00-.372-.053h-7.969v-2.656a1.328 1.328 0 00-1.328-1.328H3.984a1.328 1.328 0 00-1.328 1.328v29.218a1.328 1.328 0 001.328 1.329h7.97a1.328 1.328 0 001.327-1.329V77.55l14.185 4.728c.138.042.28.064.425.067h19.922c.15 0 .298-.027.438-.08l20.812-7.344a3.984 3.984 0 002.656-3.76v-1.208a3.965 3.965 0 00-1.594-3.187zm-59.5 11.594H5.312V51.797h5.313v26.562zm35.076-23.906l6.096-6.096 6.096 6.096h-2.112a1.328 1.328 0 00-1.328 1.328v13.932l-5.312 1.554V55.781a1.328 1.328 0 00-1.328-1.328H45.7zm-22.578-6.64l6.096-6.097 6.096 6.096h-2.112a1.328 1.328 0 00-1.328 1.329v7.052l-5.313-1.567V49.14a1.328 1.328 0 00-1.328-1.328h-2.111zm45.94 23.348a1.327 1.327 0 01-.89 1.262l-20.586 7.264H28.103l-14.822-4.94V55.78h7.783l20.48 6.03a1.34 1.34 0 01.956 1.275v.664a1.328 1.328 0 01-1.328 1.328H25.234a1.328 1.328 0 00-.65 2.484l11.953 6.64c.197.116.422.176.65.173h10.626c.125.003.251-.015.371-.053l19.178-5.645a1.33 1.33 0 011.7 1.275v1.209z" fill="#4351D8"/><path d="M45.156 2.656a19.922 19.922 0 1019.922 19.922A19.946 19.946 0 0045.156 2.656zm17.2 18.594h-2.657a14.729 14.729 0 00-1.288-4.781l2.298-1.342a17.297 17.297 0 011.646 6.123zM54.904 8.34a17.59 17.59 0 014.489 4.49l-2.311 1.328a15.147 15.147 0 00-3.506-3.506l1.328-2.311zm-8.42-2.961c2.124.167 4.2.725 6.122 1.647l-1.341 2.297a14.727 14.727 0 00-4.782-1.288V5.38zm-2.657 0v2.656a14.727 14.727 0 00-4.781 1.288l-1.341-2.297a17.294 17.294 0 016.122-1.647zm-8.42 2.962l1.328 2.31a15.147 15.147 0 00-3.506 3.507l-2.311-1.328a17.59 17.59 0 014.489-4.49zm-5.804 6.786l2.298 1.342a14.729 14.729 0 00-1.289 4.781h-2.656c.167-2.125.725-4.2 1.647-6.123zm-1.647 8.78h2.656a14.727 14.727 0 001.289 4.78l-2.298 1.342a17.297 17.297 0 01-1.647-6.123zm7.45 12.909a17.59 17.59 0 01-4.488-4.49l2.31-1.328a15.15 15.15 0 003.507 3.507l-1.328 2.31zm8.421 2.961a17.294 17.294 0 01-6.123-1.647l1.342-2.297a14.727 14.727 0 004.781 1.288v2.656zM33.203 22.578a11.953 11.953 0 1111.953 11.953 11.972 11.972 0 01-11.953-11.953zm13.281 17.2V37.12a14.727 14.727 0 004.782-1.288l1.341 2.297a17.294 17.294 0 01-6.123 1.647zm8.42-2.962l-1.327-2.311a15.15 15.15 0 003.506-3.507l2.31 1.329a17.59 17.59 0 01-4.488 4.489zm5.805-6.787l-2.298-1.341a14.727 14.727 0 001.288-4.782h2.657a17.297 17.297 0 01-1.647 6.123z" fill="#4351D8"/><path d="M43.828 31.875h2.656v-2.656a2.656 2.656 0 002.657-2.657v-2.656a2.656 2.656 0 00-2.657-2.656h-2.656v-2.656h5.313v-2.657h-2.657v-2.656h-2.656v2.656a2.656 2.656 0 00-2.656 2.657v2.656a2.656 2.656 0 002.656 2.656h2.656v2.657h-5.312v2.656h2.656v2.656zm38.127 13.67l-9.297-9.297a1.328 1.328 0 00-1.878 0l-9.297 9.297a1.327 1.327 0 00.939 2.267h3.984v13.282a1.328 1.328 0 001.328 1.328h7.97a1.329 1.329 0 001.327-1.328V47.812h3.985a1.329 1.329 0 00.939-2.267zm-6.252-.389a1.328 1.328 0 00-1.328 1.328v13.282h-5.313V46.484a1.328 1.328 0 00-1.328-1.328h-2.106l6.09-6.09 6.092 6.09h-2.107zM3.984 37.188H7.97v7.968a1.328 1.328 0 001.328 1.328h7.969a1.328 1.328 0 001.328-1.328v-7.968h3.984a1.328 1.328 0 00.94-2.268l-9.298-9.297a1.328 1.328 0 00-1.878 0L3.045 34.92a1.328 1.328 0 00.94 2.267zm9.297-8.748l6.091 6.091h-2.106a1.328 1.328 0 00-1.328 1.328v7.97h-5.313v-7.97a1.328 1.328 0 00-1.328-1.328H7.19l6.091-6.09z" fill="#4351D8"/></svg>