<svg width="135" height="21" fill="none" xmlns="http://www.w3.org/2000/svg"><path d="M20.422 9.187c.411-.4.556-.988.38-1.534a1.488 1.488 0 00-1.21-1.02L14.538 5.9a.66.66 0 01-.498-.361L11.78.958a1.488 1.488 0 00-1.342-.834c-.574 0-1.089.32-1.342.834l-2.26 4.58a.66.66 0 01-.498.362l-5.055.734a1.488 1.488 0 00-1.209 1.02 1.488 1.488 0 00.379 1.534l3.657 3.564a.662.662 0 01.19.586l-.862 5.033c-.076.443.04.874.326 1.214.446.53 1.224.691 1.846.364l4.52-2.377a.677.677 0 01.616 0l4.52 2.377c.22.116.455.174.697.174.442 0 .86-.196 1.149-.538.287-.34.402-.771.326-1.214l-.863-5.033a.661.661 0 01.19-.586l3.657-3.565z" fill="url(#paint0_linear)"/><path d="M78.424 9.187c.41-.4.555-.988.378-1.534a1.488 1.488 0 00-1.209-1.02L72.54 5.9a.66.66 0 01-.498-.361l-2.26-4.58A1.488 1.488 0 0068.44.124c-.573 0-1.088.32-1.342.834l-2.26 4.58a.661.661 0 01-.498.362l-5.055.734a1.488 1.488 0 00-1.209 1.02 1.488 1.488 0 00.379 1.534l3.657 3.564a.662.662 0 01.19.586l-.862 5.033c-.077.443.04.874.327 1.214.445.53 1.223.691 1.845.364l4.52-2.377a.677.677 0 01.616 0l4.52 2.377c.22.116.455.174.697.174.442 0 .86-.196 1.148-.538.288-.34.403-.771.327-1.214l-.863-5.033a.661.661 0 01.19-.586l3.657-3.565z" fill="url(#paint1_linear)"/><path d="M49.423 9.187c.411-.4.556-.988.38-1.534a1.488 1.488 0 00-1.21-1.02L43.54 5.9a.66.66 0 01-.498-.361l-2.26-4.58A1.488 1.488 0 0039.44.124c-.574 0-1.089.32-1.342.834l-2.26 4.58a.661.661 0 01-.498.362l-5.055.734a1.488 1.488 0 00-1.209 1.02 1.488 1.488 0 00.379 1.534l3.657 3.564a.662.662 0 01.19.586l-.862 5.033c-.077.443.04.874.327 1.214.445.53 1.223.691 1.845.364l4.52-2.377a.677.677 0 01.616 0l4.52 2.377c.22.116.455.174.697.174.442 0 .86-.196 1.148-.538.288-.34.403-.771.327-1.214l-.863-5.033a.661.661 0 01.19-.586l3.657-3.565z" fill="url(#paint2_linear)"/><path d="M107.424 9.187c.411-.4.556-.988.379-1.534a1.487 1.487 0 00-1.209-1.02L101.54 5.9a.66.66 0 01-.498-.361l-2.26-4.58A1.488 1.488 0 0097.44.124c-.574 0-1.089.32-1.342.834l-2.26 4.58a.66.66 0 01-.498.362l-5.055.734a1.488 1.488 0 00-1.209 1.02 1.488 1.488 0 00.379 1.534l3.657 3.564a.662.662 0 01.19.586l-.862 5.033c-.076.443.04.874.326 1.214.446.53 1.224.691 1.846.364l4.52-2.377a.677.677 0 01.616 0l4.52 2.377c.22.116.455.174.697.174a1.5 1.5 0 001.148-.538c.288-.34.403-.771.327-1.214l-.863-5.033a.66.66 0 01.19-.586l3.657-3.565z" fill="url(#paint3_linear)"/><path d="M134.423 9.187c.41-.4.555-.988.378-1.534a1.487 1.487 0 00-1.209-1.02l-5.054-.734a.663.663 0 01-.498-.361l-2.259-4.58a1.489 1.489 0 00-1.343-.834c-.574 0-1.089.32-1.342.834l-2.26 4.58a.663.663 0 01-.498.362l-5.055.734a1.489 1.489 0 00-1.209 1.02 1.488 1.488 0 00.379 1.534l3.657 3.564a.661.661 0 01.191.586l-.863 5.033c-.076.443.04.874.326 1.214.446.53 1.224.691 1.846.364l4.52-2.377a.678.678 0 01.616 0l4.52 2.377c.22.116.455.174.697.174a1.5 1.5 0 001.148-.538c.288-.34.403-.771.327-1.214l-.863-5.033a.66.66 0 01.19-.586l3.658-3.565z" fill="url(#paint4_linear)"/><defs><linearGradient id="paint0_linear" x1="0" y1="10.124" x2="20.876" y2="10.124" gradientUnits="userSpaceOnUse"><stop stop-color="#4351D8"/><stop offset="1" stop-color="#6D7BFF"/></linearGradient><linearGradient id="paint1_linear" x1="58.001" y1="10.124" x2="78.876" y2="10.124" gradientUnits="userSpaceOnUse"><stop stop-color="#4351D8"/><stop offset="1" stop-color="#6D7BFF"/></linearGradient><linearGradient id="paint2_linear" x1="29.001" y1="10.124" x2="49.877" y2="10.124" gradientUnits="userSpaceOnUse"><stop stop-color="#4351D8"/><stop offset="1" stop-color="#6D7BFF"/></linearGradient><linearGradient id="paint3_linear" x1="87.002" y1="10.124" x2="107.878" y2="10.124" gradientUnits="userSpaceOnUse"><stop stop-color="#4351D8"/><stop offset="1" stop-color="#6D7BFF"/></linearGradient><linearGradient id="paint4_linear" x1="114" y1="10.124" x2="134.876" y2="10.124" gradientUnits="userSpaceOnUse"><stop stop-color="#4351D8"/><stop offset="1" stop-color="#6D7BFF"/></linearGradient></defs></svg>