<svg width="51" height="51" fill="none" xmlns="http://www.w3.org/2000/svg"><path d="M46.79 37.036c-.919-.64-2.125-1.62-3.13-2.906 4.047-3.67 6.342-8.647 6.342-13.847 0-5.283-2.295-10.24-6.463-13.959-4.12-3.676-9.588-5.7-15.395-5.7s-11.275 2.024-15.396 5.7C8.581 10.043 6.286 15 6.286 20.284c0 .66.036 1.316.107 1.965C2.502 25.015 0 29.303 0 34.108c0 3.89 1.667 7.616 4.617 10.412-.467.55-1.03 1.078-1.667 1.561a2.442 2.442 0 001.08 4.36c.735.121 1.47.181 2.194.181 2.367 0 4.63-.642 6.483-1.857 1.318.294 2.675.443 4.042.443 7.098 0 13.178-4.002 15.612-9.634.427-.075.852-.16 1.273-.259 2.424 1.64 5.45 2.509 8.588 2.509 1.221 0 2.46-.132 3.686-.4a2.45 2.45 0 001.879-1.914 2.438 2.438 0 00-.997-2.475zm-13.227-.72a21.248 21.248 0 01-5.42.697c-10.436 0-18.927-7.505-18.927-16.73 0-9.225 8.49-16.73 18.928-16.73 10.437 0 18.928 7.505 18.928 16.73 0 4.735-2.29 9.27-6.281 12.443a1.465 1.465 0 00-.34 1.908c1.075 1.767 2.51 3.148 3.745 4.124-3.452.485-6.89-.305-9.372-2.192a1.465 1.465 0 00-1.26-.25zm-20.782 9.453a1.464 1.464 0 00-1.26.25c-1.586 1.206-3.69 1.789-5.9 1.658.905-.808 1.649-1.687 2.218-2.622a1.465 1.465 0 00-.34-1.908c-2.904-2.308-4.57-5.602-4.57-9.038 0-3.384 1.577-6.449 4.116-8.657.991 3.299 2.933 6.318 5.703 8.79 4.12 3.676 9.589 5.7 15.396 5.7.246 0 .491-.003.737-.01-2.348 3.779-6.906 6.348-12.132 6.348-1.35 0-2.684-.172-3.968-.51z" fill="#fff"/><path d="M23.409 18.87c.809 0 1.465-.655 1.465-1.465v-3.681a1.465 1.465 0 10-2.93 0v3.681c0 .81.656 1.465 1.465 1.465zm8.836.046c.81 0 1.465-.655 1.465-1.464V13.77a1.465 1.465 0 00-2.93 0v3.682c0 .809.656 1.464 1.465 1.464z" fill="#fff"/><path d="M40.981 19.845a1.465 1.465 0 00-2.93 0c0 4.369-4.462 7.923-9.948 7.923-5.486 0-9.949-3.554-9.949-7.923a1.465 1.465 0 00-2.93 0c0 2.954 1.378 5.713 3.878 7.77 2.417 1.988 5.614 3.083 9.001 3.083 3.387 0 6.584-1.095 9.001-3.083 2.5-2.057 3.877-4.816 3.877-7.77z" fill="#fff"/></svg>