<svg width="30" height="31" fill="none" xmlns="http://www.w3.org/2000/svg"><path d="M7.228 23.272C7.518 27.307 10.893 30.5 15 30.5a7.712 7.712 0 003.278-.723.586.586 0 00-.495-1.063 6.549 6.549 0 01-2.783.614c-3.461 0-6.31-2.67-6.597-6.059A7.81 7.81 0 0015 18.463a7.81 7.81 0 006.597 4.806 6.544 6.544 0 01-.497 2.011.586.586 0 001.08.457 7.71 7.71 0 00.593-2.465C26.807 22.982 30 19.607 30 15.5s-3.194-7.482-7.228-7.772C22.482 3.694 19.107.5 15 .5S7.518 3.694 7.228 7.728C3.193 8.018 0 11.393 0 15.5s3.193 7.482 7.228 7.772zm1.18-1.18a6.632 6.632 0 015.977-5.977 6.632 6.632 0 01-5.977 5.977zm7.207-5.977a6.632 6.632 0 015.977 5.977 6.632 6.632 0 01-5.977-5.977zm13.213-.615c0 3.462-2.67 6.31-6.059 6.597a7.81 7.81 0 00-4.806-6.597 7.81 7.81 0 004.806-6.597c3.389.286 6.06 3.136 6.06 6.597zm-13.213-.615a6.632 6.632 0 015.977-5.977 6.632 6.632 0 01-5.977 5.977zM15 1.672c3.462 0 6.31 2.67 6.597 6.059A7.81 7.81 0 0015 12.537 7.81 7.81 0 008.403 7.73C8.689 4.342 11.539 1.67 15 1.67zm-.615 13.213a6.632 6.632 0 01-5.977-5.977 6.632 6.632 0 015.977 5.977zM7.231 8.903a7.81 7.81 0 004.806 6.597 7.81 7.81 0 00-4.806 6.597c-3.389-.286-6.06-3.136-6.06-6.597 0-3.461 2.671-6.31 6.06-6.597z" fill="#fff"/><path d="M20.156 28.273a.586.586 0 100-1.171.586.586 0 000 1.171z" fill="#fff"/></svg>