<svg width="85" height="85" fill="none" xmlns="http://www.w3.org/2000/svg"><g clip-path="url(#clip0)" fill="#4351D8"><path d="M3.32 34.225c0-4.7 1.152-9.135 3.422-13.179a1.66 1.66 0 00-2.895-1.625C1.33 23.903 0 29.023 0 34.225 0 40.34 1.542 46.95 4.23 52.357c2.657 5.346 3.368 11.414 2 17.085l-2.448 10.15a1.66 1.66 0 003.228.78L9.458 70.22c1.55-6.43.75-13.298-2.255-19.342C4.735 45.916 3.32 39.845 3.32 34.225zm80.786 14.7l-38.633-20.11L84.106 8.708a1.66 1.66 0 00-1.533-2.946L58.216 18.44C52.576 9.101 42.614 3.358 31.873 3.358c-6.097 0-12.026 1.661-17.144 4.806a1.66 1.66 0 101.737 2.829c4.596-2.823 9.924-4.315 15.408-4.315 9.504 0 18.331 5.059 23.391 13.298l-12.218 6.36a12.8 12.8 0 00-3.54-6.98 12.81 12.81 0 00-8.97-3.843 12.817 12.817 0 00-9.177 3.611 12.8 12.8 0 00-3.919 9.05v15.238a1.66 1.66 0 001.192 1.592l14.089 4.14a1.658 1.658 0 002.128-1.594v-4.09h2.182a4.946 4.946 0 004.94-4.94v-1.56h1.7a1.66 1.66 0 001.586-2.148l-.864-2.815 16.829 8.76L64.48 51.36h-6.65a1.66 1.66 0 00-1.66 1.66v8.523a7.033 7.033 0 01-7.026 7.025H38.97a1.66 1.66 0 00-1.636 1.375l-1.702 9.752a1.66 1.66 0 103.27.571l1.463-8.377h8.78c5.704 0 10.345-4.641 10.345-10.346V54.68h7.236a1.66 1.66 0 001.588-2.148l-2.956-9.624 17.215 8.961a1.66 1.66 0 101.533-2.945zM40.312 33.64a1.66 1.66 0 00-1.66 1.66v3.219c0 .893-.727 1.62-1.62 1.62h-3.843a1.66 1.66 0 00-1.66 1.66v3.534l-10.768-3.164V28.217c.097-5.26 4.447-9.465 9.722-9.384 5.188.084 9.408 4.375 9.408 9.565 0 .165.025.329.073.487l1.46 4.755h-1.112zM9.767 15.91a1.67 1.67 0 01-1.174-.487 1.676 1.676 0 01-.486-1.174c0-.438.177-.865.486-1.175a1.67 1.67 0 011.174-.487c.436 0 .865.178 1.173.487.309.31.487.737.487 1.175 0 .437-.178.864-.487 1.174a1.673 1.673 0 01-1.173.486z"/></g><defs><clipPath id="clip0"><path fill="#fff" d="M0 0h85v85H0z"/></clipPath></defs></svg>