<svg width="34" height="34" fill="none" xmlns="http://www.w3.org/2000/svg"><g clip-path="url(#clip0)" fill="#3E425B"><path d="M31.666 15.063l-.863-3.453a.522.522 0 00.413-.51v-.557a2.195 2.195 0 00-2.192-2.192h-3.932V7.202a1.08 1.08 0 00-1.078-1.078H3.972a1.08 1.08 0 00-1.079 1.078v9.465a.522.522 0 001.044 0V7.202c0-.019.016-.034.035-.034h20.042c.019 0 .035.015.035.034v9.465a.522.522 0 101.043 0v-.592h6.16c.758 0 1.4.498 1.622 1.183H31.25a.522.522 0 00-.522.522v1.114c0 .901.734 1.635 1.635 1.635h.592v2.296H31.59a3.31 3.31 0 00-3.124-2.227 3.31 3.31 0 00-3.123 2.227h-.252v-3.931a.522.522 0 10-1.044 0v3.931H13.22a3.31 3.31 0 00-3.124-2.227 3.31 3.31 0 00-3.124 2.227h-3a.035.035 0 01-.035-.035v-1.148H6.2a.522.522 0 000-1.044H1.19a.522.522 0 000 1.044h1.704v1.148a1.08 1.08 0 001.079 1.08h2.82l-.002.034a3.31 3.31 0 003.306 3.305 3.31 3.31 0 003.305-3.305v-.035h11.762l-.001.035a3.31 3.31 0 003.305 3.305 3.31 3.31 0 003.306-3.305l-.001-.035h1.706a.522.522 0 00.522-.522V17.78a2.753 2.753 0 00-2.334-2.717zm-6.574-5.668h3.932a1.15 1.15 0 011.148 1.148v.035h-5.08V9.395zm0 5.636v-3.41h4.638l.853 3.41h-5.49zM10.096 26.166a2.264 2.264 0 01-2.262-2.262 2.264 2.264 0 012.262-2.262 2.264 2.264 0 012.261 2.262 2.264 2.264 0 01-2.261 2.262zm18.372 0a2.264 2.264 0 01-2.262-2.262 2.264 2.264 0 012.262-2.262 2.264 2.264 0 012.261 2.262 2.264 2.264 0 01-2.261 2.262zm4.488-6.681h-.592a.592.592 0 01-.591-.591v-.592h1.183v1.183z"/><path d="M10.096 22.825a1.08 1.08 0 000 2.158 1.08 1.08 0 000-2.157zm18.371 0a1.08 1.08 0 000 2.158 1.08 1.08 0 000-2.157zm-6.123-2.227H14.55a.522.522 0 000 1.044h7.794a.522.522 0 100-1.044zM8.982 18.372h-6.68a.522.522 0 000 1.044h6.68a.522.522 0 000-1.044zm9.834-7.085a.522.522 0 00-.738 0l-4.642 4.641-2.414-2.414a.522.522 0 00-.738.738l2.783 2.784a.52.52 0 00.738 0l5.01-5.01a.522.522 0 000-.739z"/></g><defs><clipPath id="clip0"><path fill="#fff" transform="translate(.667)" d="M0 0h33.333v33.333H0z"/></clipPath></defs></svg>