<svg width="85" height="85" fill="none" xmlns="http://www.w3.org/2000/svg"><g clip-path="url(#clip0)" fill="#4351D8"><path d="M23.166 70.62c-4.503-.914-9.175-.783-13.511.379l-5.302 1.42a1.46 1.46 0 01-1.435-.384 1.46 1.46 0 01-.385-1.436l1.576-5.883c1.138-4.245 1.326-8.668.545-12.79a27.904 27.904 0 01-.468-5.182c0-1.801.157-3.545.468-5.182.781-4.122.593-8.545-.545-12.79l-1.576-5.884a1.46 1.46 0 01.385-1.436 1.46 1.46 0 011.435-.384l5.302 1.42a29.14 29.14 0 009.414.924 1.24 1.24 0 00-.158-2.473 26.667 26.667 0 01-8.615-.845l-5.301-1.42a3.925 3.925 0 00-3.83 1.025 3.925 3.925 0 00-1.026 3.83l1.576 5.884c1.042 3.888 1.216 7.929.503 11.687a30.393 30.393 0 00-.51 5.643c0 1.956.171 3.855.51 5.644.713 3.758.539 7.8-.503 11.687L.14 69.957a3.925 3.925 0 001.026 3.83 3.921 3.921 0 003.83 1.027l5.301-1.42c3.968-1.064 8.248-1.183 12.376-.345a1.24 1.24 0 00.494-2.43z"/><path d="M83.285 64.074c-1.042-3.887-1.216-7.928-.504-11.687.34-1.79.512-3.688.512-5.643 0-1.956-.172-3.854-.512-5.644-.712-3.758-.538-7.8.504-11.687l1.576-5.883a3.925 3.925 0 00-1.026-3.83 3.926 3.926 0 00-3.83-1.027l-5.301 1.421c-4.535 1.215-9.4 1.197-14.069-.053-5.245-1.405-11.346-2.117-18.135-2.117-6.789 0-12.89.712-18.136 2.117a1.24 1.24 0 10.642 2.394c5.035-1.349 10.921-2.032 17.494-2.032 6.572 0 12.458.684 17.494 2.032 5.088 1.363 10.396 1.38 15.351.053l5.302-1.42a1.46 1.46 0 011.435.384c.183.183.585.688.385 1.436l-1.577 5.883c-1.137 4.246-1.325 8.669-.544 12.791.31 1.637.468 3.38.468 5.182 0 1.8-.158 3.544-.468 5.181-.781 4.123-.593 8.546.544 12.79l1.577 5.884a1.46 1.46 0 01-.385 1.436 1.46 1.46 0 01-1.435.385l-5.302-1.421c-4.954-1.328-10.263-1.31-15.351.053-.847.227-1.725.436-2.625.626a16.71 16.71 0 001.842-5.106c2.666-.856 4.655-4.264 4.876-7.253.166-2.261-.715-3.626-1.483-4.373a5.077 5.077 0 00-.826-.645V46.52c0-7.71-6.273-13.984-13.983-13.984h-10.48c-7.711 0-13.984 6.273-13.984 13.984v7.714a5.099 5.099 0 00-.935.712c-.768.747-1.65 2.112-1.483 4.373.232 3.146 2.377 6.595 5.105 7.319 1.49 7.895 8.46 13.736 16.59 13.736 5.02 0 9.594-2.228 12.712-5.788a56.174 56.174 0 005.315-1.14c4.669-1.25 9.533-1.268 14.069-.053l5.301 1.421a3.921 3.921 0 003.83-1.026 3.925 3.925 0 001.026-3.83l-1.576-5.884zm-40.676 13.82c-7.21 0-13.35-5.382-14.283-12.52a1.235 1.235 0 00-1.246-1.078c-1.61.023-3.508-2.63-3.695-5.16-.077-1.05.171-1.862.739-2.414.538-.523 1.374-.84 2.418-.917.113-.008.223-.008.336 0a1.24 1.24 0 001.325-1.237v-5.296a3.917 3.917 0 013.913-3.912h13.193a1.24 1.24 0 100-2.479H32.116c-3.172 0-5.81 2.323-6.307 5.358V46.52c0-6.343 5.161-11.504 11.505-11.504h10.48c6.344 0 11.505 5.16 11.505 11.504v1.19c-.699-2.77-3.212-4.829-6.197-4.829h-1.733a1.24 1.24 0 100 2.479h1.733a3.916 3.916 0 013.912 3.912v5.288a1.24 1.24 0 001.24 1.24h.007c.077 0 .14.001.197.006 1.044.076 1.88.393 2.418.917.568.552.816 1.364.739 2.414-.18 2.45-1.985 5.052-3.575 5.156a1.24 1.24 0 00-1.148 1.077c-.93 7.14-7.07 12.525-14.283 12.525z"/><path d="M45.382 65.635c-.76.657-1.782 1.019-2.882 1.019s-2.123-.362-2.882-1.02a1.24 1.24 0 00-1.623 1.874c1.21 1.048 2.81 1.625 4.505 1.625 1.696 0 3.295-.578 4.505-1.625a1.24 1.24 0 10-1.623-1.873zm7.189-8.942a1.24 1.24 0 00-1.552.815 1.402 1.402 0 01-1.346.988c-.62 0-1.16-.397-1.345-.989a1.24 1.24 0 00-2.366.738 3.87 3.87 0 003.711 2.73 3.87 3.87 0 003.712-2.73 1.239 1.239 0 00-.814-1.552zm-13.315 1.552a1.24 1.24 0 10-2.367-.737 1.402 1.402 0 01-1.345.988c-.62 0-1.161-.397-1.345-.989a1.24 1.24 0 00-2.367.738 3.87 3.87 0 003.712 2.73 3.87 3.87 0 003.712-2.73zM62.977 37.92c0 1.018.584 1.351 1.584 1.351h7.423c.784 0 1.417-.4 1.417-1.15 0-.751-.633-1.152-1.417-1.152h-5.338l6.288-7.472c.25-.283.384-.65.384-.984 0-.95-.567-1.25-1.267-1.25h-7.206c-.784 0-1.418.4-1.418 1.15 0 .75.634 1.151 1.418 1.151h4.77l-6.188 7.306c-.25.3-.45.617-.45 1.05zm6.085-20.079h5.81c.421 0 .92-.234.92-.89s-.499-.89-.92-.89h-3.749l4.217-4.623c.219-.234.36-.516.36-.765 0-.594-.329-1-.938-1h-5.42c-.42 0-.92.234-.92.89s.5.89.92.89h3.296l-4.294 4.67c-.204.219-.297.5-.297.828 0 .453.343.89 1.015.89zm-9.146-7.103h4.348c.315 0 .69-.175.69-.666 0-.49-.375-.666-.69-.666h-2.805l3.155-3.459c.164-.175.27-.386.27-.573 0-.444-.246-.747-.702-.747h-4.055c-.316 0-.69.175-.69.666 0 .49.374.666.69.666h2.466l-3.214 3.494a.877.877 0 00-.222.62c0 .338.257.665.76.665z"/></g><defs><clipPath id="clip0"><path fill="#fff" d="M0 0h85v85H0z"/></clipPath></defs></svg>