<svg width="85" height="85" fill="none" xmlns="http://www.w3.org/2000/svg"><g clip-path="url(#clip0)" fill="#4351D8"><path d="M42.527 53.833h-2.168a.07.07 0 01-.07-.07v-3.295a1.244 1.244 0 00-2.489 0v3.295a2.561 2.561 0 002.559 2.559h2.168a3.008 3.008 0 013.004 3.004v11.307c0 .33-.104.645-.3.91l-4.835 6.548a1.244 1.244 0 00-.243.74v4.925a1.244 1.244 0 002.489 0V79.24l4.59-6.218a3.994 3.994 0 00.788-2.389V59.326a5.499 5.499 0 00-5.493-5.493zM37.8 45.165a1.244 1.244 0 002.489 0V33.16a5.172 5.172 0 00-5.166-5.166 5.172 5.172 0 00-5.166 5.166v11.233a4.513 4.513 0 00-2.052-.493h-1.25a4.533 4.533 0 00-3.607 1.788 4.52 4.52 0 00-2.986-1.124h-1.25a4.54 4.54 0 00-3.828 2.104 4.517 4.517 0 00-2.765-.943H10.97a4.546 4.546 0 00-4.541 4.541v10.721a1.244 1.244 0 002.488 0v-10.72c0-1.132.921-2.053 2.053-2.053h1.25c1.131 0 2.052.92 2.052 2.052v.325a1.244 1.244 0 002.489 0v-1.486c0-1.132.92-2.052 2.052-2.052h1.25c1.131 0 2.052.92 2.052 2.052v1.486a1.244 1.244 0 002.488 0v-1.486a4.54 4.54 0 00-.021-.438c.013-.073.021-.148.021-.226 0-1.131.921-2.052 2.053-2.052h1.25c1.13 0 2.052.92 2.052 2.052v2.15a1.244 1.244 0 002.488 0V33.16a2.68 2.68 0 012.677-2.677A2.68 2.68 0 0137.8 33.16v12.005zM9.657 73.28a3.484 3.484 0 01-.74-2.14v-4.85a1.244 1.244 0 00-2.488 0v4.85a5.98 5.98 0 001.27 3.677l1.84 2.345v6.594a1.244 1.244 0 002.488 0v-7.024c0-.278-.094-.549-.266-.768l-2.104-2.683zm55.514-58.728l-6.479-2.194-3.91-3.91a1.244 1.244 0 10-1.76 1.759l3.236 3.236-6.798 6.798A1.244 1.244 0 1051.22 22l7.131-7.132 6.022 2.04a.835.835 0 01.554.61.836.836 0 01-.226.792L44.703 38.309a.821.821 0 01-.629.245 1.244 1.244 0 10-.105 2.486l.146.003c.887 0 1.716-.343 2.347-.974l5.79-5.79a5.8 5.8 0 003.872 1.468 5.808 5.808 0 004.132-1.711l.17-.171a5.85 5.85 0 00.244-8.004l5.79-5.79a3.316 3.316 0 00.89-3.118 3.316 3.316 0 00-2.179-2.401zm-6.504 17.553l-.17.17a3.332 3.332 0 01-2.373.983 3.33 3.33 0 01-2.07-.714l4.881-4.881a3.36 3.36 0 01-.268 4.442zM29.21 9.18c-2.612 5.273-1.73 11.852 2.656 16.237l.037.037a1.24 1.24 0 001.76.002 1.244 1.244 0 00.002-1.76l-.038-.038c-4.528-4.528-4.528-11.895 0-16.423a11.57 11.57 0 017.742-3.39A11.576 11.576 0 0149.31 6.56a1.244 1.244 0 101.604-1.903 14.062 14.062 0 00-9.645-3.3 14.07 14.07 0 00-5.702 1.456L34.07 1.316a4.504 4.504 0 00-6.362 0 4.47 4.47 0 00-1.318 3.18c0 1.203.468 2.332 1.318 3.182L29.21 9.18zm.257-6.105a2.013 2.013 0 012.843 0l1.08 1.08A14.168 14.168 0 0030.549 7l-1.082-1.081a1.997 1.997 0 01-.589-1.421c0-.537.21-1.042.589-1.422z"/><path d="M45.772 23.93l-.732.731a1.244 1.244 0 101.76 1.76l.732-.732a1.244 1.244 0 10-1.76-1.76zm-26.877 2.442a1.244 1.244 0 00.866-2.137 7.14 7.14 0 01-2.191-5.164 7.14 7.14 0 012.191-5.164 1.244 1.244 0 10-1.733-1.786 9.608 9.608 0 00-2.947 6.95 9.608 9.608 0 002.947 6.95c.242.234.554.351.867.351z"/><path d="M21.752 22.688a1.243 1.243 0 101.595-1.91 2.219 2.219 0 010-3.414 1.245 1.245 0 00-1.595-1.91 4.701 4.701 0 00-1.694 3.617 4.7 4.7 0 001.694 3.616zM75.624 12.12a1.244 1.244 0 00-1.733 1.787 7.14 7.14 0 012.192 5.164 7.14 7.14 0 01-2.192 5.164 1.244 1.244 0 101.733 1.786 9.61 9.61 0 002.948-6.95 9.609 9.609 0 00-2.948-6.95z"/><path d="M71.901 15.454a1.244 1.244 0 00-1.595 1.91 2.22 2.22 0 010 3.413 1.244 1.244 0 101.595 1.91 4.7 4.7 0 001.693-3.616c0-1.4-.617-2.718-1.693-3.617z"/></g><defs><clipPath id="clip0"><path fill="#fff" d="M0 0h85v85H0z"/></clipPath></defs></svg>