<svg width="75" height="13" fill="none" xmlns="http://www.w3.org/2000/svg"><path fill-rule="evenodd" clip-rule="evenodd" d="M5.965.018c0 .011-.071.019-.18.019-.107 0-.179.007-.179.018 0 .01-.048.018-.108.018s-.107.009-.107.019-.048.018-.108.018-.108.008-.108.019c0 .01-.032.018-.072.018-.04 0-.072.008-.072.018 0 .01-.032.019-.072.019-.04 0-.072.008-.072.018 0 .01-.032.018-.071.018-.04 0-.072.009-.072.019s-.033.018-.072.018c-.04 0-.072.008-.072.018 0 .01-.024.019-.054.019s-.054.008-.054.018c0 .01-.024.019-.054.019s-.054.008-.054.018c0 .01-.024.018-.054.018s-.054.008-.054.019c0 .01-.024.018-.053.018-.03 0-.054.008-.054.018 0 .01-.017.019-.036.019-.02 0-.036.008-.036.018 0 .01-.024.018-.054.018s-.054.009-.054.019-.016.018-.036.018c-.02 0-.036.008-.036.018 0 .01-.016.019-.036.019-.02 0-.036.008-.036.018 0 .01-.024.019-.054.019s-.054.008-.054.018c0 .01-.016.018-.036.018-.02 0-.035.009-.035.019S3.649.66 3.63.66c-.02 0-.036.008-.036.018 0 .01-.016.019-.036.019-.02 0-.036.008-.036.018 0 .01-.016.018-.036.018-.02 0-.036.009-.036.019S3.436.77 3.418.77c-.018 0-.044.017-.058.037-.014.02-.04.037-.058.037-.017 0-.032.008-.032.018 0 .01-.016.018-.036.018-.02 0-.036.009-.036.019s-.014.018-.032.018c-.017 0-.043.017-.057.037-.015.02-.04.037-.058.037-.018 0-.032.008-.032.018 0 .01-.015.018-.032.018-.018 0-.044.017-.058.037-.014.02-.039.037-.054.037s-.04.016-.054.036c-.014.02-.037.037-.05.037-.014 0-.048.025-.076.055-.027.03-.06.055-.072.055-.011 0-.044.025-.071.055-.028.03-.06.055-.072.055-.012 0-.052.034-.09.074-.038.04-.078.073-.09.073a.742.742 0 00-.144.129.774.774 0 01-.143.128c-.025 0-.324.306-.324.332 0 .01-.057.076-.126.146a.75.75 0 00-.126.147.294.294 0 01-.071.092c-.04.038-.072.08-.072.092 0 .012-.025.044-.054.073-.03.028-.054.063-.054.077 0 .013-.016.037-.036.051-.02.015-.036.04-.036.055 0 .016-.016.04-.036.055-.02.015-.036.04-.036.056 0 .015-.016.04-.036.055-.02.014-.036.04-.036.059 0 .018-.008.032-.018.032-.01 0-.018.015-.018.033 0 .018-.016.045-.036.06-.02.014-.036.04-.036.058 0 .018-.008.033-.017.033-.01 0-.018.015-.018.033 0 .018-.017.044-.036.059-.02.014-.036.041-.036.059 0 .018-.008.033-.018.033-.01 0-.018.016-.018.036 0 .02-.008.037-.018.037-.01 0-.018.017-.018.037 0 .02-.008.037-.018.037-.01 0-.018.016-.018.036 0 .02-.008.037-.018.037-.01 0-.018.017-.018.037 0 .02-.008.036-.018.036-.01 0-.018.025-.018.056 0 .03-.008.055-.018.055-.01 0-.018.016-.018.036 0 .02-.008.037-.018.037-.01 0-.018.017-.018.037 0 .02-.008.037-.018.037-.01 0-.018.024-.018.055 0 .03-.008.055-.018.055-.01 0-.018.016-.018.036 0 .02-.008.037-.018.037-.01 0-.018.025-.018.055s-.008.055-.018.055c-.01 0-.018.025-.018.055s-.008.056-.018.056c-.01 0-.018.024-.018.055 0 .03-.008.055-.018.055-.01 0-.018.024-.018.055 0 .03-.008.055-.017.055-.01 0-.018.025-.018.055s-.009.055-.018.055c-.01 0-.018.033-.018.073 0 .04-.008.074-.018.074-.01 0-.018.033-.018.073 0 .04-.008.074-.018.074-.01 0-.018.041-.018.092 0 .05-.008.091-.018.091-.01 0-.018.05-.018.11 0 .062-.008.11-.018.11-.01 0-.018.056-.018.13 0 .073-.008.128-.018.128-.011 0-.018.086-.018.22 0 .135-.007.22-.018.22S0 6.292 0 6.5c0 .208.007.33.018.33.01 0 .018.086.018.22 0 .135.007.221.018.221.01 0 .018.055.018.129 0 .073.008.128.018.128.01 0 .018.05.018.11 0 .062.008.11.018.11.01 0 .018.042.018.092 0 .05.008.092.018.092.01 0 .018.033.018.074 0 .04.008.073.018.073.01 0 .018.033.018.074 0 .04.008.073.018.073.01 0 .018.025.018.055s.008.055.018.055c.01 0 .017.033.017.074 0 .04.009.073.018.073.01 0 .018.025.018.055s.009.055.018.055c.01 0 .018.025.018.055s.008.055.018.055c.01 0 .018.017.018.037 0 .02.008.037.018.037.01 0 .018.025.018.055s.008.055.018.055c.01 0 .018.017.018.037 0 .02.008.036.018.036.01 0 .018.025.018.056 0 .03.008.055.018.055.01 0 .018.016.018.036 0 .02.008.037.018.037.01 0 .018.017.018.037 0 .02.008.037.018.037.01 0 .018.016.018.036 0 .02.008.037.018.037.01 0 .018.016.018.037 0 .02.008.036.018.036.01 0 .018.017.018.037 0 .02.008.037.018.037.01 0 .018.016.018.037 0 .02.008.036.018.036.01 0 .018.017.018.037 0 .02.008.037.018.037.01 0 .018.014.018.032 0 .018.016.045.036.06.02.014.035.04.035.059 0 .018.009.032.018.032.01 0 .018.015.018.033 0 .018.017.045.036.06.02.014.036.04.036.058 0 .018.008.033.018.033.01 0 .018.015.018.033 0 .018.016.044.036.059.02.014.036.038.036.052 0 .014.024.048.054.076.03.029.054.062.054.074 0 .012.024.045.054.073.03.028.054.062.054.074 0 .012.024.045.054.073.03.028.054.061.054.073 0 .011.048.07.107.13.06.059.108.116.108.127 0 .025.48.515.504.515a.43.43 0 01.107.091.408.408 0 00.108.092c.011 0 .052.033.09.074.038.04.078.073.09.073.012 0 .044.025.071.055.028.03.062.055.076.055.013 0 .036.017.05.037.014.02.039.037.054.037.016 0 .04.016.054.037.014.02.039.036.054.036s.04.017.054.037c.014.02.038.037.054.037.015 0 .04.016.054.037.014.02.04.036.058.036.017 0 .031.008.031.019 0 .01.017.018.036.018.02 0 .036.008.036.018 0 .01.015.019.032.019.018 0 .044.016.058.036.014.02.04.037.058.037.018 0 .032.008.032.018 0 .01.016.019.036.019.02 0 .036.008.036.018 0 .01.016.018.036.018.02 0 .036.009.036.019s.016.018.036.018c.02 0 .036.008.036.019 0 .01.016.018.036.018.02 0 .036.008.036.018 0 .01.016.019.035.019.02 0 .036.008.036.018 0 .01.017.018.036.018.02 0 .036.009.036.019s.025.018.054.018c.03 0 .054.008.054.018 0 .01.016.019.036.019.02 0 .036.008.036.018 0 .01.024.019.054.019s.054.008.054.018c0 .01.016.018.036.018.02 0 .036.009.036.019s.024.018.054.018.053.008.053.018c0 .01.025.019.054.019.03 0 .054.008.054.018 0 .01.025.018.054.018.03 0 .054.009.054.019s.024.018.054.018.054.008.054.019c0 .01.024.018.054.018s.054.008.054.018c0 .01.032.019.072.019.04 0 .071.008.071.018 0 .01.033.018.072.018.04 0 .072.009.072.019s.04.018.09.018c.05 0 .09.008.09.018 0 .01.04.019.09.019.05 0 .09.008.09.018 0 .01.053.019.125.019.072 0 .126.007.126.018 0 .01.066.018.162.018s.162.008.162.019.21.018.593.018.592-.007.592-.018.066-.019.162-.019.162-.007.162-.018c0-.01.054-.018.126-.018.072 0 .125-.008.125-.019 0-.01.04-.018.09-.018.05 0 .09-.008.09-.019 0-.01.04-.018.09-.018.05 0 .09-.008.09-.018 0-.01.032-.019.072-.019.04 0 .072-.008.072-.018 0-.01.032-.018.071-.018.04 0 .072-.009.072-.019s.025-.018.054-.018c.03 0 .054-.008.054-.018 0-.01.032-.019.072-.019.04 0 .072-.008.072-.018 0-.01.024-.019.054-.019s.054-.008.054-.018c0-.01.024-.018.054-.018s.054-.008.054-.019c0-.01.016-.018.035-.018.02 0 .036-.008.036-.018 0-.01.025-.019.054-.019.03 0 .054-.008.054-.018 0-.01.016-.018.036-.018.02 0 .036-.009.036-.019s.024-.018.054-.018.054-.008.054-.019c0-.01.016-.018.036-.018.02 0 .036-.008.036-.018 0-.01.016-.019.036-.019.02 0 .036-.008.036-.018 0-.01.016-.018.036-.018.02 0 .035-.009.035-.019s.017-.018.036-.018c.02 0 .036-.008.036-.018 0-.01.017-.019.036-.019.02 0 .036-.008.036-.018 0-.01.016-.019.036-.019.02 0 .036-.008.036-.018 0-.01.016-.018.036-.018.02 0 .036-.008.036-.018 0-.01.016-.019.036-.019.02 0 .036-.008.036-.018 0-.01.016-.019.036-.019.02 0 .036-.008.036-.018 0-.01.014-.018.032-.018.017 0 .043-.017.058-.037.014-.02.04-.037.057-.037.018 0 .032-.008.032-.018 0-.01.015-.018.032-.018.018 0 .044-.017.058-.037.014-.02.039-.037.054-.037.016 0 .04-.017.054-.037.014-.02.039-.036.054-.036s.04-.017.054-.037c.014-.02.037-.037.05-.037.014 0 .048-.025.076-.055.027-.03.06-.055.071-.055.012 0 .045-.025.072-.055.028-.03.06-.055.072-.055a.56.56 0 00.126-.11.59.59 0 01.125-.11c.025 0 .576-.564.576-.59 0-.01.04-.06.09-.108.05-.05.09-.1.09-.111 0-.012.024-.045.053-.073.03-.028.054-.061.054-.073 0-.012.025-.046.054-.074.03-.028.054-.063.054-.077 0-.014.016-.037.036-.051.02-.015.036-.04.036-.055 0-.016.016-.04.036-.055.02-.015.036-.04.036-.056 0-.015.016-.04.036-.055.02-.014.036-.04.036-.059 0-.018.008-.032.018-.032.01 0 .018-.015.018-.033 0-.018.016-.045.036-.06.02-.014.036-.04.036-.058 0-.018.008-.033.018-.033.01 0 .018-.017.018-.037 0-.02.008-.037.018-.037.01 0 .017-.016.017-.036 0-.02.008-.037.018-.037.01 0 .018-.017.018-.037 0-.02.009-.036.018-.036.01 0 .018-.017.018-.037 0-.02.008-.037.018-.037.01 0 .018-.016.018-.037 0-.02.008-.036.018-.036.01 0 .018-.017.018-.037 0-.02.008-.037.018-.037.01 0 .018-.016.018-.036 0-.02.008-.037.018-.037.01 0 .018-.017.018-.037 0-.02.008-.037.018-.037.01 0 .018-.024.018-.055 0-.03.008-.055.018-.055.01 0 .018-.016.018-.037 0-.02.008-.036.018-.036.01 0 .018-.025.018-.055s.008-.055.018-.055c.01 0 .018-.025.018-.056 0-.03.008-.055.018-.055.01 0 .018-.016.018-.036 0-.02.008-.037.018-.037.01 0 .018-.033.018-.074 0-.04.008-.073.018-.073.01 0 .018-.025.018-.055s.008-.055.018-.055c.01 0 .018-.025.018-.055s.008-.055.018-.055c.01 0 .018-.033.018-.074 0-.04.008-.073.018-.073.01 0 .017-.041.017-.092 0-.05.008-.092.018-.092.01 0 .018-.041.018-.092 0-.05.008-.091.018-.091.01 0 .018-.05.018-.11 0-.062.008-.11.018-.11.01 0 .018-.056.018-.13 0-.073.008-.128.018-.128.011 0 .018-.098.018-.257s.007-.257.018-.257.018-.092.018-.239-.007-.238-.018-.238-.018-.104-.018-.276c0-.171-.007-.275-.018-.275-.01 0-.018-.055-.018-.129 0-.073-.007-.128-.018-.128-.01 0-.018-.05-.018-.11 0-.062-.008-.11-.018-.11-.01 0-.018-.042-.018-.092 0-.05-.008-.092-.018-.092-.01 0-.018-.033-.018-.074 0-.04-.008-.073-.018-.073-.01 0-.018-.033-.018-.074 0-.04-.008-.073-.018-.073-.01 0-.018-.033-.018-.073 0-.04-.008-.074-.017-.074-.01 0-.018-.025-.018-.055s-.008-.055-.018-.055c-.01 0-.018-.025-.018-.055s-.008-.055-.018-.055c-.01 0-.018-.025-.018-.055s-.008-.055-.018-.055c-.01 0-.018-.025-.018-.055s-.008-.056-.018-.056c-.01 0-.018-.016-.018-.036 0-.02-.008-.037-.018-.037-.01 0-.018-.025-.018-.055s-.008-.055-.018-.055c-.01 0-.018-.017-.018-.037 0-.02-.008-.037-.018-.037-.01 0-.018-.024-.018-.055 0-.03-.008-.055-.018-.055-.01 0-.018-.016-.018-.037 0-.02-.008-.036-.018-.036-.01 0-.018-.017-.018-.037 0-.02-.008-.037-.018-.037-.01 0-.018-.016-.018-.036 0-.02-.008-.037-.018-.037-.01 0-.018-.017-.018-.037 0-.02-.008-.037-.018-.037-.01 0-.018-.016-.018-.036 0-.02-.008-.037-.018-.037-.01 0-.018-.015-.018-.033 0-.018-.016-.044-.035-.059-.02-.014-.036-.041-.036-.059 0-.018-.008-.033-.018-.033-.01 0-.018-.016-.018-.036 0-.02-.008-.037-.018-.037-.01 0-.018-.015-.018-.033 0-.018-.017-.044-.036-.059-.02-.014-.036-.04-.036-.055 0-.016-.016-.04-.036-.055-.02-.015-.036-.04-.036-.055 0-.016-.016-.04-.036-.055-.02-.015-.036-.04-.036-.055 0-.016-.016-.04-.036-.055-.02-.015-.036-.038-.036-.052 0-.014-.024-.049-.054-.077-.03-.028-.054-.061-.054-.073 0-.012-.024-.046-.053-.074-.03-.028-.054-.06-.054-.072a.566.566 0 00-.108-.13.6.6 0 01-.108-.127c0-.026-.443-.479-.468-.479a.591.591 0 01-.125-.11.56.56 0 00-.127-.11c-.011 0-.043-.025-.07-.055-.028-.03-.06-.055-.072-.055-.012 0-.045-.025-.072-.055-.028-.03-.062-.055-.075-.055-.014 0-.037-.017-.051-.037-.014-.02-.039-.037-.054-.037-.016 0-.04-.016-.054-.037-.014-.02-.039-.036-.054-.036s-.04-.017-.054-.037c-.014-.02-.038-.037-.054-.037-.015 0-.04-.016-.054-.036-.014-.02-.04-.037-.057-.037-.018 0-.032-.008-.032-.019 0-.01-.015-.018-.032-.018-.018 0-.044-.016-.058-.037-.015-.02-.04-.036-.058-.036-.018 0-.032-.009-.032-.019S9.723.808 9.703.808c-.02 0-.036-.008-.036-.018 0-.01-.016-.019-.036-.019-.02 0-.036-.008-.036-.018 0-.01-.016-.019-.036-.019-.02 0-.036-.008-.036-.018 0-.01-.016-.018-.036-.018-.02 0-.036-.009-.036-.019S9.435.661 9.415.661c-.02 0-.036-.008-.036-.018 0-.01-.016-.019-.035-.019-.02 0-.036-.008-.036-.018 0-.01-.017-.018-.036-.018-.02 0-.036-.009-.036-.019S9.21.551 9.182.551c-.03 0-.054-.008-.054-.019 0-.01-.016-.018-.036-.018-.02 0-.036-.008-.036-.018 0-.01-.016-.019-.036-.019C9 .477 8.984.47 8.984.46c0-.01-.024-.018-.054-.018s-.054-.01-.054-.02-.024-.018-.054-.018S8.77.396 8.77.386c0-.01-.025-.019-.054-.019-.03 0-.054-.008-.054-.018 0-.01-.024-.018-.054-.018S8.553.322 8.553.312 8.529.294 8.499.294 8.445.286 8.445.275c0-.01-.024-.018-.054-.018S8.337.25 8.337.24c0-.01-.032-.019-.072-.019-.04 0-.071-.008-.071-.018 0-.01-.033-.018-.072-.018-.04 0-.072-.009-.072-.019S8.01.147 7.96.147c-.05 0-.09-.008-.09-.018 0-.01-.048-.019-.108-.019S7.655.102 7.655.092c0-.01-.048-.019-.108-.019S7.439.065 7.439.055c0-.01-.072-.018-.18-.018S7.08.029 7.08.018 6.883 0 6.524 0c-.36 0-.558.007-.558.018zm.863.992c0 .011.078.018.198.018.12 0 .197.007.197.019 0 .01.048.018.108.018s.108.008.108.018c0 .01.04.019.09.019.05 0 .09.008.09.018 0 .01.04.018.09.018.049 0 .09.009.09.019s.024.018.053.018c.03 0 .054.008.054.018 0 .01.032.019.072.019.04 0 .072.008.072.018 0 .01.024.019.054.019s.054.008.054.018c0 .01.024.018.054.018s.053.009.053.019.025.018.054.018c.03 0 .054.008.054.018 0 .01.025.019.054.019.03 0 .054.008.054.018 0 .01.016.018.036.018.02 0 .036.009.036.019s.024.018.054.018.054.008.054.019c0 .01.016.018.036.018.02 0 .036.008.036.018 0 .01.016.019.036.019.02 0 .036.008.036.018 0 .01.016.018.035.018.02 0 .036.009.036.019s.017.018.036.018c.02 0 .036.008.036.018 0 .01.016.019.036.019.02 0 .036.008.036.018 0 .01.016.019.036.019.02 0 .036.008.036.018 0 .01.014.018.032.018.018 0 .044.017.058.037.014.02.04.037.058.037.017 0 .032.008.032.018 0 .01.014.018.032.018.017 0 .043.017.058.037.014.02.038.037.053.037.016 0 .04.016.054.037.015.02.039.036.054.036.016 0 .04.017.054.037.014.02.037.037.05.037.014 0 .048.025.076.055.028.03.06.055.072.055.012 0 .044.025.072.055.027.03.059.055.07.055.026 0 .756.746.756.773a.3.3 0 00.072.09c.04.039.072.08.072.092 0 .012.024.045.054.073.03.029.054.063.054.077 0 .014.016.037.036.052.02.014.036.04.036.055 0 .016.016.04.036.055.02.015.036.04.036.055 0 .016.016.04.035.055.02.015.036.041.036.06 0 .017.008.032.018.032.01 0 .018.017.018.037 0 .02.008.036.018.036.01 0 .018.015.018.033 0 .018.016.045.036.06.02.014.036.04.036.058 0 .018.008.033.018.033.01 0 .018.017.018.037 0 .02.008.037.018.037.01 0 .018.016.018.036 0 .02.008.037.018.037.01 0 .018.017.018.037 0 .02.008.036.018.036.01 0 .018.025.018.056 0 .03.008.055.018.055.01 0 .018.016.018.036 0 .02.008.037.018.037.01 0 .018.017.018.037 0 .02.008.037.018.037.01 0 .018.024.018.055 0 .03.008.055.018.055.01 0 .018.024.018.055 0 .03.008.055.018.055.01 0 .018.025.018.055s.008.055.018.055c.01 0 .018.025.018.055s.008.055.018.055c.01 0 .017.025.017.055s.008.055.018.055c.01 0 .018.033.018.074 0 .04.008.073.018.073.01 0 .018.033.018.074 0 .04.008.073.018.073.01 0 .018.033.018.074 0 .04.008.073.018.073.01 0 .018.049.018.11s.008.11.018.11c.01 0 .018.062.018.147 0 .086.008.147.018.147.012 0 .018.202.018.57 0 .367-.006.569-.018.569-.01 0-.018.055-.018.128 0 .074-.008.129-.018.129-.01 0-.018.049-.018.11s-.008.11-.018.11c-.01 0-.018.033-.018.073 0 .04-.008.074-.018.074-.01 0-.018.033-.018.073 0 .04-.008.074-.018.074-.01 0-.018.033-.018.073 0 .04-.008.074-.018.074-.01 0-.018.024-.018.055 0 .03-.008.055-.018.055-.01 0-.018.025-.018.055s-.008.055-.018.055c-.01 0-.017.025-.017.055s-.008.055-.018.055c-.01 0-.018.025-.018.055s-.008.055-.018.055c-.01 0-.018.025-.018.055s-.008.056-.018.056c-.01 0-.018.016-.018.036 0 .02-.008.037-.018.037-.01 0-.018.016-.018.037 0 .02-.008.036-.018.036-.01 0-.018.025-.018.055s-.008.056-.018.056c-.01 0-.018.016-.018.036 0 .02-.008.037-.018.037-.01 0-.018.017-.018.037 0 .02-.008.036-.018.036-.01 0-.018.017-.018.037 0 .02-.008.037-.018.037-.01 0-.018.016-.018.037 0 .02-.008.036-.018.036-.01 0-.018.015-.018.033 0 .018-.016.045-.036.06-.02.014-.036.04-.036.058 0 .018-.008.033-.018.033-.01 0-.018.015-.018.033 0 .018-.016.044-.036.059-.02.014-.035.04-.035.055 0 .016-.017.04-.036.055-.02.014-.036.04-.036.055 0 .016-.017.04-.036.055-.02.015-.036.038-.036.052 0 .014-.025.048-.054.077-.03.028-.054.061-.054.073 0 .012-.024.045-.054.074-.03.028-.054.06-.054.072a.74.74 0 01-.126.148.782.782 0 00-.125.146.72.72 0 01-.117.139.688.688 0 01-.135.119.774.774 0 00-.144.128.745.745 0 01-.144.129.306.306 0 00-.09.073c-.037.04-.078.074-.09.074-.011 0-.043.025-.071.055-.028.03-.062.055-.075.055-.014 0-.037.017-.05.037-.015.02-.04.036-.055.036s-.04.017-.054.037c-.014.02-.04.037-.057.037-.018 0-.032.008-.032.018 0 .01-.015.019-.032.019-.018 0-.044.016-.058.036-.015.02-.04.037-.058.037-.018 0-.032.008-.032.018 0 .01-.016.019-.036.019-.02 0-.036.008-.036.018 0 .01-.016.018-.036.018-.02 0-.036.009-.036.019s-.016.018-.036.018c-.02 0-.036.008-.036.018 0 .01-.016.019-.036.019-.02 0-.036.008-.036.018 0 .01-.016.019-.036.019-.02 0-.035.008-.035.018 0 .01-.017.018-.036.018-.02 0-.036.009-.036.019s-.017.018-.036.018c-.02 0-.036.008-.036.018 0 .01-.024.019-.054.019s-.054.008-.054.018c0 .01-.016.018-.036.018-.02 0-.036.009-.036.019s-.024.018-.054.018-.054.008-.054.019c0 .01-.024.018-.054.018s-.054.008-.054.018c0 .01-.024.019-.053.019-.03 0-.054.008-.054.018 0 .01-.025.018-.054.018-.03 0-.054.009-.054.019s-.024.018-.054.018-.054.008-.054.018c0 .01-.032.019-.072.019-.04 0-.072.008-.072.018 0 .01-.032.019-.072.019-.04 0-.071.008-.071.018 0 .01-.04.018-.09.018-.05 0-.09.009-.09.019s-.054.018-.126.018c-.072 0-.126.008-.126.018 0 .011-.072.019-.18.019-.107 0-.18.007-.18.018 0 .012-.125.018-.34.018-.216 0-.342-.006-.342-.018 0-.01-.072-.018-.18-.018-.107 0-.18-.008-.18-.019 0-.01-.053-.018-.125-.018-.072 0-.126-.008-.126-.018 0-.01-.04-.019-.09-.019-.05 0-.09-.008-.09-.018 0-.01-.032-.018-.071-.018-.04 0-.072-.009-.072-.019s-.033-.018-.072-.018c-.04 0-.072-.008-.072-.018 0-.01-.024-.019-.054-.019s-.054-.008-.054-.018c0-.01-.024-.019-.054-.019s-.054-.008-.054-.018c0-.01-.024-.018-.054-.018s-.053-.009-.053-.019-.025-.018-.054-.018c-.03 0-.054-.008-.054-.018 0-.01-.024-.019-.054-.019s-.054-.008-.054-.018c0-.01-.016-.018-.036-.018-.02 0-.036-.009-.036-.019s-.024-.018-.054-.018-.054-.008-.054-.019c0-.01-.016-.018-.036-.018-.02 0-.036-.008-.036-.018 0-.01-.016-.019-.036-.019-.02 0-.035-.008-.035-.018 0-.01-.017-.018-.036-.018-.02 0-.036-.009-.036-.019s-.017-.018-.036-.018c-.02 0-.036-.008-.036-.018 0-.01-.016-.019-.036-.019-.02 0-.036-.008-.036-.018 0-.01-.016-.018-.036-.018-.02 0-.036-.009-.036-.019s-.016-.018-.036-.018c-.02 0-.036-.008-.036-.019 0-.01-.014-.018-.032-.018-.017 0-.043-.016-.058-.037-.014-.02-.038-.036-.054-.036-.015 0-.04-.017-.053-.037-.015-.02-.04-.037-.058-.037-.018 0-.032-.008-.032-.018 0-.01-.013-.019-.03-.019-.015 0-.05-.024-.078-.055-.028-.03-.062-.055-.075-.055-.014 0-.037-.016-.05-.037-.015-.02-.038-.036-.051-.036-.014 0-.056-.033-.094-.074a.294.294 0 00-.089-.073.942.942 0 01-.162-.147.975.975 0 00-.162-.147.623.623 0 01-.18-.184.773.773 0 00-.125-.146.75.75 0 01-.126-.148.294.294 0 00-.072-.091c-.04-.039-.072-.08-.072-.092 0-.012-.024-.045-.054-.073-.03-.029-.054-.063-.054-.077 0-.014-.016-.037-.036-.052-.02-.014-.036-.04-.036-.055 0-.016-.016-.04-.036-.055-.02-.015-.035-.04-.035-.055 0-.016-.017-.04-.036-.055-.02-.015-.036-.041-.036-.06 0-.017-.008-.032-.018-.032-.01 0-.018-.017-.018-.037 0-.02-.008-.036-.018-.036-.01 0-.018-.015-.018-.033 0-.018-.016-.045-.036-.06-.02-.014-.036-.04-.036-.058 0-.018-.008-.033-.018-.033-.01 0-.018-.017-.018-.037 0-.02-.008-.037-.018-.037-.01 0-.018-.016-.018-.036 0-.02-.008-.037-.018-.037-.01 0-.018-.017-.018-.037 0-.02-.008-.036-.018-.036-.01 0-.018-.025-.018-.056 0-.03-.008-.055-.018-.055-.01 0-.018-.016-.018-.036 0-.02-.008-.037-.018-.037-.01 0-.018-.017-.018-.037 0-.02-.008-.037-.018-.037-.01 0-.018-.024-.018-.055 0-.03-.008-.055-.018-.055-.01 0-.018-.024-.018-.055 0-.03-.008-.055-.018-.055-.01 0-.018-.025-.018-.055s-.008-.055-.018-.055c-.01 0-.017-.025-.017-.055s-.009-.055-.018-.055c-.01 0-.018-.025-.018-.055s-.008-.055-.018-.055c-.01 0-.018-.033-.018-.074 0-.04-.008-.073-.018-.073-.01 0-.018-.033-.018-.074 0-.04-.008-.073-.018-.073-.01 0-.018-.041-.018-.092 0-.05-.008-.092-.018-.092-.01 0-.018-.041-.018-.092 0-.05-.008-.091-.018-.091-.01 0-.018-.062-.018-.147 0-.086-.008-.147-.018-.147-.012 0-.018-.196-.018-.551 0-.355.006-.55.018-.55.01 0 .018-.062.018-.148 0-.085.007-.147.018-.147.01 0 .018-.041.018-.091 0-.05.008-.092.018-.092.01 0 .018-.042.018-.092 0-.05.008-.092.018-.092.01 0 .018-.033.018-.073 0-.04.008-.074.018-.074.01 0 .018-.033.018-.073 0-.04.008-.074.018-.074.01 0 .018-.024.018-.055 0-.03.008-.055.018-.055.01 0 .018-.025.018-.055s.008-.055.018-.055c.01 0 .017-.025.017-.055s.009-.055.018-.055c.01 0 .018-.025.018-.055s.008-.055.018-.055c.01 0 .018-.017.018-.037 0-.02.008-.037.018-.037.01 0 .018-.025.018-.055s.008-.055.018-.055c.01 0 .018-.016.018-.037 0-.02.008-.036.018-.036.01 0 .018-.017.018-.037 0-.02.008-.037.018-.037.01 0 .018-.025.018-.055s.008-.055.018-.055c.01 0 .018-.017.018-.037 0-.02.008-.036.018-.036.01 0 .018-.015.018-.033 0-.018.016-.045.036-.06.02-.014.036-.04.036-.058 0-.018.008-.033.018-.033.01 0 .018-.017.018-.037 0-.02.008-.037.018-.037.01 0 .018-.014.018-.032 0-.018.016-.045.036-.06.02-.014.036-.04.036-.058 0-.018.008-.033.018-.033.01 0 .018-.015.018-.033 0-.018.016-.044.035-.059.02-.014.036-.04.036-.055 0-.016.017-.04.036-.055.02-.015.036-.038.036-.052 0-.014.025-.048.054-.077.03-.028.054-.06.054-.073 0-.012.032-.053.072-.092a.3.3 0 00.072-.09c0-.026.694-.736.72-.736a.3.3 0 00.088-.074.293.293 0 01.09-.073c.012 0 .044-.025.072-.055.028-.03.062-.055.075-.055.014 0 .037-.017.05-.037.015-.02.04-.037.055-.037s.04-.016.054-.036c.014-.02.038-.037.054-.037.015 0 .04-.017.054-.037.014-.02.04-.037.057-.037.018 0 .032-.008.032-.018 0-.01.015-.018.032-.018.018 0 .044-.017.058-.037.014-.02.04-.037.058-.037.018 0 .032-.008.032-.018 0-.01.016-.018.036-.018.02 0 .036-.009.036-.019s.016-.018.036-.018c.02 0 .036-.008.036-.019 0-.01.016-.018.036-.018.02 0 .036-.008.036-.018 0-.01.016-.019.036-.019.02 0 .036-.008.036-.018 0-.01.016-.018.035-.018.02 0 .036-.009.036-.019s.017-.018.036-.018c.02 0 .036-.008.036-.018 0-.01.025-.019.054-.019.03 0 .054-.008.054-.018 0-.01.016-.019.036-.019.02 0 .036-.008.036-.018 0-.01.024-.018.054-.018s.054-.009.054-.019.024-.018.054-.018.054-.008.054-.018c0-.01.024-.019.053-.019.03 0 .054-.008.054-.018 0-.01.025-.018.054-.018.03 0 .054-.009.054-.019s.033-.018.072-.018c.04 0 .072-.008.072-.018 0-.01.024-.019.054-.019s.054-.008.054-.018c0-.01.04-.019.09-.019.049 0 .09-.008.09-.018 0-.01.04-.018.09-.018.049 0 .09-.009.09-.019s.047-.018.107-.018.108-.008.108-.018c0-.012.078-.019.197-.019.12 0 .198-.007.198-.018 0-.012.114-.018.306-.018.191 0 .305.006.305.018zm-.503 1.652c0 .01-.054.019-.126.019-.072 0-.126.008-.126.018 0 .01-.04.019-.09.019-.049 0-.09.008-.09.018 0 .01-.032.018-.071.018-.04 0-.072.009-.072.019s-.032.018-.072.018c-.04 0-.072.008-.072.018 0 .01-.024.019-.054.019s-.054.008-.054.018c0 .01-.024.018-.054.018s-.053.009-.053.019-.025.018-.054.018c-.03 0-.054.008-.054.018 0 .01-.016.019-.036.019-.02 0-.036.008-.036.018 0 .01-.024.019-.054.019s-.054.008-.054.018c0 .01-.016.018-.036.018-.02 0-.036.009-.036.019s-.016.018-.036.018c-.02 0-.036.008-.036.018 0 .01-.016.019-.036.019-.02 0-.036.008-.036.018 0 .01-.016.018-.036.018-.02 0-.035.009-.035.019s-.015.018-.032.018c-.018 0-.044.017-.058.037-.015.02-.039.037-.054.037-.016 0-.04.016-.054.036-.014.02-.039.037-.054.037s-.04.017-.054.037c-.014.02-.038.037-.054.037-.015 0-.04.016-.054.036-.014.02-.036.037-.05.037a.51.51 0 00-.13.11.584.584 0 01-.125.11.618.618 0 00-.18.184.59.59 0 01-.108.128.518.518 0 00-.108.133c0 .014-.016.037-.035.051-.02.015-.036.04-.036.055 0 .016-.017.04-.036.055-.02.015-.036.04-.036.055 0 .016-.016.04-.036.055-.02.015-.036.042-.036.06 0 .018-.008.032-.018.032-.01 0-.018.015-.018.033 0 .018-.016.044-.036.059-.02.015-.036.041-.036.06 0 .017-.008.032-.018.032-.01 0-.018.016-.018.037 0 .02-.008.036-.018.036-.01 0-.018.025-.018.055s-.008.055-.018.055c-.01 0-.018.017-.018.037 0 .02-.008.037-.018.037-.01 0-.018.016-.018.037 0 .02-.008.036-.018.036-.01 0-.018.025-.018.055s-.008.056-.018.056c-.01 0-.018.024-.018.055 0 .03-.008.055-.018.055-.01 0-.018.024-.018.055 0 .03-.008.055-.017.055-.01 0-.018.033-.018.073 0 .04-.009.074-.018.074-.01 0-.018.041-.018.092 0 .05-.008.091-.018.091-.01 0-.018.05-.018.11 0 .062-.008.11-.018.11-.011 0-.018.074-.018.184s-.007.184-.018.184-.018.098-.018.257c0 .16.007.257.018.257.01 0 .018.08.018.202 0 .122.007.202.018.202.01 0 .018.049.018.11s.008.11.018.11c.01 0 .018.033.018.074 0 .04.008.073.018.073.01 0 .018.033.018.074 0 .04.008.073.018.073.01 0 .018.025.018.055s.008.055.017.055c.01 0 .018.025.018.055s.009.055.018.055c.01 0 .018.025.018.056 0 .03.008.055.018.055.01 0 .018.016.018.036 0 .02.008.037.018.037.01 0 .018.025.018.055s.008.055.018.055c.01 0 .018.017.018.037 0 .02.008.037.018.037.01 0 .018.016.018.036 0 .02.008.037.018.037.01 0 .018.017.018.037 0 .02.008.037.018.037.01 0 .018.014.018.032 0 .018.016.045.036.06.02.014.036.04.036.059 0 .018.008.032.018.032.01 0 .018.015.018.033 0 .018.016.044.036.059.02.015.036.038.036.052 0 .014.024.048.054.077.03.028.053.06.053.073 0 .012.033.053.072.092.04.039.072.08.072.09 0 .027.3.332.325.332a.3.3 0 01.088.074c.038.04.08.073.09.073.012 0 .045.025.072.055.028.03.062.055.075.055.014 0 .037.017.051.037.014.02.04.037.058.037.017 0 .032.008.032.018 0 .01.014.018.032.018.017 0 .043.017.058.037.014.02.04.037.058.037.017 0 .032.008.032.018 0 .01.016.019.035.019.02 0 .036.008.036.018 0 .01.017.018.036.018.02 0 .036.009.036.019s.016.018.036.018c.02 0 .036.008.036.018 0 .01.016.019.036.019.02 0 .036.008.036.018 0 .01.016.018.036.018.02 0 .036.009.036.019s.024.018.054.018.054.008.054.019c0 .01.016.018.036.018.02 0 .036.008.036.018 0 .01.024.019.053.019.03 0 .054.008.054.018 0 .01.033.018.072.018.04 0 .072.009.072.019s.024.018.054.018.054.008.054.018c0 .01.032.019.072.019.04 0 .072.008.072.018 0 .01.048.019.107.019.06 0 .108.008.108.018 0 .01.048.018.108.018s.108.008.108.019.192.018.539.018c.347 0 .539-.007.539-.018 0-.01.054-.019.126-.019.072 0 .126-.008.126-.018 0-.01.048-.018.107-.018.06 0 .108-.009.108-.019s.033-.018.072-.018c.04 0 .072-.008.072-.019 0-.01.032-.018.072-.018.04 0 .072-.008.072-.018 0-.01.024-.019.054-.019s.054-.008.054-.018c0-.01.024-.018.053-.018.03 0 .054-.009.054-.019s.025-.018.054-.018c.03 0 .054-.008.054-.018 0-.01.024-.019.054-.019s.054-.008.054-.018c0-.01.016-.019.036-.019.02 0 .036-.008.036-.018 0-.01.016-.018.036-.018.02 0 .036-.009.036-.019s.016-.018.036-.018c.02 0 .036-.008.036-.018 0-.01.016-.019.036-.019.02 0 .035-.008.035-.018 0-.01.017-.018.036-.018.02 0 .036-.009.036-.019s.016-.018.036-.018c.036 0 .036-.012.036-.661 0-.743.004-.726-.126-.588-.038.04-.078.074-.09.074-.011 0-.044.024-.071.055-.028.03-.062.055-.075.055-.014 0-.037.016-.051.037-.014.02-.04.036-.058.036-.018 0-.032.009-.032.019s-.014.018-.032.018c-.017 0-.044.017-.058.037-.014.02-.04.036-.058.036-.017 0-.032.009-.032.019s-.016.018-.036.018c-.02 0-.035.008-.035.019 0 .01-.017.018-.036.018-.02 0-.036.008-.036.018 0 .01-.025.019-.054.019-.03 0-.054.008-.054.018 0 .01-.016.018-.036.018-.02 0-.036.009-.036.019s-.024.018-.054.018-.054.008-.054.018c0 .01-.032.019-.072.019-.04 0-.072.008-.072.018 0 .01-.024.019-.053.019-.03 0-.054.008-.054.018 0 .01-.04.018-.09.018-.05 0-.09.008-.09.019 0 .01-.06.018-.144.018-.084 0-.144.008-.144.018 0 .012-.101.019-.27.019-.167 0-.269-.007-.269-.019 0-.01-.06-.018-.143-.018-.084 0-.144-.008-.144-.018 0-.01-.04-.019-.09-.019-.05 0-.09-.008-.09-.018 0-.01-.032-.018-.072-.018-.04 0-.072-.009-.072-.019s-.024-.018-.053-.018c-.03 0-.054-.008-.054-.019 0-.01-.025-.018-.054-.018-.03 0-.054-.008-.054-.018 0-.01-.016-.019-.036-.019-.02 0-.036-.008-.036-.018 0-.01-.016-.018-.036-.018-.02 0-.036-.009-.036-.019s-.024-.018-.054-.018-.054-.008-.054-.018c0-.01-.014-.019-.032-.019-.017 0-.043-.016-.058-.037-.014-.02-.04-.036-.057-.036-.018 0-.032-.009-.032-.019s-.013-.018-.03-.018c-.015 0-.05-.025-.078-.055-.028-.03-.06-.055-.072-.055-.011 0-.052-.033-.09-.074a.292.292 0 00-.089-.073.609.609 0 01-.18-.185.297.297 0 00-.072-.09c-.04-.04-.072-.08-.072-.093 0-.012-.024-.044-.054-.073-.03-.028-.054-.064-.054-.08 0-.017-.008-.03-.018-.03-.01 0-.018-.015-.018-.033 0-.018-.016-.044-.036-.059-.02-.014-.036-.04-.036-.059 0-.018-.008-.033-.018-.033-.01 0-.018-.016-.018-.036 0-.02-.008-.037-.018-.037-.01 0-.018-.025-.018-.055s-.008-.055-.018-.055c-.01 0-.018-.017-.018-.037 0-.02-.008-.037-.018-.037-.01 0-.018-.024-.018-.055 0-.03-.008-.055-.018-.055-.01 0-.018-.025-.018-.055s-.008-.055-.018-.055c-.01 0-.017-.033-.017-.073 0-.04-.009-.074-.018-.074-.01 0-.018-.033-.018-.073 0-.04-.008-.074-.018-.074-.01 0-.018-.055-.018-.128 0-.074-.008-.129-.018-.129-.012 0-.018-.134-.018-.367 0-.233.006-.367.018-.367.01 0 .018-.055.018-.129 0-.073.007-.128.018-.128.01 0 .018-.033.018-.074 0-.04.008-.073.018-.073.01 0 .018-.033.018-.074 0-.04.008-.073.018-.073.01 0 .017-.025.017-.055s.009-.055.018-.055c.01 0 .018-.025.018-.055s.008-.055.018-.055c.01 0 .018-.017.018-.037 0-.02.008-.037.018-.037.01 0 .018-.016.018-.037 0-.02.008-.036.018-.036.01 0 .018-.017.018-.037 0-.02.008-.037.018-.037.01 0 .018-.016.018-.036 0-.02.008-.037.018-.037.01 0 .018-.017.018-.037 0-.02.008-.037.018-.037.01 0 .018-.014.018-.032 0-.018.016-.045.036-.06.02-.014.036-.039.036-.055 0-.015.016-.04.036-.055.02-.014.036-.037.036-.05 0-.03.478-.519.508-.519.012 0 .035-.016.049-.037.014-.02.038-.036.054-.036.015 0 .04-.017.054-.037.014-.02.04-.037.057-.037.018 0 .032-.008.032-.018 0-.01.017-.018.036-.018.02 0 .036-.009.036-.019s.016-.018.036-.018c.02 0 .036-.008.036-.019 0-.01.016-.018.036-.018.02 0 .036-.008.036-.018 0-.01.016-.019.036-.019.02 0 .036-.008.036-.018 0-.01.024-.018.054-.018s.054-.009.054-.019.024-.018.054-.018.054-.008.054-.018c0-.01.024-.019.053-.019.03 0 .054-.008.054-.018 0-.01.033-.019.072-.019.04 0 .072-.008.072-.018 0-.01.04-.018.09-.018.05 0 .09-.009.09-.019s.066-.018.162-.018c.095 0 .161-.007.161-.018s.078-.019.198-.019c.12 0 .198.008.198.019 0 .01.065.018.161.018s.162.008.162.018c0 .01.04.019.09.019.05 0 .09.008.09.018 0 .01.032.018.072.018.04 0 .071.009.071.019s.025.018.054.018c.03 0 .054.008.054.019 0 .01.024.018.054.018s.054.008.054.018c0 .01.024.019.054.019s.054.008.054.018c0 .01.016.018.036.018.02 0 .036.009.036.019s.016.018.036.018c.02 0 .036.008.036.018 0 .01.016.019.036.019.02 0 .035.008.035.018 0 .01.017.019.036.019.02 0 .036.008.036.018 0 .01.017.018.036.018.02 0 .036.009.036.019s.015.018.032.018c.018 0 .044.017.058.037.014.02.04.036.058.036.017 0 .032.009.032.019s.013.018.029.018c.015 0 .051.025.079.055.027.03.06.055.071.055.012 0 .052.033.09.074.13.137.126.152.126-.561v-.634l-.044-.045c-.024-.025-.057-.046-.072-.046-.015 0-.028-.008-.028-.018 0-.01-.016-.018-.035-.018-.02 0-.036-.009-.036-.019s-.017-.018-.036-.018c-.02 0-.036-.008-.036-.018 0-.01-.016-.019-.036-.019-.02 0-.036-.008-.036-.018 0-.01-.024-.018-.054-.018s-.054-.009-.054-.019-.016-.018-.036-.018c-.02 0-.036-.008-.036-.019 0-.01-.024-.018-.054-.018s-.054-.008-.054-.018c0-.01-.024-.019-.054-.019s-.053-.008-.053-.018c0-.01-.033-.018-.072-.018-.04 0-.072-.009-.072-.019s-.024-.018-.054-.018-.054-.008-.054-.018c0-.01-.04-.019-.09-.019-.05 0-.09-.008-.09-.018 0-.01-.04-.018-.09-.018-.049 0-.09-.009-.09-.019s-.06-.018-.143-.018c-.084 0-.144-.008-.144-.019s-.18-.018-.503-.018-.503.007-.503.018zm12.722 0c0 .01-.054.019-.126.019-.072 0-.126.008-.126.018 0 .01-.04.019-.09.019-.05 0-.09.008-.09.018 0 .01-.032.018-.072.018-.04 0-.072.009-.072.019s-.032.018-.071.018c-.04 0-.072.008-.072.018 0 .01-.024.019-.054.019s-.054.008-.054.018c0 .01-.024.018-.054.018s-.054.009-.054.019-.016.018-.036.018c-.02 0-.036.008-.036.018 0 .01-.024.019-.054.019s-.054.008-.054.018c0 .01-.016.019-.035.019-.02 0-.036.008-.036.018 0 .01-.017.018-.036.018-.02 0-.036.009-.036.019s-.017.018-.036.018c-.02 0-.036.008-.036.018 0 .01-.016.019-.036.019-.02 0-.036.008-.036.018 0 .01-.016.018-.036.018-.02 0-.036.009-.036.019s-.014.018-.032.018c-.018 0-.044.017-.058.037-.014.02-.038.037-.054.037-.015 0-.04.016-.054.036-.014.02-.038.037-.053.037-.016 0-.04.017-.054.037-.015.02-.037.037-.051.037-.014 0-.047.024-.075.055-.028.03-.06.055-.07.055-.026 0-.541.526-.541.552 0 .011-.024.044-.054.072-.03.028-.054.061-.054.073 0 .013-.024.046-.054.074-.03.028-.054.065-.054.08 0 .017-.008.03-.018.03-.01 0-.018.015-.018.033 0 .018-.016.044-.036.059-.02.014-.035.041-.035.059 0 .018-.009.033-.018.033-.01 0-.018.016-.018.036 0 .02-.009.037-.018.037-.01 0-.018.017-.018.037 0 .02-.008.037-.018.037-.01 0-.018.016-.018.036 0 .02-.008.037-.018.037-.01 0-.018.017-.018.037 0 .02-.008.036-.018.036-.01 0-.018.017-.018.037 0 .02-.008.037-.018.037-.01 0-.018.016-.018.037 0 .02-.008.036-.018.036-.01 0-.018.025-.018.055s-.008.056-.018.056c-.01 0-.018.024-.018.055 0 .03-.008.055-.018.055-.01 0-.018.024-.018.055 0 .03-.008.055-.018.055-.01 0-.018.025-.018.055s-.008.055-.018.055c-.01 0-.018.041-.018.092 0 .05-.008.092-.018.092-.01 0-.018.041-.018.091 0 .051-.008.092-.018.092-.01 0-.018.055-.018.129 0 .073-.007.128-.018.128s-.018.16-.018.441c0 .282.007.44.018.44.01 0 .018.062.018.148 0 .085.008.146.018.146.01 0 .018.042.018.092 0 .05.008.092.018.092.01 0 .018.033.018.074 0 .04.008.073.018.073.01 0 .018.025.018.055s.008.055.018.055c.01 0 .018.033.018.074 0 .04.008.073.018.073.01 0 .018.017.018.037 0 .02.008.036.018.036.01 0 .018.025.018.056 0 .03.008.055.018.055.01 0 .018.016.018.036 0 .02.008.037.018.037.01 0 .018.025.018.055s.008.055.018.055c.01 0 .018.017.018.037 0 .02.008.037.018.037.01 0 .018.016.018.036 0 .02.008.037.018.037.01 0 .018.015.018.033 0 .018.016.044.036.059.02.015.035.041.035.06 0 .017.009.032.018.032.01 0 .018.014.018.032 0 .018.017.045.036.06.02.014.036.039.036.055 0 .015.016.04.036.055.02.014.036.038.036.052 0 .013.024.048.054.076.03.029.054.061.054.073 0 .012.04.062.09.11.05.05.09.1.09.11a.61.61 0 00.18.185c.01 0 .067.05.125.11a.56.56 0 00.127.11c.011 0 .043.025.07.055.029.03.062.055.076.055.014 0 .036.017.05.037.015.02.04.037.055.037s.04.016.053.036c.015.02.04.037.058.037.018 0 .032.008.032.018 0 .01.016.019.036.019.02 0 .036.008.036.018 0 .01.016.019.036.019.02 0 .036.008.036.018 0 .01.016.018.036.018.02 0 .036.009.036.019s.016.018.036.018c.02 0 .036.008.036.018 0 .01.016.019.036.019.02 0 .036.008.036.018 0 .01.016.018.035.018.02 0 .036.009.036.019s.017.018.036.018c.02 0 .036.008.036.019 0 .01.025.018.054.018.03 0 .054.008.054.018 0 .01.024.019.054.019s.054.008.054.018c0 .01.024.018.054.018s.054.009.054.019.024.018.054.018.054.008.054.018c0 .01.032.019.071.019.04 0 .072.008.072.018 0 .01.04.019.09.019.05 0 .09.008.09.018 0 .01.054.018.126.018.072 0 .125.008.125.019s.192.018.54.018c.347 0 .539-.007.539-.018 0-.01.048-.019.108-.019s.107-.008.107-.018c0-.01.04-.018.09-.018.05 0 .09-.009.09-.019s.032-.018.072-.018c.04 0 .072-.008.072-.019 0-.01.032-.018.072-.018.04 0 .071-.008.071-.018 0-.01.025-.019.054-.019.03 0 .054-.008.054-.018 0-.01.024-.018.054-.018s.054-.009.054-.019.016-.018.036-.018c.02 0 .036-.008.036-.018 0-.01.024-.019.054-.019s.054-.008.054-.018c0-.01.016-.019.036-.019.02 0 .036-.008.036-.018 0-.01.016-.018.036-.018.02 0 .036-.009.036-.019s.016-.018.035-.018c.02 0 .036-.008.036-.018 0-.01.016-.019.036-.019.02 0 .036-.008.036-.018 0-.01.015-.018.032-.018.018 0 .044-.017.058-.037.014-.02.04-.037.058-.037.017 0 .032-.008.032-.018 0-.01.014-.019.032-.019.017 0 .043-.016.058-.036.014-.02.037-.037.05-.037.014 0 .048-.025.075-.055.028-.03.06-.055.072-.055.012 0 .052-.033.09-.074a.293.293 0 01.089-.073c.025 0 .396-.38.396-.405a.3.3 0 01.072-.09c.04-.04.072-.083.072-.096 0-.014.016-.037.036-.052.02-.014.036-.04.036-.055 0-.016.016-.04.036-.055.02-.015.036-.04.036-.055 0-.016.016-.04.036-.055.02-.015.036-.041.036-.06 0-.017.008-.032.018-.032.01 0 .018-.016.018-.037 0-.02.008-.036.018-.036.01 0 .018-.017.018-.037 0-.02.008-.037.018-.037.01 0 .018-.016.018-.037 0-.02.008-.036.018-.036.01 0 .018-.017.018-.037 0-.02.008-.037.017-.037.01 0 .018-.016.018-.036 0-.02.009-.037.018-.037.01 0 .018-.017.018-.037 0-.02.008-.037.018-.037.01 0 .018-.024.018-.055 0-.03.008-.055.018-.055.01 0 .018-.016.018-.037 0-.02.008-.036.018-.036.01 0 .018-.025.018-.055s.008-.055.018-.055c.01 0 .018-.033.018-.074 0-.04.008-.073.018-.073.01 0 .018-.033.018-.074 0-.04.008-.073.018-.073.01 0 .018-.033.018-.074 0-.04.008-.073.018-.073.01 0 .018-.05.018-.11 0-.061.008-.11.018-.11.011 0 .018-.202.018-.57 0-.367-.007-.569-.018-.569-.01 0-.018-.049-.018-.11s-.008-.11-.018-.11c-.01 0-.018-.042-.018-.092 0-.05-.008-.092-.018-.092-.01 0-.018-.033-.018-.073 0-.04-.008-.074-.018-.074-.01 0-.018-.024-.018-.055 0-.03-.008-.055-.018-.055-.01 0-.018-.025-.018-.055s-.008-.055-.018-.055c-.01 0-.018-.025-.018-.055s-.008-.055-.018-.055c-.01 0-.018-.025-.018-.055s-.008-.055-.018-.055c-.01 0-.018-.017-.018-.037 0-.02-.008-.037-.018-.037-.01 0-.018-.016-.018-.037 0-.02-.008-.036-.018-.036-.01 0-.017-.017-.017-.037 0-.02-.009-.037-.018-.037-.01 0-.018-.016-.018-.036 0-.02-.008-.037-.018-.037-.01 0-.018-.017-.018-.037 0-.02-.008-.037-.018-.037-.01 0-.018-.014-.018-.032 0-.018-.017-.045-.036-.06-.02-.014-.036-.04-.036-.059 0-.018-.008-.032-.018-.032-.01 0-.018-.015-.018-.033 0-.018-.016-.044-.036-.059-.02-.015-.036-.038-.036-.052 0-.014-.024-.048-.054-.077-.03-.028-.054-.06-.054-.072a.416.416 0 00-.09-.111.436.436 0 01-.09-.11c0-.025-.263-.294-.288-.294a.294.294 0 01-.089-.074c-.038-.04-.078-.073-.09-.073-.012 0-.044-.025-.072-.055-.027-.03-.061-.055-.075-.055-.013 0-.036-.017-.05-.037-.015-.02-.039-.037-.054-.037-.016 0-.04-.016-.054-.036-.014-.02-.04-.037-.058-.037-.018 0-.032-.008-.032-.018 0-.01-.016-.019-.036-.019-.02 0-.036-.008-.036-.018 0-.01-.014-.019-.032-.019-.017 0-.043-.016-.058-.036-.014-.02-.04-.037-.057-.037-.018 0-.032-.008-.032-.018 0-.01-.025-.019-.054-.019-.03 0-.054-.008-.054-.018 0-.01-.017-.018-.036-.018-.02 0-.036-.009-.036-.019s-.016-.018-.036-.018c-.02 0-.036-.008-.036-.019 0-.01-.024-.018-.054-.018s-.054-.008-.054-.018c0-.01-.024-.019-.054-.019s-.054-.008-.054-.018c0-.01-.024-.018-.054-.018s-.054-.009-.054-.019-.024-.018-.053-.018c-.03 0-.054-.008-.054-.018 0-.01-.033-.019-.072-.019-.04 0-.072-.008-.072-.018 0-.01-.04-.018-.09-.018-.05 0-.09-.009-.09-.019s-.054-.018-.125-.018c-.072 0-.126-.008-.126-.019s-.18-.018-.503-.018c-.324 0-.503.007-.503.018zm33.96 0c0 .01-.054.019-.126.019-.072 0-.126.008-.126.018 0 .01-.04.019-.09.019-.05 0-.09.008-.09.018 0 .01-.04.018-.09.018-.049 0-.09.009-.09.019s-.024.018-.053.018c-.03 0-.054.008-.054.018 0 .01-.032.019-.072.019-.04 0-.072.008-.072.018 0 .01-.016.018-.036.018-.02 0-.036.009-.036.019s-.024.018-.054.018-.053.008-.053.018c0 .01-.025.019-.054.019-.03 0-.054.008-.054.018 0 .01-.016.019-.036.019-.02 0-.036.008-.036.018 0 .01-.016.018-.036.018-.02 0-.036.009-.036.019s-.016.018-.036.018c-.02 0-.036.008-.036.018 0 .01-.016.019-.036.019-.02 0-.036.008-.036.018 0 .01-.016.018-.036.018-.02 0-.036.009-.036.019s-.014.018-.032.018c-.017 0-.043.017-.058.037-.014.02-.04.037-.057.037-.018 0-.032.008-.032.018 0 .01-.015.018-.032.018-.018 0-.044.017-.058.037-.014.02-.037.037-.05.037-.014 0-.048.025-.076.055-.028.03-.06.055-.071.055-.012 0-.053.033-.09.073a.295.295 0 01-.09.074c-.025 0-.324.305-.324.332a.3.3 0 01-.072.09c-.04.039-.072.08-.072.092 0 .012-.024.045-.054.073-.03.029-.053.063-.053.077 0 .014-.017.037-.036.052-.02.015-.036.041-.036.06 0 .017-.008.032-.018.032-.01 0-.018.014-.018.032 0 .018-.017.045-.036.06-.02.014-.036.04-.036.059 0 .018-.008.032-.018.032-.01 0-.018.017-.018.037 0 .02-.008.037-.018.037-.01 0-.018.016-.018.037 0 .02-.008.036-.018.036-.01 0-.018.017-.018.037 0 .02-.008.037-.018.037-.01 0-.018.016-.018.036 0 .02-.008.037-.018.037-.01 0-.018.025-.018.055s-.008.055-.018.055c-.01 0-.018.017-.018.037 0 .02-.008.037-.018.037-.01 0-.018.025-.018.055s-.008.055-.018.055c-.01 0-.018.033-.018.073 0 .04-.008.074-.018.074-.01 0-.018.025-.018.055s-.008.055-.018.055c-.01 0-.017.041-.017.092 0 .05-.009.092-.019.092s-.018.041-.018.091c0 .051-.008.092-.017.092-.011 0-.018.068-.018.166 0 .097-.008.165-.018.165-.012 0-.018.134-.018.367 0 .233.006.367.018.367.01 0 .018.068.018.165 0 .098.007.166.018.166.01 0 .017.041.017.092 0 .05.009.091.018.091.01 0 .018.042.018.092 0 .05.009.092.018.092.01 0 .018.033.018.073 0 .04.009.074.018.074.01 0 .018.025.018.055s.008.055.018.055c.01 0 .018.025.018.055s.008.055.018.055c.01 0 .018.017.018.037 0 .02.008.037.018.037.01 0 .018.024.018.055 0 .03.008.055.018.055.01 0 .018.016.018.037 0 .02.008.036.018.036.01 0 .018.017.018.037 0 .02.008.037.018.037.01 0 .018.016.018.036 0 .02.008.037.018.037.01 0 .018.017.018.037 0 .02.008.037.018.037.01 0 .018.016.018.036 0 .02.008.037.018.037.01 0 .018.015.018.033 0 .018.016.044.036.059.02.014.036.04.036.055 0 .016.016.04.036.055.02.015.035.04.035.055 0 .016.017.04.037.055.02.015.035.038.035.052 0 .013.033.056.072.095a.3.3 0 01.072.09c0 .027.371.406.397.406.01 0 .05.033.088.073.038.04.08.074.094.074.013 0 .036.016.05.036.014.02.038.037.054.037.015 0 .04.017.054.037.014.02.038.037.054.037.015 0 .04.016.054.036.014.02.04.037.058.037.017 0 .032.008.032.018 0 .01.016.019.035.019.02 0 .036.008.036.018 0 .01.017.019.036.019.02 0 .036.008.036.018 0 .01.016.018.036.018.02 0 .036.009.036.019s.016.018.036.018c.02 0 .036.008.036.018 0 .01.016.019.036.019.02 0 .036.008.036.018 0 .01.016.018.036.018.02 0 .036.009.036.019s.024.018.054.018.053.008.053.019c0 .01.017.018.037.018.02 0 .035.008.035.018 0 .01.025.019.054.019.03 0 .054.008.054.018 0 .01.025.018.054.018.03 0 .054.009.054.019s.032.018.072.018c.04 0 .072.008.072.018 0 .01.032.019.072.019.04 0 .071.008.071.018 0 .01.041.019.09.019.05 0 .09.008.09.018 0 .01.054.018.126.018.072 0 .126.008.126.019s.191.018.539.018c.347 0 .539-.007.539-.018 0-.01.054-.019.126-.019.072 0 .125-.008.125-.018 0-.01.04-.018.09-.018.05 0 .09-.009.09-.019s.04-.018.09-.018c.05 0 .09-.008.09-.019 0-.01.032-.018.072-.018.04 0 .072-.008.072-.018 0-.01.024-.019.053-.019.03 0 .054-.008.054-.018 0-.01.025-.018.054-.018.03 0 .054-.009.054-.019s.024-.018.054-.018.054-.008.054-.018c0-.01.016-.019.036-.019.02 0 .036-.008.036-.018 0-.01.024-.019.054-.019s.054-.008.054-.018c0-.01.016-.018.036-.018.02 0 .035-.009.035-.019s.017-.018.036-.018c.02 0 .036-.008.036-.018 0-.01.017-.019.036-.019.02 0 .036-.008.036-.018 0-.01.013-.018.029-.018.077 0 .08-.02.08-.706 0-.36-.006-.653-.011-.653a.442.442 0 00-.08.073c-.038.04-.078.074-.09.074-.012 0-.044.024-.072.055-.027.03-.061.055-.075.055-.013 0-.036.016-.05.037-.014.02-.04.036-.058.036-.018 0-.032.009-.032.019s-.014.018-.032.018c-.018 0-.044.017-.058.037-.014.02-.04.036-.058.036-.017 0-.032.009-.032.019s-.016.018-.036.018c-.02 0-.036.008-.036.019 0 .01-.024.018-.054.018s-.053.008-.053.018c0 .01-.017.019-.036.019-.02 0-.036.008-.036.018 0 .01-.025.018-.054.018-.03 0-.054.009-.054.019s-.024.018-.054.018-.054.008-.054.018c0 .01-.024.019-.054.019s-.054.008-.054.018c0 .01-.032.019-.072.019-.04 0-.072.008-.072.018 0 .01-.032.018-.071.018-.04 0-.072.008-.072.019 0 .01-.06.018-.144.018-.084 0-.144.008-.144.018 0 .012-.108.019-.287.019-.18 0-.288-.007-.288-.019 0-.01-.054-.018-.126-.018-.071 0-.125-.008-.125-.018 0-.01-.04-.019-.09-.019-.05 0-.09-.008-.09-.018 0-.01-.032-.018-.072-.018-.04 0-.072-.009-.072-.019s-.024-.018-.054-.018-.053-.008-.053-.019c0-.01-.025-.018-.054-.018-.03 0-.054-.008-.054-.018 0-.01-.017-.019-.036-.019-.02 0-.036-.008-.036-.018 0-.01-.025-.018-.054-.018-.03 0-.054-.009-.054-.019s-.016-.018-.036-.018c-.02 0-.036-.008-.036-.018 0-.01-.016-.019-.036-.019-.02 0-.036-.008-.036-.018 0-.01-.014-.019-.032-.019-.017 0-.043-.016-.058-.036-.014-.02-.038-.037-.053-.037-.016 0-.04-.017-.054-.037-.015-.02-.037-.036-.05-.036-.014 0-.056-.033-.094-.074a.295.295 0 00-.089-.073c-.026 0-.253-.232-.253-.258a.298.298 0 00-.071-.091c-.04-.039-.072-.082-.072-.096 0-.013-.017-.037-.036-.051-.02-.015-.036-.04-.036-.055 0-.016-.016-.04-.036-.055-.02-.015-.036-.041-.036-.06 0-.017-.008-.032-.018-.032-.01 0-.018-.017-.018-.037 0-.02-.008-.037-.018-.037-.01 0-.018-.016-.018-.036 0-.02-.008-.037-.018-.037-.01 0-.018-.016-.018-.037 0-.02-.008-.036-.018-.036-.01 0-.018-.025-.018-.055s-.008-.056-.018-.056c-.01 0-.018-.016-.018-.036 0-.02-.008-.037-.018-.037-.01 0-.018-.025-.018-.055s-.008-.055-.018-.055c-.01 0-.018-.033-.018-.074 0-.04-.008-.073-.018-.073-.01 0-.018-.033-.018-.074 0-.04-.008-.073-.018-.073-.01 0-.018-.049-.018-.11s-.008-.11-.017-.11c-.012 0-.018-.16-.018-.441 0-.282.006-.44.018-.44.01 0 .017-.05.017-.11 0-.062.008-.111.018-.111.01 0 .018-.033.018-.073 0-.04.008-.074.018-.074.01 0 .018-.025.018-.055s.009-.055.018-.055c.01 0 .018-.025.018-.055s.008-.055.018-.055c.01 0 .018-.025.018-.055s.008-.055.018-.055c.01 0 .018-.025.018-.056 0-.03.008-.055.018-.055.01 0 .018-.016.018-.036 0-.02.008-.037.018-.037.01 0 .018-.017.018-.037 0-.02.008-.036.018-.036.01 0 .018-.015.018-.033 0-.018.016-.045.036-.06.02-.014.036-.04.036-.058 0-.018.008-.033.018-.033.01 0 .018-.015.018-.033 0-.018.016-.044.036-.059.02-.014.036-.037.036-.051 0-.014.04-.065.09-.114a.459.459 0 00.09-.11c0-.026.154-.184.18-.184.01 0 .05-.033.089-.073.038-.04.08-.074.093-.074.014 0 .036-.016.05-.037.015-.02.04-.036.055-.036s.04-.017.053-.037c.015-.02.04-.037.058-.037.018 0 .032-.008.032-.018 0-.01.017-.018.036-.018.02 0 .036-.009.036-.019s.016-.018.036-.018c.02 0 .036-.008.036-.019 0-.01.016-.018.036-.018.02 0 .036-.008.036-.018 0-.01.016-.019.036-.019.02 0 .036-.008.036-.018 0-.01.024-.018.054-.018s.054-.009.054-.019.024-.018.053-.018c.03 0 .054-.008.054-.018 0-.01.025-.019.054-.019.03 0 .054-.008.054-.018 0-.01.033-.019.072-.019.04 0 .072-.008.072-.018 0-.01.04-.018.09-.018.05 0 .09-.009.09-.019s.06-.018.143-.018c.084 0 .144-.008.144-.018 0-.012.084-.019.216-.019s.215.007.215.019c0 .01.066.018.162.018s.162.008.162.018c0 .01.04.019.09.019.05 0 .09.008.09.018 0 .01.032.018.071.018.04 0 .072.009.072.019s.024.018.054.018.054.008.054.019c0 .01.024.018.054.018s.054.008.054.018c0 .01.024.019.054.019s.054.008.054.018c0 .01.016.018.036.018.02 0 .035.009.035.019s.017.018.037.018c.02 0 .035.008.035.018 0 .01.017.019.036.019.02 0 .036.008.036.018 0 .01.017.019.036.019.02 0 .036.008.036.018 0 .01.016.018.036.018.02 0 .036.009.036.019s.014.018.032.018c.018 0 .044.017.058.037.014.02.038.036.054.036.015 0 .04.017.054.037.014.02.037.037.05.037.014 0 .048.025.075.055.028.03.06.055.072.055.012 0 .045.025.072.055.028.03.055.055.061.055.006 0 .011-.294.011-.653 0-.686-.002-.706-.08-.706-.015 0-.028-.008-.028-.018 0-.01-.016-.018-.036-.018-.02 0-.036-.009-.036-.019s-.016-.018-.036-.018c-.02 0-.035-.008-.035-.018 0-.01-.025-.019-.054-.019-.03 0-.054-.008-.054-.018 0-.01-.016-.018-.036-.018-.02 0-.036-.009-.036-.019s-.016-.018-.036-.018c-.02 0-.036-.008-.036-.019 0-.01-.024-.018-.054-.018s-.054-.008-.054-.018c0-.01-.024-.019-.054-.019s-.054-.008-.054-.018c0-.01-.032-.018-.072-.018-.04 0-.071-.009-.071-.019s-.033-.018-.072-.018c-.04 0-.072-.008-.072-.018 0-.01-.032-.019-.072-.019-.04 0-.072-.008-.072-.018 0-.01-.048-.018-.108-.018s-.108-.009-.108-.019-.053-.018-.125-.018c-.072 0-.126-.008-.126-.019s-.18-.018-.503-.018c-.324 0-.503.007-.503.018zM29.073 6.5v3.746h1.294c.85 0 1.293-.007 1.293-.019 0-.01.066-.018.162-.018s.162-.007.162-.018c0-.01.048-.019.108-.019s.107-.008.107-.018c0-.01.033-.018.072-.018.04 0 .072-.009.072-.019s.032-.018.072-.018c.04 0 .072-.008.072-.018 0-.01.024-.019.054-.019s.054-.008.054-.018c0-.01.024-.019.053-.019.03 0 .054-.008.054-.018 0-.01.017-.018.036-.018.02 0 .036-.009.036-.019s.025-.018.054-.018c.03 0 .054-.008.054-.018 0-.01.016-.019.036-.019.02 0 .036-.008.036-.018 0-.01.014-.018.032-.018.018 0 .044-.017.058-.037.014-.02.04-.037.058-.037.017 0 .032-.008.032-.018 0-.01.013-.019.028-.019.016 0 .052-.024.08-.055.027-.03.059-.055.07-.055.026 0 .253-.232.253-.258 0-.012.024-.044.054-.072.03-.029.054-.065.054-.081s.008-.03.018-.03c.01 0 .018-.014.018-.032 0-.018.016-.045.036-.06a.101.101 0 00.036-.077c0-.028.008-.05.017-.05.01 0 .018-.017.018-.038 0-.02.009-.036.018-.036.01 0 .018-.025.018-.055s.009-.055.018-.055c.01 0 .018-.033.018-.074 0-.04.008-.073.018-.073.01 0 .018-.05.018-.11 0-.062.008-.11.018-.11.011 0 .018-.11.018-.294s-.007-.294-.018-.294c-.01 0-.018-.05-.018-.11 0-.062-.008-.11-.018-.11-.01 0-.018-.034-.018-.074 0-.04-.008-.073-.018-.073-.01 0-.018-.025-.018-.056 0-.03-.008-.055-.018-.055-.01 0-.018-.024-.018-.055 0-.03-.008-.055-.018-.055-.01 0-.017-.016-.017-.037 0-.02-.008-.036-.018-.036-.01 0-.018-.015-.018-.033 0-.018-.017-.045-.036-.06-.02-.014-.036-.038-.036-.054s-.016-.04-.036-.055c-.02-.015-.036-.037-.036-.05 0-.032-.226-.262-.256-.262-.013 0-.035-.017-.05-.037-.014-.02-.038-.037-.053-.037-.016 0-.04-.016-.054-.037-.015-.02-.04-.036-.058-.036-.018 0-.032-.009-.032-.019s-.016-.018-.036-.018c-.02 0-.036-.008-.036-.018 0-.01-.016-.019-.036-.019-.02 0-.036-.008-.036-.018 0-.01-.024-.018-.054-.018s-.054-.009-.054-.019-.02-.018-.046-.018c-.042 0-.098-.036-.098-.063 0-.006.017-.01.036-.01.02 0 .036-.009.036-.019s.017-.018.036-.018c.02 0 .036-.009.036-.019s.015-.018.032-.018c.018 0 .044-.017.058-.037.014-.02.038-.037.054-.037.015 0 .04-.016.054-.036.014-.02.036-.037.049-.037.03 0 .364-.341.364-.372 0-.013.016-.036.036-.05.02-.015.036-.041.036-.06 0-.017.008-.032.018-.032.01 0 .018-.017.018-.037 0-.02.008-.037.018-.037.01 0 .018-.016.018-.036 0-.02.008-.037.018-.037.01 0 .018-.025.018-.055s.008-.055.018-.055c.01 0 .018-.033.018-.074 0-.04.008-.073.018-.073.01 0 .018-.055.018-.129 0-.073.007-.128.018-.128.01 0 .018-.092.018-.239s-.007-.239-.018-.239c-.01 0-.018-.048-.018-.11 0-.06-.008-.11-.018-.11-.01 0-.018-.033-.018-.073 0-.04-.008-.074-.018-.074-.01 0-.018-.025-.018-.055s-.008-.055-.018-.055c-.01 0-.018-.016-.018-.037 0-.02-.008-.036-.018-.036-.01 0-.018-.017-.018-.037 0-.02-.008-.037-.018-.037-.01 0-.018-.016-.018-.037 0-.02-.008-.036-.018-.036-.01 0-.018-.015-.018-.033 0-.018-.016-.044-.036-.06-.02-.014-.036-.036-.036-.05 0-.03-.334-.371-.364-.371-.013 0-.035-.017-.05-.037-.013-.02-.04-.037-.057-.037-.018 0-.032-.008-.032-.018 0-.01-.016-.019-.036-.019-.02 0-.036-.008-.036-.018 0-.01-.016-.018-.036-.018-.02 0-.036-.009-.036-.019s-.016-.018-.036-.018c-.02 0-.036-.008-.036-.018 0-.01-.016-.019-.035-.019-.02 0-.036-.008-.036-.018 0-.01-.017-.018-.036-.018-.02 0-.036-.009-.036-.019s-.025-.018-.054-.018c-.03 0-.054-.008-.054-.019 0-.01-.032-.018-.072-.018-.04 0-.072-.008-.072-.018 0-.01-.032-.019-.072-.019-.04 0-.072-.008-.072-.018 0-.01-.04-.018-.09-.018-.049 0-.09-.009-.09-.019s-.071-.018-.179-.018-.18-.007-.18-.018c0-.012-.437-.019-1.275-.019h-1.276V6.5zm11.068 0v3.746h4.169V9.18h-3.055V8.069c0-.94.004-1.117.026-1.139.022-.022.233-.026 1.402-.026h1.376V5.839h-2.804v-2.02h3.055V2.754h-4.169V6.5zm19.91-3.213v.532h2.083v6.427h1.114V3.819h2.12V2.754H60.05v.533zM70.183 6.5v3.746h1.33c.875 0 1.33-.007 1.33-.019 0-.01.06-.018.144-.018.083 0 .143-.008.143-.018 0-.01.04-.019.09-.019.05 0 .09-.008.09-.018 0-.01.032-.018.072-.018.04 0 .072-.009.072-.019s.024-.018.054-.018.053-.008.053-.018c0-.01.025-.019.054-.019.03 0 .054-.008.054-.018 0-.01.016-.019.036-.019.02 0 .036-.008.036-.018 0-.01.016-.018.036-.018.02 0 .036-.009.036-.019s.016-.018.036-.018c.02 0 .036-.008.036-.018 0-.01.016-.019.036-.019.02 0 .036-.008.036-.018 0-.01.016-.018.036-.018.02 0 .036-.009.036-.019s.014-.018.032-.018c.017 0 .043-.017.058-.037.014-.02.036-.037.05-.037.013 0 .055-.033.093-.073.038-.04.078-.074.09-.074.025 0 .144-.12.144-.147 0-.011.032-.052.072-.091.04-.039.072-.082.072-.096 0-.013.016-.037.036-.051.02-.015.035-.041.035-.06 0-.017.009-.032.019-.032s.017-.016.017-.037c0-.02.008-.036.018-.036.01 0 .018-.017.018-.037 0-.02.008-.037.018-.037.01 0 .018-.016.018-.037 0-.02.008-.036.018-.036.01 0 .018-.025.018-.055s.008-.055.018-.055c.01 0 .018-.025.018-.056 0-.03.008-.055.018-.055.01 0 .018-.033.018-.073 0-.04.008-.074.018-.074.01 0 .018-.055.018-.128 0-.073.008-.129.018-.129.011 0 .018-.11.018-.293 0-.184-.007-.294-.018-.294-.01 0-.018-.05-.018-.11 0-.062-.008-.11-.018-.11-.01 0-.018-.034-.018-.074 0-.04-.008-.073-.018-.073-.01 0-.018-.025-.018-.055s-.008-.056-.018-.056c-.01 0-.018-.024-.018-.055 0-.03-.008-.055-.018-.055-.01 0-.018-.016-.018-.036 0-.02-.008-.037-.018-.037-.01 0-.018-.017-.018-.037 0-.02-.008-.037-.018-.037-.01 0-.018-.016-.018-.036 0-.02-.008-.037-.017-.037-.01 0-.018-.017-.018-.037 0-.02-.009-.036-.018-.036-.01 0-.018-.014-.018-.03s-.025-.052-.054-.08c-.03-.029-.054-.061-.054-.073 0-.026-.3-.332-.325-.332-.011 0-.043-.024-.07-.055-.028-.03-.062-.055-.076-.055-.013 0-.036-.016-.05-.037-.015-.02-.04-.036-.058-.036-.018 0-.032-.008-.032-.019 0-.01-.016-.018-.036-.018-.02 0-.036-.008-.036-.018 0-.01-.016-.019-.036-.019-.02 0-.036-.008-.036-.018 0-.01-.016-.018-.036-.018-.02 0-.036-.009-.036-.019s-.024-.018-.054-.018-.054-.008-.054-.018c0-.01-.016-.019-.035-.019-.02 0-.037-.008-.037-.018 0-.01-.024-.019-.053-.019-.03 0-.054-.008-.054-.018 0-.01-.033-.018-.072-.018-.04 0-.072-.009-.072-.019s-.04-.018-.09-.018c-.05 0-.09-.008-.09-.018 0-.01-.054-.019-.126-.019-.071 0-.125-.008-.125-.018 0-.012-.27-.018-.773-.018h-.773V2.754h-1.15V6.5zm-50.24-2.81c0 .01.049.019.109.019s.107.008.107.018c0 .01.033.019.072.019.04 0 .072.008.072.018 0 .01.024.018.054.018s.054.009.054.019.024.018.054.018.054.008.054.019c0 .01.024.018.054.018s.054.008.054.018c0 .01.016.019.036.019.02 0 .036.008.036.018 0 .01.016.018.035.018.02 0 .036.009.036.019s.017.018.036.018c.02 0 .036.008.036.018 0 .01.017.019.036.019.02 0 .036.008.036.018 0 .01.015.019.032.019.018 0 .044.016.058.036.014.02.037.037.05.037.014 0 .048.025.076.055.027.03.06.055.07.055.026 0 .397.38.397.406 0 .01.024.043.054.072.03.028.054.062.054.076 0 .014.016.038.036.052.02.015.036.041.036.06 0 .017.008.032.018.032.01 0 .018.015.018.033 0 .018.016.044.035.059.02.014.037.04.037.059 0 .018.008.033.018.033.01 0 .017.024.017.055 0 .03.009.055.018.055.01 0 .018.016.018.036 0 .02.008.037.018.037.01 0 .018.017.018.037 0 .02.008.037.018.037.01 0 .018.024.018.055 0 .03.008.055.018.055.01 0 .018.033.018.073 0 .04.008.074.018.074.01 0 .018.024.018.055 0 .03.008.055.018.055.01 0 .018.041.018.092 0 .05.008.091.018.091.01 0 .018.062.018.147 0 .086.008.147.018.147.011 0 .018.11.018.294s-.007.294-.018.294c-.01 0-.018.061-.018.147 0 .085-.007.147-.018.147-.01 0-.018.04-.018.091 0 .05-.008.092-.018.092-.01 0-.018.033-.018.074 0 .04-.008.073-.018.073-.01 0-.018.025-.018.055s-.008.055-.018.055c-.01 0-.018.025-.018.055s-.008.055-.018.055c-.01 0-.018.017-.018.037 0 .02-.008.037-.018.037-.01 0-.018.025-.018.055s-.008.055-.018.055c-.01 0-.018.017-.018.037 0 .02-.008.036-.017.036-.01 0-.018.017-.018.037 0 .02-.009.037-.018.037-.01 0-.018.015-.018.033 0 .018-.017.044-.036.059-.02.014-.036.04-.036.055 0 .016-.016.04-.036.055-.02.014-.036.04-.036.055 0 .016-.016.04-.036.055-.02.015-.036.037-.036.05 0 .031-.442.483-.472.483-.013 0-.035.016-.05.036-.013.02-.038.037-.053.037s-.04.017-.054.037c-.014.02-.04.036-.058.036-.017 0-.032.009-.032.019s-.016.018-.036.018c-.02 0-.036.008-.036.019 0 .01-.016.018-.036.018-.02 0-.036.008-.036.018 0 .01-.016.019-.036.019-.02 0-.035.008-.035.018 0 .01-.017.018-.036.018-.02 0-.036.009-.036.019s-.017.018-.036.018c-.02 0-.036.008-.036.018 0 .01-.024.019-.054.019s-.054.008-.054.018c0 .01-.032.019-.072.019-.04 0-.072.008-.072.018 0 .01-.032.018-.072.018-.04 0-.072.008-.072.019 0 .01-.04.018-.09.018-.049 0-.09.008-.09.018 0 .012-.155.019-.43.019-.276 0-.432-.007-.432-.019 0-.01-.048-.018-.107-.018-.06 0-.108-.008-.108-.018 0-.01-.033-.019-.072-.019-.04 0-.072-.008-.072-.018 0-.01-.024-.018-.054-.018s-.054-.009-.054-.019-.024-.018-.054-.018-.054-.008-.054-.019c0-.01-.016-.018-.036-.018-.02 0-.036-.008-.036-.018 0-.01-.024-.019-.053-.019-.03 0-.054-.008-.054-.018 0-.01-.017-.018-.036-.018-.02 0-.036-.009-.036-.019s-.016-.018-.036-.018c-.02 0-.036-.008-.036-.018 0-.01-.014-.019-.032-.019-.018 0-.044-.016-.058-.037-.014-.02-.038-.036-.054-.036-.015 0-.04-.017-.054-.037-.014-.02-.037-.037-.05-.037-.013 0-.056-.033-.094-.073a.294.294 0 00-.088-.074c-.026 0-.253-.232-.253-.258a.298.298 0 00-.072-.09c-.04-.04-.072-.082-.072-.096 0-.014-.016-.037-.035-.051-.02-.015-.037-.04-.037-.055 0-.016-.016-.041-.035-.056-.02-.014-.036-.04-.036-.059 0-.018-.008-.032-.018-.032-.01 0-.018-.017-.018-.037 0-.02-.008-.037-.018-.037-.01 0-.018-.016-.018-.037 0-.02-.008-.036-.018-.036-.01 0-.018-.017-.018-.037 0-.02-.008-.037-.018-.037-.01 0-.018-.024-.018-.055 0-.03-.008-.055-.018-.055-.01 0-.018-.016-.018-.037 0-.02-.008-.036-.018-.036-.01 0-.018-.025-.018-.055s-.008-.055-.018-.055c-.01 0-.018-.034-.018-.074 0-.04-.008-.073-.018-.073-.01 0-.018-.033-.018-.074 0-.04-.008-.073-.018-.073-.01 0-.018-.05-.018-.11 0-.062-.008-.11-.018-.11-.011 0-.018-.172-.018-.478s.007-.477.018-.477c.01 0 .018-.05.018-.11 0-.062.008-.11.018-.11.01 0 .018-.034.018-.074 0-.04.008-.074.018-.074.01 0 .018-.024.018-.055 0-.03.008-.055.018-.055.01 0 .018-.025.018-.055s.008-.055.018-.055c.01 0 .018-.025.018-.055s.008-.055.018-.055c.01 0 .018-.025.018-.055s.008-.055.018-.055c.01 0 .018-.017.018-.037 0-.02.008-.037.018-.037.01 0 .018-.016.018-.036 0-.02.008-.037.018-.037.01 0 .018-.015.018-.033 0-.018.016-.044.036-.059.02-.015.036-.041.036-.06 0-.017.008-.032.017-.032.01 0 .018-.013.018-.03 0-.015.025-.052.054-.08.03-.028.054-.061.054-.073 0-.012.033-.053.072-.092a.298.298 0 00.072-.091c0-.026.155-.185.18-.185.012 0 .052-.033.09-.073.038-.04.078-.074.09-.074.011 0 .044-.024.071-.055.028-.03.064-.055.08-.055.015 0 .028-.008.028-.018 0-.01.016-.018.036-.018.02 0 .036-.009.036-.019s.014-.018.032-.018c.018 0 .044-.017.058-.037a.098.098 0 01.076-.037c.027 0 .05-.008.05-.018 0-.01.016-.018.036-.018.02 0 .035-.009.035-.019s.025-.018.054-.018c.03 0 .054-.008.054-.018 0-.01.025-.019.054-.019.03 0 .054-.008.054-.018 0-.01.024-.019.054-.019s.054-.008.054-.018c0-.01.032-.018.072-.018.04 0 .072-.009.072-.019s.048-.018.108-.018.107-.008.107-.018c0-.012.144-.019.396-.019.251 0 .395.007.395.019zm11.716.148c0 .01.04.018.09.018.05 0 .09.008.09.018 0 .01.024.019.054.019s.054.008.054.018c0 .01.024.018.054.018s.054.009.054.019.014.018.032.018c.017 0 .043.017.057.037.015.02.037.037.05.037.03 0 .256.23.256.261 0 .013.016.036.036.05a.101.101 0 01.036.078c0 .028.008.051.018.051.01 0 .018.033.018.074 0 .04.008.073.018.073.01 0 .018.08.018.202 0 .123-.007.202-.018.202-.01 0-.018.033-.018.074 0 .04-.008.073-.018.073-.01 0-.018.025-.018.055s-.008.055-.018.055c-.01 0-.018.015-.018.033 0 .018-.016.044-.036.059-.02.014-.036.037-.036.05 0 .034-.191.225-.224.225-.015 0-.028.009-.028.019s-.016.018-.035.018c-.02 0-.036.008-.036.018 0 .01-.017.019-.036.019-.02 0-.036.008-.036.018 0 .01-.017.019-.036.019-.02 0-.036.008-.036.018 0 .01-.033.018-.072.018-.04 0-.072.009-.072.019s-.032.018-.072.018c-.04 0-.072.008-.072.018 0 .012-.257.019-.736.019h-.737V3.819h.737c.479 0 .736.007.736.019zm41.076 3.048c0 .01.048.018.108.018s.108.008.108.018c0 .01.032.019.072.019.039 0 .071.008.071.018 0 .01.025.018.054.018.03 0 .054.009.054.019s.016.018.036.018c.02 0 .036.008.036.018 0 .01.016.019.036.019.02 0 .036.008.036.018 0 .01.016.019.036.019.02 0 .036.008.036.018 0 .01.012.018.027.018.033 0 .224.192.224.225 0 .013.016.036.036.05.02.015.036.042.036.06 0 .018.008.033.018.033.01 0 .018.016.018.036 0 .02.008.037.018.037.01 0 .018.025.018.055s.008.055.018.055c.01 0 .018.05.018.11 0 .062.008.11.018.11.01 0 .018.062.018.147 0 .086-.007.147-.018.147-.01 0-.018.042-.018.092 0 .05-.008.092-.018.092-.01 0-.018.025-.018.055s-.008.055-.018.055c-.01 0-.018.017-.018.037 0 .02-.008.037-.018.037-.01 0-.018.016-.018.036 0 .02-.008.037-.018.037-.01 0-.018.013-.018.028 0 .034-.187.229-.22.229-.013 0-.035.017-.05.037-.014.02-.04.036-.057.036-.018 0-.032.009-.032.019s-.016.018-.036.018c-.02 0-.036.008-.036.019 0 .01-.016.018-.036.018-.02 0-.036.008-.036.018 0 .01-.024.019-.054.019s-.054.008-.054.018c0 .01-.04.018-.09.018-.049 0-.09.009-.09.019s-.053.018-.125.018c-.072 0-.126.008-.126.018 0 .012-.234.019-.665.019h-.665V6.867h.701c.455 0 .701.007.701.019zm-41.112.036c0 .01.054.019.126.019.072 0 .126.008.126.018 0 .01.032.018.072.018.04 0 .072.009.072.019s.024.018.054.018.053.008.053.018c0 .01.025.019.054.019.03 0 .054.008.054.018 0 .01.016.019.036.019.02 0 .036.008.036.018 0 .01.012.018.027.018.033 0 .297.266.297.299 0 .013.016.036.035.05a.101.101 0 01.036.078c0 .028.009.05.018.05.01 0 .018.034.018.074 0 .04.008.074.018.074.011 0 .018.104.018.275 0 .171-.007.275-.018.275-.01 0-.018.033-.018.074 0 .04-.008.073-.018.073-.01 0-.018.017-.018.037 0 .02-.008.037-.017.037-.01 0-.019.016-.019.037 0 .02-.008.036-.017.036-.01 0-.018.013-.018.028 0 .036-.261.303-.297.303-.015 0-.027.008-.027.018 0 .01-.016.018-.036.018-.02 0-.036.009-.036.019s-.016.018-.036.018c-.02 0-.036.008-.036.019 0 .01-.016.018-.035.018-.02 0-.036.008-.036.018 0 .01-.033.019-.072.019-.04 0-.072.008-.072.018 0 .01-.033.018-.072.018-.04 0-.072.009-.072.019s-.048.018-.108.018-.108.008-.108.018c0 .012-.245.019-.7.019h-.701V8.069c0-.863.005-1.117.022-1.138.019-.021.14-.026.72-.026.452 0 .695.005.695.017z" fill="#73778D"/></svg>