<svg width="12" height="12" viewBox="0 0 40 40" fill="none" xmlns="http://www.w3.org/2000/svg"><path fill-rule="evenodd" clip-rule="evenodd" d="M32.027 33.636A18.138 18.138 0 0038.182 20c0-10.042-8.14-18.182-18.182-18.182C9.958 1.818 1.818 9.958 1.818 20c0 5.43 2.38 10.304 6.155 13.636a14.579 14.579 0 017.619-5.683 9.09 9.09 0 118.816 0 14.579 14.579 0 017.62 5.683zm-1.426 1.137A12.715 12.715 0 0020 29.091c-4.424 0-8.32 2.257-10.601 5.682A18.099 18.099 0 0020 38.182a18.1 18.1 0 0010.601-3.409zm-22.103 1.59A19.908 19.908 0 0020 40c11.046 0 20-8.954 20-20S31.046 0 20 0 0 8.954 0 20c0 6.097 2.728 11.557 7.03 15.225.471.402.96.782 1.468 1.138zM20 27.273a7.273 7.273 0 100-14.546 7.273 7.273 0 000 14.546z" fill="#fff"/></svg>