<svg width="38" height="24" fill="none" xmlns="http://www.w3.org/2000/svg"><path d="M36.13 0H1.006A.953.953 0 00.05.953v22.094c0 .526.426.953.954.953H36.13a.953.953 0 00.953-.953V.953A.953.953 0 0036.131 0zM2.92 7.253h3.95c.533.02.963.19 1.11.76l.86 4.133C7.996 9.984 5.96 8.185 2.885 7.44l.033-.187zM7.7 16.68l-2.283-7.8c1.641 1.05 3.04 2.717 3.532 3.877l.266.964 2.497-6.38h2.701l-4.015 9.337-2.698.002zm8.698.007H13.85l1.594-9.355h2.55L16.4 16.688zm4.437.14c-1.143-.012-2.244-.238-2.84-.5l.358-2.093.329.149c.837.35 1.38.49 2.4.49.732 0 1.517-.286 1.525-.913.004-.41-.329-.702-1.322-1.16-.968-.448-2.249-1.198-2.233-2.542.014-1.818 1.79-3.086 4.31-3.086a6.58 6.58 0 012.283.392l-.344 2.028-.23-.108a4.704 4.704 0 00-1.909-.358c-.997 0-1.46.416-1.46.805-.006.438.54.726 1.432 1.16 1.47.668 2.15 1.477 2.141 2.542-.02 1.94-1.76 3.194-4.44 3.194zm11.048-.136s-.233-1.076-.31-1.402l-3.265-.004c-.1.252-.536 1.406-.536 1.406h-2.677l3.785-8.573c.269-.61.725-.777 1.336-.777h1.97l2.063 9.35h-2.366z" fill="#73778D"/><path d="M30.568 10.672l-.172-.806c-.13.352-.354.918-.34.893l-1.015 2.615h2.117l-.59-2.702z" fill="#73778D"/></svg>