<svg width="33" height="18" fill="none" xmlns="http://www.w3.org/2000/svg"><path fill-rule="evenodd" clip-rule="evenodd" d="M28.956 12.618s2.587 2.514 3.227 3.677a.197.197 0 01.029.055c.26.43.325.767.197 1.016-.216.41-.947.617-1.195.634H26.64c-.319 0-.981-.082-1.787-.63-.616-.423-1.23-1.12-1.823-1.802-.886-1.012-1.653-1.89-2.429-1.89a.892.892 0 00-.288.046c-.587.183-1.332 1.006-1.332 3.2 0 .686-.55 1.076-.936 1.076H15.95c-.713 0-4.429-.246-7.723-3.663C4.191 10.152.566 1.758.53 1.684c-.225-.543.248-.839.76-.839h4.618c.62 0 .82.369.962.7.163.379.768 1.896 1.76 3.601 1.606 2.774 2.593 3.903 3.382 3.903a.854.854 0 00.422-.11c1.03-.558.839-4.178.79-4.925 0-.144 0-1.616-.529-2.328-.377-.51-1.02-.708-1.41-.78.105-.149.325-.375.609-.51C12.599.05 13.874 0 15.14 0h.702c1.373.019 1.728.105 2.228.23 1.004.236 1.024.877.936 3.059a50.277 50.277 0 00-.053 2.152c0 .176-.008.373-.008.573-.03 1.119-.07 2.38.733 2.898a.664.664 0 00.347.097c.278 0 1.112 0 3.373-3.817.992-1.686 1.76-3.674 1.812-3.824.045-.083.18-.318.343-.412a.777.777 0 01.377-.089h5.432c.592 0 .994.089 1.072.309.132.357-.025 1.448-2.505 4.748-.418.55-.784 1.025-1.106 1.44-2.248 2.903-2.248 3.05.133 5.254z" fill="#3E425B"/></svg>